<?xml version="1.0" encoding="utf-8" standalone="no"?>
<!DOCTYPE svg PUBLIC "-//W3C//DTD SVG 1.1//EN"
  "http://www.w3.org/Graphics/SVG/1.1/DTD/svg11.dtd">
<svg xmlns:xlink="http://www.w3.org/1999/xlink" width="459.532742pt" height="370.537812pt" viewBox="0 0 459.532742 370.537812" xmlns="http://www.w3.org/2000/svg" version="1.1">
 <metadata>
  <rdf:RDF xmlns:dc="http://purl.org/dc/elements/1.1/" xmlns:cc="http://creativecommons.org/ns#" xmlns:rdf="http://www.w3.org/1999/02/22-rdf-syntax-ns#">
   <cc:Work>
    <dc:type rdf:resource="http://purl.org/dc/dcmitype/StillImage"/>
    <dc:date>2026-01-12T13:09:45.245322</dc:date>
    <dc:format>image/svg+xml</dc:format>
    <dc:creator>
     <cc:Agent>
      <dc:title>Matplotlib v3.10.7, https://matplotlib.org/</dc:title>
     </cc:Agent>
    </dc:creator>
   </cc:Work>
  </rdf:RDF>
 </metadata>
 <defs>
  <style type="text/css">*{stroke-linejoin: round; stroke-linecap: butt}</style>
 </defs>
 <g id="figure_1">
  <g id="patch_1">
   <path d="M 0 370.537812 
L 459.532742 370.537812 
L 459.532742 0 
L 0 0 
z
" style="fill: #ffffff"/>
  </g>
  <g id="axes_1">
   <g id="patch_2">
    <path d="M 54.727813 320.4 
L 445.327813 320.4 
L 445.327813 43.2 
L 54.727813 43.2 
z
" style="fill: #ffffff"/>
   </g>
   <g id="matplotlib.axis_1">
    <g id="xtick_1">
     <g id="line2d_1">
      <defs>
       <path id="me3b2327788" d="M 0 0 
L 0 3.5 
" style="stroke: #000000; stroke-width: 0.8"/>
      </defs>
      <g>
       <use xlink:href="#me3b2327788" x="72.482358" y="320.4" style="stroke: #000000; stroke-width: 0.8"/>
      </g>
     </g>
     <g id="text_1">
      <!-- 0 -->
      <g transform="translate(67.710483 338.797656) scale(0.15 -0.15)">
       <defs>
        <path id="DejaVuSans-30" d="M 2034 4250 
Q 1547 4250 1301 3770 
Q 1056 3291 1056 2328 
Q 1056 1369 1301 889 
Q 1547 409 2034 409 
Q 2525 409 2770 889 
Q 3016 1369 3016 2328 
Q 3016 3291 2770 3770 
Q 2525 4250 2034 4250 
z
M 2034 4750 
Q 2819 4750 3233 4129 
Q 3647 3509 3647 2328 
Q 3647 1150 3233 529 
Q 2819 -91 2034 -91 
Q 1250 -91 836 529 
Q 422 1150 422 2328 
Q 422 3509 836 4129 
Q 1250 4750 2034 4750 
z
" transform="scale(0.015625)"/>
       </defs>
       <use xlink:href="#DejaVuSans-30"/>
      </g>
     </g>
    </g>
    <g id="xtick_2">
     <g id="line2d_2">
      <g>
       <use xlink:href="#me3b2327788" x="124.701609" y="320.4" style="stroke: #000000; stroke-width: 0.8"/>
      </g>
     </g>
     <g id="text_2">
      <!-- 25 -->
      <g transform="translate(115.157859 338.797656) scale(0.15 -0.15)">
       <defs>
        <path id="DejaVuSans-32" d="M 1228 531 
L 3431 531 
L 3431 0 
L 469 0 
L 469 531 
Q 828 903 1448 1529 
Q 2069 2156 2228 2338 
Q 2531 2678 2651 2914 
Q 2772 3150 2772 3378 
Q 2772 3750 2511 3984 
Q 2250 4219 1831 4219 
Q 1534 4219 1204 4116 
Q 875 4013 500 3803 
L 500 4441 
Q 881 4594 1212 4672 
Q 1544 4750 1819 4750 
Q 2544 4750 2975 4387 
Q 3406 4025 3406 3419 
Q 3406 3131 3298 2873 
Q 3191 2616 2906 2266 
Q 2828 2175 2409 1742 
Q 1991 1309 1228 531 
z
" transform="scale(0.015625)"/>
        <path id="DejaVuSans-35" d="M 691 4666 
L 3169 4666 
L 3169 4134 
L 1269 4134 
L 1269 2991 
Q 1406 3038 1543 3061 
Q 1681 3084 1819 3084 
Q 2600 3084 3056 2656 
Q 3513 2228 3513 1497 
Q 3513 744 3044 326 
Q 2575 -91 1722 -91 
Q 1428 -91 1123 -41 
Q 819 9 494 109 
L 494 744 
Q 775 591 1075 516 
Q 1375 441 1709 441 
Q 2250 441 2565 725 
Q 2881 1009 2881 1497 
Q 2881 1984 2565 2268 
Q 2250 2553 1709 2553 
Q 1456 2553 1204 2497 
Q 953 2441 691 2322 
L 691 4666 
z
" transform="scale(0.015625)"/>
       </defs>
       <use xlink:href="#DejaVuSans-32"/>
       <use xlink:href="#DejaVuSans-35" transform="translate(63.623047 0)"/>
      </g>
     </g>
    </g>
    <g id="xtick_3">
     <g id="line2d_3">
      <g>
       <use xlink:href="#me3b2327788" x="176.920861" y="320.4" style="stroke: #000000; stroke-width: 0.8"/>
      </g>
     </g>
     <g id="text_3">
      <!-- 50 -->
      <g transform="translate(167.377111 338.797656) scale(0.15 -0.15)">
       <use xlink:href="#DejaVuSans-35"/>
       <use xlink:href="#DejaVuSans-30" transform="translate(63.623047 0)"/>
      </g>
     </g>
    </g>
    <g id="xtick_4">
     <g id="line2d_4">
      <g>
       <use xlink:href="#me3b2327788" x="229.140112" y="320.4" style="stroke: #000000; stroke-width: 0.8"/>
      </g>
     </g>
     <g id="text_4">
      <!-- 75 -->
      <g transform="translate(219.596362 338.797656) scale(0.15 -0.15)">
       <defs>
        <path id="DejaVuSans-37" d="M 525 4666 
L 3525 4666 
L 3525 4397 
L 1831 0 
L 1172 0 
L 2766 4134 
L 525 4134 
L 525 4666 
z
" transform="scale(0.015625)"/>
       </defs>
       <use xlink:href="#DejaVuSans-37"/>
       <use xlink:href="#DejaVuSans-35" transform="translate(63.623047 0)"/>
      </g>
     </g>
    </g>
    <g id="xtick_5">
     <g id="line2d_5">
      <g>
       <use xlink:href="#me3b2327788" x="281.359363" y="320.4" style="stroke: #000000; stroke-width: 0.8"/>
      </g>
     </g>
     <g id="text_5">
      <!-- 100 -->
      <g transform="translate(267.043738 338.797656) scale(0.15 -0.15)">
       <defs>
        <path id="DejaVuSans-31" d="M 794 531 
L 1825 531 
L 1825 4091 
L 703 3866 
L 703 4441 
L 1819 4666 
L 2450 4666 
L 2450 531 
L 3481 531 
L 3481 0 
L 794 0 
L 794 531 
z
" transform="scale(0.015625)"/>
       </defs>
       <use xlink:href="#DejaVuSans-31"/>
       <use xlink:href="#DejaVuSans-30" transform="translate(63.623047 0)"/>
       <use xlink:href="#DejaVuSans-30" transform="translate(127.246094 0)"/>
      </g>
     </g>
    </g>
    <g id="xtick_6">
     <g id="line2d_6">
      <g>
       <use xlink:href="#me3b2327788" x="333.578615" y="320.4" style="stroke: #000000; stroke-width: 0.8"/>
      </g>
     </g>
     <g id="text_6">
      <!-- 125 -->
      <g transform="translate(319.26299 338.797656) scale(0.15 -0.15)">
       <use xlink:href="#DejaVuSans-31"/>
       <use xlink:href="#DejaVuSans-32" transform="translate(63.623047 0)"/>
       <use xlink:href="#DejaVuSans-35" transform="translate(127.246094 0)"/>
      </g>
     </g>
    </g>
    <g id="xtick_7">
     <g id="line2d_7">
      <g>
       <use xlink:href="#me3b2327788" x="385.797866" y="320.4" style="stroke: #000000; stroke-width: 0.8"/>
      </g>
     </g>
     <g id="text_7">
      <!-- 150 -->
      <g transform="translate(371.482241 338.797656) scale(0.15 -0.15)">
       <use xlink:href="#DejaVuSans-31"/>
       <use xlink:href="#DejaVuSans-35" transform="translate(63.623047 0)"/>
       <use xlink:href="#DejaVuSans-30" transform="translate(127.246094 0)"/>
      </g>
     </g>
    </g>
    <g id="xtick_8">
     <g id="line2d_8">
      <g>
       <use xlink:href="#me3b2327788" x="438.017117" y="320.4" style="stroke: #000000; stroke-width: 0.8"/>
      </g>
     </g>
     <g id="text_8">
      <!-- 175 -->
      <g transform="translate(423.701492 338.797656) scale(0.15 -0.15)">
       <use xlink:href="#DejaVuSans-31"/>
       <use xlink:href="#DejaVuSans-37" transform="translate(63.623047 0)"/>
       <use xlink:href="#DejaVuSans-35" transform="translate(127.246094 0)"/>
      </g>
     </g>
    </g>
    <g id="text_9">
     <!-- time [hour] -->
     <g transform="translate(192.363125 359.594375) scale(0.18 -0.18)">
      <defs>
       <path id="DejaVuSans-Bold-74" d="M 1759 4494 
L 1759 3500 
L 2913 3500 
L 2913 2700 
L 1759 2700 
L 1759 1216 
Q 1759 972 1856 886 
Q 1953 800 2241 800 
L 2816 800 
L 2816 0 
L 1856 0 
Q 1194 0 917 276 
Q 641 553 641 1216 
L 641 2700 
L 84 2700 
L 84 3500 
L 641 3500 
L 641 4494 
L 1759 4494 
z
" transform="scale(0.015625)"/>
       <path id="DejaVuSans-Bold-69" d="M 538 3500 
L 1656 3500 
L 1656 0 
L 538 0 
L 538 3500 
z
M 538 4863 
L 1656 4863 
L 1656 3950 
L 538 3950 
L 538 4863 
z
" transform="scale(0.015625)"/>
       <path id="DejaVuSans-Bold-6d" d="M 3781 2919 
Q 3994 3244 4286 3414 
Q 4578 3584 4928 3584 
Q 5531 3584 5847 3212 
Q 6163 2841 6163 2131 
L 6163 0 
L 5038 0 
L 5038 1825 
Q 5041 1866 5042 1909 
Q 5044 1953 5044 2034 
Q 5044 2406 4934 2573 
Q 4825 2741 4581 2741 
Q 4263 2741 4089 2478 
Q 3916 2216 3909 1719 
L 3909 0 
L 2784 0 
L 2784 1825 
Q 2784 2406 2684 2573 
Q 2584 2741 2328 2741 
Q 2006 2741 1831 2477 
Q 1656 2213 1656 1722 
L 1656 0 
L 531 0 
L 531 3500 
L 1656 3500 
L 1656 2988 
Q 1863 3284 2130 3434 
Q 2397 3584 2719 3584 
Q 3081 3584 3359 3409 
Q 3638 3234 3781 2919 
z
" transform="scale(0.015625)"/>
       <path id="DejaVuSans-Bold-65" d="M 4031 1759 
L 4031 1441 
L 1416 1441 
Q 1456 1047 1700 850 
Q 1944 653 2381 653 
Q 2734 653 3104 758 
Q 3475 863 3866 1075 
L 3866 213 
Q 3469 63 3072 -14 
Q 2675 -91 2278 -91 
Q 1328 -91 801 392 
Q 275 875 275 1747 
Q 275 2603 792 3093 
Q 1309 3584 2216 3584 
Q 3041 3584 3536 3087 
Q 4031 2591 4031 1759 
z
M 2881 2131 
Q 2881 2450 2695 2645 
Q 2509 2841 2209 2841 
Q 1884 2841 1681 2658 
Q 1478 2475 1428 2131 
L 2881 2131 
z
" transform="scale(0.015625)"/>
       <path id="DejaVuSans-Bold-20" transform="scale(0.015625)"/>
       <path id="DejaVuSans-Bold-5b" d="M 550 4863 
L 2491 4863 
L 2491 4159 
L 1613 4159 
L 1613 -141 
L 2491 -141 
L 2491 -844 
L 550 -844 
L 550 4863 
z
" transform="scale(0.015625)"/>
       <path id="DejaVuSans-Bold-68" d="M 4056 2131 
L 4056 0 
L 2931 0 
L 2931 347 
L 2931 1625 
Q 2931 2084 2911 2256 
Q 2891 2428 2841 2509 
Q 2775 2619 2662 2680 
Q 2550 2741 2406 2741 
Q 2056 2741 1856 2470 
Q 1656 2200 1656 1722 
L 1656 0 
L 538 0 
L 538 4863 
L 1656 4863 
L 1656 2988 
Q 1909 3294 2193 3439 
Q 2478 3584 2822 3584 
Q 3428 3584 3742 3212 
Q 4056 2841 4056 2131 
z
" transform="scale(0.015625)"/>
       <path id="DejaVuSans-Bold-6f" d="M 2203 2784 
Q 1831 2784 1636 2517 
Q 1441 2250 1441 1747 
Q 1441 1244 1636 976 
Q 1831 709 2203 709 
Q 2569 709 2762 976 
Q 2956 1244 2956 1747 
Q 2956 2250 2762 2517 
Q 2569 2784 2203 2784 
z
M 2203 3584 
Q 3106 3584 3614 3096 
Q 4122 2609 4122 1747 
Q 4122 884 3614 396 
Q 3106 -91 2203 -91 
Q 1297 -91 786 396 
Q 275 884 275 1747 
Q 275 2609 786 3096 
Q 1297 3584 2203 3584 
z
" transform="scale(0.015625)"/>
       <path id="DejaVuSans-Bold-75" d="M 500 1363 
L 500 3500 
L 1625 3500 
L 1625 3150 
Q 1625 2866 1622 2436 
Q 1619 2006 1619 1863 
Q 1619 1441 1641 1255 
Q 1663 1069 1716 984 
Q 1784 875 1895 815 
Q 2006 756 2150 756 
Q 2500 756 2700 1025 
Q 2900 1294 2900 1772 
L 2900 3500 
L 4019 3500 
L 4019 0 
L 2900 0 
L 2900 506 
Q 2647 200 2364 54 
Q 2081 -91 1741 -91 
Q 1134 -91 817 281 
Q 500 653 500 1363 
z
" transform="scale(0.015625)"/>
       <path id="DejaVuSans-Bold-72" d="M 3138 2547 
Q 2991 2616 2845 2648 
Q 2700 2681 2553 2681 
Q 2122 2681 1889 2404 
Q 1656 2128 1656 1613 
L 1656 0 
L 538 0 
L 538 3500 
L 1656 3500 
L 1656 2925 
Q 1872 3269 2151 3426 
Q 2431 3584 2822 3584 
Q 2878 3584 2943 3579 
Q 3009 3575 3134 3559 
L 3138 2547 
z
" transform="scale(0.015625)"/>
       <path id="DejaVuSans-Bold-5d" d="M 2375 -844 
L 434 -844 
L 434 -141 
L 1313 -141 
L 1313 4159 
L 434 4159 
L 434 4863 
L 2375 4863 
L 2375 -844 
z
" transform="scale(0.015625)"/>
      </defs>
      <use xlink:href="#DejaVuSans-Bold-74"/>
      <use xlink:href="#DejaVuSans-Bold-69" transform="translate(47.802734 0)"/>
      <use xlink:href="#DejaVuSans-Bold-6d" transform="translate(82.080078 0)"/>
      <use xlink:href="#DejaVuSans-Bold-65" transform="translate(186.279297 0)"/>
      <use xlink:href="#DejaVuSans-Bold-20" transform="translate(254.101562 0)"/>
      <use xlink:href="#DejaVuSans-Bold-5b" transform="translate(288.916016 0)"/>
      <use xlink:href="#DejaVuSans-Bold-68" transform="translate(334.619141 0)"/>
      <use xlink:href="#DejaVuSans-Bold-6f" transform="translate(405.810547 0)"/>
      <use xlink:href="#DejaVuSans-Bold-75" transform="translate(474.511719 0)"/>
      <use xlink:href="#DejaVuSans-Bold-72" transform="translate(545.703125 0)"/>
      <use xlink:href="#DejaVuSans-Bold-5d" transform="translate(595.019531 0)"/>
     </g>
    </g>
   </g>
   <g id="matplotlib.axis_2">
    <g id="ytick_1">
     <g id="line2d_9">
      <defs>
       <path id="mbcd94a3d65" d="M 0 0 
L -3.5 0 
" style="stroke: #000000; stroke-width: 0.8"/>
      </defs>
      <g>
       <use xlink:href="#mbcd94a3d65" x="54.727813" y="307.8" style="stroke: #000000; stroke-width: 0.8"/>
      </g>
     </g>
     <g id="text_10">
      <!-- 0 -->
      <g transform="translate(38.184063 313.498828) scale(0.15 -0.15)">
       <use xlink:href="#DejaVuSans-30"/>
      </g>
     </g>
    </g>
    <g id="ytick_2">
     <g id="line2d_10">
      <g>
       <use xlink:href="#mbcd94a3d65" x="54.727813" y="259.762372" style="stroke: #000000; stroke-width: 0.8"/>
      </g>
     </g>
     <g id="text_11">
      <!-- 2 -->
      <g transform="translate(38.184063 265.461201) scale(0.15 -0.15)">
       <use xlink:href="#DejaVuSans-32"/>
      </g>
     </g>
    </g>
    <g id="ytick_3">
     <g id="line2d_11">
      <g>
       <use xlink:href="#mbcd94a3d65" x="54.727813" y="211.724745" style="stroke: #000000; stroke-width: 0.8"/>
      </g>
     </g>
     <g id="text_12">
      <!-- 4 -->
      <g transform="translate(38.184063 217.423573) scale(0.15 -0.15)">
       <defs>
        <path id="DejaVuSans-34" d="M 2419 4116 
L 825 1625 
L 2419 1625 
L 2419 4116 
z
M 2253 4666 
L 3047 4666 
L 3047 1625 
L 3713 1625 
L 3713 1100 
L 3047 1100 
L 3047 0 
L 2419 0 
L 2419 1100 
L 313 1100 
L 313 1709 
L 2253 4666 
z
" transform="scale(0.015625)"/>
       </defs>
       <use xlink:href="#DejaVuSans-34"/>
      </g>
     </g>
    </g>
    <g id="ytick_4">
     <g id="line2d_12">
      <g>
       <use xlink:href="#mbcd94a3d65" x="54.727813" y="163.687117" style="stroke: #000000; stroke-width: 0.8"/>
      </g>
     </g>
     <g id="text_13">
      <!-- 6 -->
      <g transform="translate(38.184063 169.385945) scale(0.15 -0.15)">
       <defs>
        <path id="DejaVuSans-36" d="M 2113 2584 
Q 1688 2584 1439 2293 
Q 1191 2003 1191 1497 
Q 1191 994 1439 701 
Q 1688 409 2113 409 
Q 2538 409 2786 701 
Q 3034 994 3034 1497 
Q 3034 2003 2786 2293 
Q 2538 2584 2113 2584 
z
M 3366 4563 
L 3366 3988 
Q 3128 4100 2886 4159 
Q 2644 4219 2406 4219 
Q 1781 4219 1451 3797 
Q 1122 3375 1075 2522 
Q 1259 2794 1537 2939 
Q 1816 3084 2150 3084 
Q 2853 3084 3261 2657 
Q 3669 2231 3669 1497 
Q 3669 778 3244 343 
Q 2819 -91 2113 -91 
Q 1303 -91 875 529 
Q 447 1150 447 2328 
Q 447 3434 972 4092 
Q 1497 4750 2381 4750 
Q 2619 4750 2861 4703 
Q 3103 4656 3366 4563 
z
" transform="scale(0.015625)"/>
       </defs>
       <use xlink:href="#DejaVuSans-36"/>
      </g>
     </g>
    </g>
    <g id="ytick_5">
     <g id="line2d_13">
      <g>
       <use xlink:href="#mbcd94a3d65" x="54.727813" y="115.64949" style="stroke: #000000; stroke-width: 0.8"/>
      </g>
     </g>
     <g id="text_14">
      <!-- 8 -->
      <g transform="translate(38.184063 121.348318) scale(0.15 -0.15)">
       <defs>
        <path id="DejaVuSans-38" d="M 2034 2216 
Q 1584 2216 1326 1975 
Q 1069 1734 1069 1313 
Q 1069 891 1326 650 
Q 1584 409 2034 409 
Q 2484 409 2743 651 
Q 3003 894 3003 1313 
Q 3003 1734 2745 1975 
Q 2488 2216 2034 2216 
z
M 1403 2484 
Q 997 2584 770 2862 
Q 544 3141 544 3541 
Q 544 4100 942 4425 
Q 1341 4750 2034 4750 
Q 2731 4750 3128 4425 
Q 3525 4100 3525 3541 
Q 3525 3141 3298 2862 
Q 3072 2584 2669 2484 
Q 3125 2378 3379 2068 
Q 3634 1759 3634 1313 
Q 3634 634 3220 271 
Q 2806 -91 2034 -91 
Q 1263 -91 848 271 
Q 434 634 434 1313 
Q 434 1759 690 2068 
Q 947 2378 1403 2484 
z
M 1172 3481 
Q 1172 3119 1398 2916 
Q 1625 2713 2034 2713 
Q 2441 2713 2670 2916 
Q 2900 3119 2900 3481 
Q 2900 3844 2670 4047 
Q 2441 4250 2034 4250 
Q 1625 4250 1398 4047 
Q 1172 3844 1172 3481 
z
" transform="scale(0.015625)"/>
       </defs>
       <use xlink:href="#DejaVuSans-38"/>
      </g>
     </g>
    </g>
    <g id="ytick_6">
     <g id="line2d_14">
      <g>
       <use xlink:href="#mbcd94a3d65" x="54.727813" y="67.611862" style="stroke: #000000; stroke-width: 0.8"/>
      </g>
     </g>
     <g id="text_15">
      <!-- 10 -->
      <g transform="translate(28.640313 73.31069) scale(0.15 -0.15)">
       <use xlink:href="#DejaVuSans-31"/>
       <use xlink:href="#DejaVuSans-30" transform="translate(63.623047 0)"/>
      </g>
     </g>
    </g>
    <g id="text_16">
     <!-- sorafenib (plasma) [µM] -->
     <g transform="translate(20.877188 304.512187) rotate(-90) scale(0.18 -0.18)">
      <defs>
       <path id="DejaVuSans-Bold-73" d="M 3272 3391 
L 3272 2541 
Q 2913 2691 2578 2766 
Q 2244 2841 1947 2841 
Q 1628 2841 1473 2761 
Q 1319 2681 1319 2516 
Q 1319 2381 1436 2309 
Q 1553 2238 1856 2203 
L 2053 2175 
Q 2913 2066 3209 1816 
Q 3506 1566 3506 1031 
Q 3506 472 3093 190 
Q 2681 -91 1863 -91 
Q 1516 -91 1145 -36 
Q 775 19 384 128 
L 384 978 
Q 719 816 1070 734 
Q 1422 653 1784 653 
Q 2113 653 2278 743 
Q 2444 834 2444 1013 
Q 2444 1163 2330 1236 
Q 2216 1309 1875 1350 
L 1678 1375 
Q 931 1469 631 1722 
Q 331 1975 331 2491 
Q 331 3047 712 3315 
Q 1094 3584 1881 3584 
Q 2191 3584 2531 3537 
Q 2872 3491 3272 3391 
z
" transform="scale(0.015625)"/>
       <path id="DejaVuSans-Bold-61" d="M 2106 1575 
Q 1756 1575 1579 1456 
Q 1403 1338 1403 1106 
Q 1403 894 1545 773 
Q 1688 653 1941 653 
Q 2256 653 2472 879 
Q 2688 1106 2688 1447 
L 2688 1575 
L 2106 1575 
z
M 3816 1997 
L 3816 0 
L 2688 0 
L 2688 519 
Q 2463 200 2181 54 
Q 1900 -91 1497 -91 
Q 953 -91 614 226 
Q 275 544 275 1050 
Q 275 1666 698 1953 
Q 1122 2241 2028 2241 
L 2688 2241 
L 2688 2328 
Q 2688 2594 2478 2717 
Q 2269 2841 1825 2841 
Q 1466 2841 1156 2769 
Q 847 2697 581 2553 
L 581 3406 
Q 941 3494 1303 3539 
Q 1666 3584 2028 3584 
Q 2975 3584 3395 3211 
Q 3816 2838 3816 1997 
z
" transform="scale(0.015625)"/>
       <path id="DejaVuSans-Bold-66" d="M 2841 4863 
L 2841 4128 
L 2222 4128 
Q 1984 4128 1890 4042 
Q 1797 3956 1797 3744 
L 1797 3500 
L 2753 3500 
L 2753 2700 
L 1797 2700 
L 1797 0 
L 678 0 
L 678 2700 
L 122 2700 
L 122 3500 
L 678 3500 
L 678 3744 
Q 678 4316 997 4589 
Q 1316 4863 1984 4863 
L 2841 4863 
z
" transform="scale(0.015625)"/>
       <path id="DejaVuSans-Bold-6e" d="M 4056 2131 
L 4056 0 
L 2931 0 
L 2931 347 
L 2931 1631 
Q 2931 2084 2911 2256 
Q 2891 2428 2841 2509 
Q 2775 2619 2662 2680 
Q 2550 2741 2406 2741 
Q 2056 2741 1856 2470 
Q 1656 2200 1656 1722 
L 1656 0 
L 538 0 
L 538 3500 
L 1656 3500 
L 1656 2988 
Q 1909 3294 2193 3439 
Q 2478 3584 2822 3584 
Q 3428 3584 3742 3212 
Q 4056 2841 4056 2131 
z
" transform="scale(0.015625)"/>
       <path id="DejaVuSans-Bold-62" d="M 2400 722 
Q 2759 722 2948 984 
Q 3138 1247 3138 1747 
Q 3138 2247 2948 2509 
Q 2759 2772 2400 2772 
Q 2041 2772 1848 2508 
Q 1656 2244 1656 1747 
Q 1656 1250 1848 986 
Q 2041 722 2400 722 
z
M 1656 2988 
Q 1888 3294 2169 3439 
Q 2450 3584 2816 3584 
Q 3463 3584 3878 3070 
Q 4294 2556 4294 1747 
Q 4294 938 3878 423 
Q 3463 -91 2816 -91 
Q 2450 -91 2169 54 
Q 1888 200 1656 506 
L 1656 0 
L 538 0 
L 538 4863 
L 1656 4863 
L 1656 2988 
z
" transform="scale(0.015625)"/>
       <path id="DejaVuSans-Bold-28" d="M 2413 -844 
L 1484 -844 
Q 1006 -72 778 623 
Q 550 1319 550 2003 
Q 550 2688 779 3389 
Q 1009 4091 1484 4856 
L 2413 4856 
Q 2013 4116 1813 3408 
Q 1613 2700 1613 2009 
Q 1613 1319 1811 609 
Q 2009 -100 2413 -844 
z
" transform="scale(0.015625)"/>
       <path id="DejaVuSans-Bold-70" d="M 1656 506 
L 1656 -1331 
L 538 -1331 
L 538 3500 
L 1656 3500 
L 1656 2988 
Q 1888 3294 2169 3439 
Q 2450 3584 2816 3584 
Q 3463 3584 3878 3070 
Q 4294 2556 4294 1747 
Q 4294 938 3878 423 
Q 3463 -91 2816 -91 
Q 2450 -91 2169 54 
Q 1888 200 1656 506 
z
M 2400 2772 
Q 2041 2772 1848 2508 
Q 1656 2244 1656 1747 
Q 1656 1250 1848 986 
Q 2041 722 2400 722 
Q 2759 722 2948 984 
Q 3138 1247 3138 1747 
Q 3138 2247 2948 2509 
Q 2759 2772 2400 2772 
z
" transform="scale(0.015625)"/>
       <path id="DejaVuSans-Bold-6c" d="M 538 4863 
L 1656 4863 
L 1656 0 
L 538 0 
L 538 4863 
z
" transform="scale(0.015625)"/>
       <path id="DejaVuSans-Bold-29" d="M 513 -844 
Q 913 -100 1113 609 
Q 1313 1319 1313 2009 
Q 1313 2700 1113 3408 
Q 913 4116 513 4856 
L 1441 4856 
Q 1916 4091 2145 3389 
Q 2375 2688 2375 2003 
Q 2375 1319 2147 623 
Q 1919 -72 1441 -844 
L 513 -844 
z
" transform="scale(0.015625)"/>
       <path id="DejaVuSans-Bold-b5" d="M 544 -1338 
L 544 3500 
L 1672 3500 
L 1672 1466 
Q 1672 1103 1828 926 
Q 1984 750 2303 750 
Q 2625 750 2781 926 
Q 2938 1103 2938 1466 
L 2938 3500 
L 4063 3500 
L 4063 1159 
Q 4063 938 4114 850 
Q 4166 763 4288 763 
Q 4344 763 4395 778 
Q 4447 794 4506 831 
L 4506 50 
Q 4341 -22 4195 -56 
Q 4050 -91 3909 -91 
Q 3631 -91 3454 26 
Q 3278 144 3169 403 
Q 3022 156 2811 32 
Q 2600 -91 2322 -91 
Q 2091 -91 1928 -17 
Q 1766 56 1672 206 
L 1672 -1338 
L 544 -1338 
z
" transform="scale(0.015625)"/>
       <path id="DejaVuSans-Bold-4d" d="M 588 4666 
L 2119 4666 
L 3181 2169 
L 4250 4666 
L 5778 4666 
L 5778 0 
L 4641 0 
L 4641 3413 
L 3566 897 
L 2803 897 
L 1728 3413 
L 1728 0 
L 588 0 
L 588 4666 
z
" transform="scale(0.015625)"/>
      </defs>
      <use xlink:href="#DejaVuSans-Bold-73"/>
      <use xlink:href="#DejaVuSans-Bold-6f" transform="translate(59.521484 0)"/>
      <use xlink:href="#DejaVuSans-Bold-72" transform="translate(128.222656 0)"/>
      <use xlink:href="#DejaVuSans-Bold-61" transform="translate(177.539062 0)"/>
      <use xlink:href="#DejaVuSans-Bold-66" transform="translate(245.019531 0)"/>
      <use xlink:href="#DejaVuSans-Bold-65" transform="translate(288.525391 0)"/>
      <use xlink:href="#DejaVuSans-Bold-6e" transform="translate(356.347656 0)"/>
      <use xlink:href="#DejaVuSans-Bold-69" transform="translate(427.539062 0)"/>
      <use xlink:href="#DejaVuSans-Bold-62" transform="translate(461.816406 0)"/>
      <use xlink:href="#DejaVuSans-Bold-20" transform="translate(533.398438 0)"/>
      <use xlink:href="#DejaVuSans-Bold-28" transform="translate(568.212891 0)"/>
      <use xlink:href="#DejaVuSans-Bold-70" transform="translate(613.916016 0)"/>
      <use xlink:href="#DejaVuSans-Bold-6c" transform="translate(685.498047 0)"/>
      <use xlink:href="#DejaVuSans-Bold-61" transform="translate(719.775391 0)"/>
      <use xlink:href="#DejaVuSans-Bold-73" transform="translate(787.255859 0)"/>
      <use xlink:href="#DejaVuSans-Bold-6d" transform="translate(846.777344 0)"/>
      <use xlink:href="#DejaVuSans-Bold-61" transform="translate(950.976562 0)"/>
      <use xlink:href="#DejaVuSans-Bold-29" transform="translate(1018.457031 0)"/>
      <use xlink:href="#DejaVuSans-Bold-20" transform="translate(1064.160156 0)"/>
      <use xlink:href="#DejaVuSans-Bold-5b" transform="translate(1098.974609 0)"/>
      <use xlink:href="#DejaVuSans-Bold-b5" transform="translate(1144.677734 0)"/>
      <use xlink:href="#DejaVuSans-Bold-4d" transform="translate(1218.261719 0)"/>
      <use xlink:href="#DejaVuSans-Bold-5d" transform="translate(1317.773438 0)"/>
     </g>
    </g>
   </g>
   <g id="line2d_15">
    <path d="M 72.482358 307.8 
L 72.837449 307.659863 
L 73.19254 307.285518 
L 73.902722 306.055384 
L 75.323085 302.708357 
L 77.09854 298.533735 
L 78.518903 295.839498 
L 79.584176 294.266868 
L 80.649449 293.051238 
L 81.714722 292.146088 
L 82.779994 291.500051 
L 83.845267 291.06413 
L 85.265631 290.73577 
L 87.041085 290.616884 
L 89.171631 290.747709 
L 92.012358 291.174535 
L 97.338722 292.258513 
L 109.411813 294.739982 
L 118.644176 296.390901 
L 128.586722 297.936123 
L 139.239449 299.359442 
L 150.602358 300.651312 
L 163.03054 301.838418 
L 176.879085 302.930008 
L 192.147994 303.902994 
L 209.192358 304.761057 
L 228.722358 305.514363 
L 251.448176 306.15906 
L 278.435085 306.692766 
L 311.813631 307.119284 
L 355.134722 307.437919 
L 416.92054 307.652824 
L 427.573267 307.673982 
L 427.573267 307.673982 
" clip-path="url(#p448769c785)" style="fill: none; stroke: #f5e926; stroke-width: 2; stroke-linecap: square"/>
   </g>
   <g id="line2d_16">
    <path d="M 72.482358 307.8 
L 72.837449 307.589793 
L 73.19254 307.028264 
L 73.902722 305.182895 
L 74.967994 301.481384 
L 77.09854 293.889554 
L 78.163813 290.753642 
L 79.229085 288.194693 
L 80.294358 286.189061 
L 81.359631 284.674239 
L 82.424903 283.574632 
L 83.490176 282.815183 
L 84.555449 282.327917 
L 85.620722 282.054477 
L 87.041085 281.940244 
L 88.81654 282.078371 
L 90.947085 282.499433 
L 94.142903 283.39396 
L 114.738176 289.630038 
L 122.550176 291.598475 
L 130.717267 293.427584 
L 139.59454 295.181037 
L 148.826903 296.776972 
L 158.769449 298.269748 
L 169.422176 299.644754 
L 181.140176 300.928571 
L 193.923449 302.099162 
L 207.771994 303.14291 
L 223.395994 304.092551 
L 240.795449 304.92376 
L 260.68054 305.647868 
L 284.11654 306.270797 
L 312.168722 306.784042 
L 346.967631 307.188186 
L 393.129449 307.487759 
L 427.573267 307.610968 
L 427.573267 307.610968 
" clip-path="url(#p448769c785)" style="fill: none; stroke: #f7e225; stroke-width: 2; stroke-linecap: square"/>
   </g>
   <g id="line2d_17">
    <path d="M 72.482358 307.8 
L 72.837449 307.519723 
L 73.19254 306.771003 
L 73.902722 304.310285 
L 74.967994 299.373241 
L 77.09854 289.238029 
L 78.163813 285.045542 
L 79.229085 281.620278 
L 80.294358 278.931955 
L 81.359631 276.898353 
L 82.424903 275.41952 
L 83.490176 274.395908 
L 84.555449 273.737139 
L 85.620722 273.365443 
L 86.685994 273.216208 
L 88.106358 273.274351 
L 89.881813 273.63145 
L 92.012358 274.313494 
L 95.563267 275.738895 
L 109.056722 281.389157 
L 115.803449 283.885607 
L 122.550176 286.145704 
L 129.651994 288.292663 
L 137.108903 290.31653 
L 144.920903 292.210396 
L 153.443085 294.041826 
L 162.320358 295.719941 
L 171.907813 297.302107 
L 182.205449 298.770503 
L 193.213267 300.113021 
L 205.286358 301.356427 
L 218.424722 302.481607 
L 232.983449 303.500006 
L 249.317631 304.412008 
L 267.782358 305.212036 
L 289.087813 305.9032 
L 313.944176 306.4798 
L 344.126903 306.949688 
L 382.476722 307.313746 
L 427.573267 307.547951 
L 427.573267 307.547951 
" clip-path="url(#p448769c785)" style="fill: none; stroke: #fada24; stroke-width: 2; stroke-linecap: square"/>
   </g>
   <g id="line2d_18">
    <path d="M 77.678775 286.57929 
L 78.623209 250.564152 
L 80.109093 203.234724 
L 82.196672 175.837332 
L 84.293869 153.428836 
L 88.30854 249.107901 
L 91.920224 252.632884 
L 95.789851 214.656995 
L 99.644417 256.510718 
L 122.134168 235.348423 
L 150.861888 285.548204 
L 175.920331 285.93667 
L 223.471117 298.157899 
L 275.262578 303.130678 
L 324.737582 306.710337 
L 424.307621 307.566096 
" clip-path="url(#p448769c785)" style="fill: none; stroke-dasharray: 3.7,1.6; stroke-dashoffset: 0; stroke: #f5e926"/>
    <defs>
     <path id="macde56dda3" d="M -3 3 
L 3 3 
L 3 -3 
L -3 -3 
z
" style="stroke: #000000; stroke-linejoin: miter"/>
    </defs>
    <g clip-path="url(#p448769c785)">
     <use xlink:href="#macde56dda3" x="77.678775" y="286.57929" style="fill: #f5e926; stroke: #000000; stroke-linejoin: miter"/>
     <use xlink:href="#macde56dda3" x="78.623209" y="250.564152" style="fill: #f5e926; stroke: #000000; stroke-linejoin: miter"/>
     <use xlink:href="#macde56dda3" x="80.109093" y="203.234724" style="fill: #f5e926; stroke: #000000; stroke-linejoin: miter"/>
     <use xlink:href="#macde56dda3" x="82.196672" y="175.837332" style="fill: #f5e926; stroke: #000000; stroke-linejoin: miter"/>
     <use xlink:href="#macde56dda3" x="84.293869" y="153.428836" style="fill: #f5e926; stroke: #000000; stroke-linejoin: miter"/>
     <use xlink:href="#macde56dda3" x="88.30854" y="249.107901" style="fill: #f5e926; stroke: #000000; stroke-linejoin: miter"/>
     <use xlink:href="#macde56dda3" x="91.920224" y="252.632884" style="fill: #f5e926; stroke: #000000; stroke-linejoin: miter"/>
     <use xlink:href="#macde56dda3" x="95.789851" y="214.656995" style="fill: #f5e926; stroke: #000000; stroke-linejoin: miter"/>
     <use xlink:href="#macde56dda3" x="99.644417" y="256.510718" style="fill: #f5e926; stroke: #000000; stroke-linejoin: miter"/>
     <use xlink:href="#macde56dda3" x="122.134168" y="235.348423" style="fill: #f5e926; stroke: #000000; stroke-linejoin: miter"/>
     <use xlink:href="#macde56dda3" x="150.861888" y="285.548204" style="fill: #f5e926; stroke: #000000; stroke-linejoin: miter"/>
     <use xlink:href="#macde56dda3" x="175.920331" y="285.93667" style="fill: #f5e926; stroke: #000000; stroke-linejoin: miter"/>
     <use xlink:href="#macde56dda3" x="223.471117" y="298.157899" style="fill: #f5e926; stroke: #000000; stroke-linejoin: miter"/>
     <use xlink:href="#macde56dda3" x="275.262578" y="303.130678" style="fill: #f5e926; stroke: #000000; stroke-linejoin: miter"/>
     <use xlink:href="#macde56dda3" x="324.737582" y="306.710337" style="fill: #f5e926; stroke: #000000; stroke-linejoin: miter"/>
     <use xlink:href="#macde56dda3" x="424.307621" y="307.566096" style="fill: #f5e926; stroke: #000000; stroke-linejoin: miter"/>
    </g>
   </g>
   <g id="line2d_19">
    <path d="M 73.297705 300.1586 
L 74.129382 260.15886 
L 76.396981 204.220526 
L 78.272188 164.996364 
L 80.224105 160.805279 
L 84.725143 257.232524 
L 88.788091 265.540431 
L 93.264558 238.793855 
L 97.311774 267.905321 
L 122.151829 249.028341 
L 149.329278 287.972873 
L 174.47145 284.014662 
L 223.962615 296.876397 
L 274.117618 301.529994 
L 324.266097 305.48532 
L 425.239902 306.584375 
" clip-path="url(#p448769c785)" style="fill: none; stroke-dasharray: 3.7,1.6; stroke-dashoffset: 0; stroke: #f5e926"/>
    <g clip-path="url(#p448769c785)">
     <use xlink:href="#macde56dda3" x="73.297705" y="300.1586" style="fill: #f5e926; stroke: #000000; stroke-linejoin: miter"/>
     <use xlink:href="#macde56dda3" x="74.129382" y="260.15886" style="fill: #f5e926; stroke: #000000; stroke-linejoin: miter"/>
     <use xlink:href="#macde56dda3" x="76.396981" y="204.220526" style="fill: #f5e926; stroke: #000000; stroke-linejoin: miter"/>
     <use xlink:href="#macde56dda3" x="78.272188" y="164.996364" style="fill: #f5e926; stroke: #000000; stroke-linejoin: miter"/>
     <use xlink:href="#macde56dda3" x="80.224105" y="160.805279" style="fill: #f5e926; stroke: #000000; stroke-linejoin: miter"/>
     <use xlink:href="#macde56dda3" x="84.725143" y="257.232524" style="fill: #f5e926; stroke: #000000; stroke-linejoin: miter"/>
     <use xlink:href="#macde56dda3" x="88.788091" y="265.540431" style="fill: #f5e926; stroke: #000000; stroke-linejoin: miter"/>
     <use xlink:href="#macde56dda3" x="93.264558" y="238.793855" style="fill: #f5e926; stroke: #000000; stroke-linejoin: miter"/>
     <use xlink:href="#macde56dda3" x="97.311774" y="267.905321" style="fill: #f5e926; stroke: #000000; stroke-linejoin: miter"/>
     <use xlink:href="#macde56dda3" x="122.151829" y="249.028341" style="fill: #f5e926; stroke: #000000; stroke-linejoin: miter"/>
     <use xlink:href="#macde56dda3" x="149.329278" y="287.972873" style="fill: #f5e926; stroke: #000000; stroke-linejoin: miter"/>
     <use xlink:href="#macde56dda3" x="174.47145" y="284.014662" style="fill: #f5e926; stroke: #000000; stroke-linejoin: miter"/>
     <use xlink:href="#macde56dda3" x="223.962615" y="296.876397" style="fill: #f5e926; stroke: #000000; stroke-linejoin: miter"/>
     <use xlink:href="#macde56dda3" x="274.117618" y="301.529994" style="fill: #f5e926; stroke: #000000; stroke-linejoin: miter"/>
     <use xlink:href="#macde56dda3" x="324.266097" y="305.48532" style="fill: #f5e926; stroke: #000000; stroke-linejoin: miter"/>
     <use xlink:href="#macde56dda3" x="425.239902" y="306.584375" style="fill: #f5e926; stroke: #000000; stroke-linejoin: miter"/>
    </g>
   </g>
   <g id="line2d_20">
    <path d="M 76.827 299.062123 
L 78.023464 272.542255 
L 78.256599 218.175249 
L 80.288514 132.694107 
L 82.134604 73.532778 
L 84.143357 63.680056 
L 87.941474 228.168171 
L 92.106833 232.562779 
L 95.781625 192.861931 
L 99.611938 233.82384 
L 122.51037 208.442898 
L 150.150139 277.148269 
L 174.790106 263.301045 
L 224.391732 287.185533 
L 275.220364 296.362402 
L 324.71283 302.742727 
L 424.622733 305.231177 
" clip-path="url(#p448769c785)" style="fill: none; stroke-dasharray: 3.7,1.6; stroke-dashoffset: 0; stroke: #f7e225"/>
    <defs>
     <path id="m24d96afa3c" d="M -3 3 
L 3 3 
L 3 -3 
L -3 -3 
z
" style="stroke: #000000; stroke-linejoin: miter"/>
    </defs>
    <g clip-path="url(#p448769c785)">
     <use xlink:href="#m24d96afa3c" x="76.827" y="299.062123" style="fill: #f7e225; stroke: #000000; stroke-linejoin: miter"/>
     <use xlink:href="#m24d96afa3c" x="78.023464" y="272.542255" style="fill: #f7e225; stroke: #000000; stroke-linejoin: miter"/>
     <use xlink:href="#m24d96afa3c" x="78.256599" y="218.175249" style="fill: #f7e225; stroke: #000000; stroke-linejoin: miter"/>
     <use xlink:href="#m24d96afa3c" x="80.288514" y="132.694107" style="fill: #f7e225; stroke: #000000; stroke-linejoin: miter"/>
     <use xlink:href="#m24d96afa3c" x="82.134604" y="73.532778" style="fill: #f7e225; stroke: #000000; stroke-linejoin: miter"/>
     <use xlink:href="#m24d96afa3c" x="84.143357" y="63.680056" style="fill: #f7e225; stroke: #000000; stroke-linejoin: miter"/>
     <use xlink:href="#m24d96afa3c" x="87.941474" y="228.168171" style="fill: #f7e225; stroke: #000000; stroke-linejoin: miter"/>
     <use xlink:href="#m24d96afa3c" x="92.106833" y="232.562779" style="fill: #f7e225; stroke: #000000; stroke-linejoin: miter"/>
     <use xlink:href="#m24d96afa3c" x="95.781625" y="192.861931" style="fill: #f7e225; stroke: #000000; stroke-linejoin: miter"/>
     <use xlink:href="#m24d96afa3c" x="99.611938" y="233.82384" style="fill: #f7e225; stroke: #000000; stroke-linejoin: miter"/>
     <use xlink:href="#m24d96afa3c" x="122.51037" y="208.442898" style="fill: #f7e225; stroke: #000000; stroke-linejoin: miter"/>
     <use xlink:href="#m24d96afa3c" x="150.150139" y="277.148269" style="fill: #f7e225; stroke: #000000; stroke-linejoin: miter"/>
     <use xlink:href="#m24d96afa3c" x="174.790106" y="263.301045" style="fill: #f7e225; stroke: #000000; stroke-linejoin: miter"/>
     <use xlink:href="#m24d96afa3c" x="224.391732" y="287.185533" style="fill: #f7e225; stroke: #000000; stroke-linejoin: miter"/>
     <use xlink:href="#m24d96afa3c" x="275.220364" y="296.362402" style="fill: #f7e225; stroke: #000000; stroke-linejoin: miter"/>
     <use xlink:href="#m24d96afa3c" x="324.71283" y="302.742727" style="fill: #f7e225; stroke: #000000; stroke-linejoin: miter"/>
     <use xlink:href="#m24d96afa3c" x="424.622733" y="305.231177" style="fill: #f7e225; stroke: #000000; stroke-linejoin: miter"/>
    </g>
   </g>
   <g id="line2d_21">
    <path d="M 73.65219 294.121232 
L 74.383635 236.33394 
L 76.222884 180.68804 
L 77.937179 123.952703 
L 80.308606 87.444102 
L 84.751062 241.081798 
L 89.426795 249.362932 
L 92.821974 204.597938 
L 97.274617 250.936185 
L 122.311242 209.87913 
L 149.012261 280.467623 
L 173.544865 264.11742 
L 223.640715 288.847442 
L 274.080083 297.514939 
L 324.239974 302.692239 
L 424.239486 305.192451 
" clip-path="url(#p448769c785)" style="fill: none; stroke-dasharray: 3.7,1.6; stroke-dashoffset: 0; stroke: #f7e225"/>
    <g clip-path="url(#p448769c785)">
     <use xlink:href="#m24d96afa3c" x="73.65219" y="294.121232" style="fill: #f7e225; stroke: #000000; stroke-linejoin: miter"/>
     <use xlink:href="#m24d96afa3c" x="74.383635" y="236.33394" style="fill: #f7e225; stroke: #000000; stroke-linejoin: miter"/>
     <use xlink:href="#m24d96afa3c" x="76.222884" y="180.68804" style="fill: #f7e225; stroke: #000000; stroke-linejoin: miter"/>
     <use xlink:href="#m24d96afa3c" x="77.937179" y="123.952703" style="fill: #f7e225; stroke: #000000; stroke-linejoin: miter"/>
     <use xlink:href="#m24d96afa3c" x="80.308606" y="87.444102" style="fill: #f7e225; stroke: #000000; stroke-linejoin: miter"/>
     <use xlink:href="#m24d96afa3c" x="84.751062" y="241.081798" style="fill: #f7e225; stroke: #000000; stroke-linejoin: miter"/>
     <use xlink:href="#m24d96afa3c" x="89.426795" y="249.362932" style="fill: #f7e225; stroke: #000000; stroke-linejoin: miter"/>
     <use xlink:href="#m24d96afa3c" x="92.821974" y="204.597938" style="fill: #f7e225; stroke: #000000; stroke-linejoin: miter"/>
     <use xlink:href="#m24d96afa3c" x="97.274617" y="250.936185" style="fill: #f7e225; stroke: #000000; stroke-linejoin: miter"/>
     <use xlink:href="#m24d96afa3c" x="122.311242" y="209.87913" style="fill: #f7e225; stroke: #000000; stroke-linejoin: miter"/>
     <use xlink:href="#m24d96afa3c" x="149.012261" y="280.467623" style="fill: #f7e225; stroke: #000000; stroke-linejoin: miter"/>
     <use xlink:href="#m24d96afa3c" x="173.544865" y="264.11742" style="fill: #f7e225; stroke: #000000; stroke-linejoin: miter"/>
     <use xlink:href="#m24d96afa3c" x="223.640715" y="288.847442" style="fill: #f7e225; stroke: #000000; stroke-linejoin: miter"/>
     <use xlink:href="#m24d96afa3c" x="274.080083" y="297.514939" style="fill: #f7e225; stroke: #000000; stroke-linejoin: miter"/>
     <use xlink:href="#m24d96afa3c" x="324.239974" y="302.692239" style="fill: #f7e225; stroke: #000000; stroke-linejoin: miter"/>
     <use xlink:href="#m24d96afa3c" x="424.239486" y="305.192451" style="fill: #f7e225; stroke: #000000; stroke-linejoin: miter"/>
    </g>
   </g>
   <g id="line2d_22">
    <path d="M 76.889663 298.744202 
L 78.004252 280.105805 
L 78.707831 206.812227 
L 80.127901 101.977173 
L 82.050007 64.713127 
L 84.195754 55.8 
L 88.161926 219.808401 
L 91.986317 222.641729 
L 95.674548 172.383974 
L 99.665248 226.41642 
L 122.696726 199.927 
L 149.450025 270.615443 
L 174.75372 257.466327 
L 225.030708 283.916028 
L 275.54569 295.661205 
L 325.029404 300.641197 
L 423.964833 305.466627 
" clip-path="url(#p448769c785)" style="fill: none; stroke-dasharray: 3.7,1.6; stroke-dashoffset: 0; stroke: #fada24"/>
    <defs>
     <path id="m67626bc717" d="M -3 3 
L 3 3 
L 3 -3 
L -3 -3 
z
" style="stroke: #000000; stroke-linejoin: miter"/>
    </defs>
    <g clip-path="url(#p448769c785)">
     <use xlink:href="#m67626bc717" x="76.889663" y="298.744202" style="fill: #fada24; stroke: #000000; stroke-linejoin: miter"/>
     <use xlink:href="#m67626bc717" x="78.004252" y="280.105805" style="fill: #fada24; stroke: #000000; stroke-linejoin: miter"/>
     <use xlink:href="#m67626bc717" x="78.707831" y="206.812227" style="fill: #fada24; stroke: #000000; stroke-linejoin: miter"/>
     <use xlink:href="#m67626bc717" x="80.127901" y="101.977173" style="fill: #fada24; stroke: #000000; stroke-linejoin: miter"/>
     <use xlink:href="#m67626bc717" x="82.050007" y="64.713127" style="fill: #fada24; stroke: #000000; stroke-linejoin: miter"/>
     <use xlink:href="#m67626bc717" x="84.195754" y="55.8" style="fill: #fada24; stroke: #000000; stroke-linejoin: miter"/>
     <use xlink:href="#m67626bc717" x="88.161926" y="219.808401" style="fill: #fada24; stroke: #000000; stroke-linejoin: miter"/>
     <use xlink:href="#m67626bc717" x="91.986317" y="222.641729" style="fill: #fada24; stroke: #000000; stroke-linejoin: miter"/>
     <use xlink:href="#m67626bc717" x="95.674548" y="172.383974" style="fill: #fada24; stroke: #000000; stroke-linejoin: miter"/>
     <use xlink:href="#m67626bc717" x="99.665248" y="226.41642" style="fill: #fada24; stroke: #000000; stroke-linejoin: miter"/>
     <use xlink:href="#m67626bc717" x="122.696726" y="199.927" style="fill: #fada24; stroke: #000000; stroke-linejoin: miter"/>
     <use xlink:href="#m67626bc717" x="149.450025" y="270.615443" style="fill: #fada24; stroke: #000000; stroke-linejoin: miter"/>
     <use xlink:href="#m67626bc717" x="174.75372" y="257.466327" style="fill: #fada24; stroke: #000000; stroke-linejoin: miter"/>
     <use xlink:href="#m67626bc717" x="225.030708" y="283.916028" style="fill: #fada24; stroke: #000000; stroke-linejoin: miter"/>
     <use xlink:href="#m67626bc717" x="275.54569" y="295.661205" style="fill: #fada24; stroke: #000000; stroke-linejoin: miter"/>
     <use xlink:href="#m67626bc717" x="325.029404" y="300.641197" style="fill: #fada24; stroke: #000000; stroke-linejoin: miter"/>
     <use xlink:href="#m67626bc717" x="423.964833" y="305.466627" style="fill: #fada24; stroke: #000000; stroke-linejoin: miter"/>
    </g>
   </g>
   <g id="line2d_23">
    <path d="M 77.805088 293.664071 
L 78.645485 262.117414 
L 80.566756 206.89188 
L 82.355512 170.578757 
L 83.965557 158.431916 
L 88.012756 241.767619 
L 92.026286 249.214698 
L 95.606204 207.04943 
L 99.800726 249.939289 
L 122.507156 224.303786 
L 149.519888 281.818105 
L 175.189657 274.502679 
L 223.424535 290.689457 
L 274.248814 299.166159 
L 323.399934 303.680404 
L 424.295987 305.698985 
" clip-path="url(#p448769c785)" style="fill: none; stroke-dasharray: 3.7,1.6; stroke-dashoffset: 0; stroke: #fada24"/>
    <g clip-path="url(#p448769c785)">
     <use xlink:href="#m67626bc717" x="77.805088" y="293.664071" style="fill: #fada24; stroke: #000000; stroke-linejoin: miter"/>
     <use xlink:href="#m67626bc717" x="78.645485" y="262.117414" style="fill: #fada24; stroke: #000000; stroke-linejoin: miter"/>
     <use xlink:href="#m67626bc717" x="80.566756" y="206.89188" style="fill: #fada24; stroke: #000000; stroke-linejoin: miter"/>
     <use xlink:href="#m67626bc717" x="82.355512" y="170.578757" style="fill: #fada24; stroke: #000000; stroke-linejoin: miter"/>
     <use xlink:href="#m67626bc717" x="83.965557" y="158.431916" style="fill: #fada24; stroke: #000000; stroke-linejoin: miter"/>
     <use xlink:href="#m67626bc717" x="88.012756" y="241.767619" style="fill: #fada24; stroke: #000000; stroke-linejoin: miter"/>
     <use xlink:href="#m67626bc717" x="92.026286" y="249.214698" style="fill: #fada24; stroke: #000000; stroke-linejoin: miter"/>
     <use xlink:href="#m67626bc717" x="95.606204" y="207.04943" style="fill: #fada24; stroke: #000000; stroke-linejoin: miter"/>
     <use xlink:href="#m67626bc717" x="99.800726" y="249.939289" style="fill: #fada24; stroke: #000000; stroke-linejoin: miter"/>
     <use xlink:href="#m67626bc717" x="122.507156" y="224.303786" style="fill: #fada24; stroke: #000000; stroke-linejoin: miter"/>
     <use xlink:href="#m67626bc717" x="149.519888" y="281.818105" style="fill: #fada24; stroke: #000000; stroke-linejoin: miter"/>
     <use xlink:href="#m67626bc717" x="175.189657" y="274.502679" style="fill: #fada24; stroke: #000000; stroke-linejoin: miter"/>
     <use xlink:href="#m67626bc717" x="223.424535" y="290.689457" style="fill: #fada24; stroke: #000000; stroke-linejoin: miter"/>
     <use xlink:href="#m67626bc717" x="274.248814" y="299.166159" style="fill: #fada24; stroke: #000000; stroke-linejoin: miter"/>
     <use xlink:href="#m67626bc717" x="323.399934" y="303.680404" style="fill: #fada24; stroke: #000000; stroke-linejoin: miter"/>
     <use xlink:href="#m67626bc717" x="424.295987" y="305.698985" style="fill: #fada24; stroke: #000000; stroke-linejoin: miter"/>
    </g>
   </g>
   <g id="line2d_24">
    <path d="M 73.262945 284.284243 
L 74.03709 218.009706 
L 76.190072 137.715112 
L 77.972838 84.261457 
L 80.358498 82.241204 
L 84.725891 229.586571 
L 88.719771 234.33911 
L 92.743615 140.824139 
L 97.238661 234.514431 
L 122.117817 205.508034 
L 148.930661 271.739241 
L 174.945962 255.556681 
L 225.553433 282.204642 
L 274.787967 294.020125 
L 325.466041 301.81363 
L 423.245586 304.498797 
" clip-path="url(#p448769c785)" style="fill: none; stroke-dasharray: 3.7,1.6; stroke-dashoffset: 0; stroke: #fada24"/>
    <g clip-path="url(#p448769c785)">
     <use xlink:href="#m67626bc717" x="73.262945" y="284.284243" style="fill: #fada24; stroke: #000000; stroke-linejoin: miter"/>
     <use xlink:href="#m67626bc717" x="74.03709" y="218.009706" style="fill: #fada24; stroke: #000000; stroke-linejoin: miter"/>
     <use xlink:href="#m67626bc717" x="76.190072" y="137.715112" style="fill: #fada24; stroke: #000000; stroke-linejoin: miter"/>
     <use xlink:href="#m67626bc717" x="77.972838" y="84.261457" style="fill: #fada24; stroke: #000000; stroke-linejoin: miter"/>
     <use xlink:href="#m67626bc717" x="80.358498" y="82.241204" style="fill: #fada24; stroke: #000000; stroke-linejoin: miter"/>
     <use xlink:href="#m67626bc717" x="84.725891" y="229.586571" style="fill: #fada24; stroke: #000000; stroke-linejoin: miter"/>
     <use xlink:href="#m67626bc717" x="88.719771" y="234.33911" style="fill: #fada24; stroke: #000000; stroke-linejoin: miter"/>
     <use xlink:href="#m67626bc717" x="92.743615" y="140.824139" style="fill: #fada24; stroke: #000000; stroke-linejoin: miter"/>
     <use xlink:href="#m67626bc717" x="97.238661" y="234.514431" style="fill: #fada24; stroke: #000000; stroke-linejoin: miter"/>
     <use xlink:href="#m67626bc717" x="122.117817" y="205.508034" style="fill: #fada24; stroke: #000000; stroke-linejoin: miter"/>
     <use xlink:href="#m67626bc717" x="148.930661" y="271.739241" style="fill: #fada24; stroke: #000000; stroke-linejoin: miter"/>
     <use xlink:href="#m67626bc717" x="174.945962" y="255.556681" style="fill: #fada24; stroke: #000000; stroke-linejoin: miter"/>
     <use xlink:href="#m67626bc717" x="225.553433" y="282.204642" style="fill: #fada24; stroke: #000000; stroke-linejoin: miter"/>
     <use xlink:href="#m67626bc717" x="274.787967" y="294.020125" style="fill: #fada24; stroke: #000000; stroke-linejoin: miter"/>
     <use xlink:href="#m67626bc717" x="325.466041" y="301.81363" style="fill: #fada24; stroke: #000000; stroke-linejoin: miter"/>
     <use xlink:href="#m67626bc717" x="423.245586" y="304.498797" style="fill: #fada24; stroke: #000000; stroke-linejoin: miter"/>
    </g>
   </g>
   <g id="line2d_25">
    <path d="M 73.243018 303.171931 
L 74.423638 282.59121 
L 76.863535 249.36427 
L 78.579029 193.176328 
L 80.356251 165.179048 
L 84.716752 253.400786 
L 89.259142 256.760749 
L 93.042965 221.559057 
L 97.785821 260.49412 
L 121.951215 241.372891 
L 148.853953 263.534567 
L 176.042679 267.248093 
L 224.863501 287.619698 
L 274.568876 296.988928 
L 323.731601 301.123439 
L 422.995477 304.150816 
" clip-path="url(#p448769c785)" style="fill: none; stroke-dasharray: 3.7,1.6; stroke-dashoffset: 0; stroke: #fada24"/>
    <g clip-path="url(#p448769c785)">
     <use xlink:href="#m67626bc717" x="73.243018" y="303.171931" style="fill: #fada24; stroke: #000000; stroke-linejoin: miter"/>
     <use xlink:href="#m67626bc717" x="74.423638" y="282.59121" style="fill: #fada24; stroke: #000000; stroke-linejoin: miter"/>
     <use xlink:href="#m67626bc717" x="76.863535" y="249.36427" style="fill: #fada24; stroke: #000000; stroke-linejoin: miter"/>
     <use xlink:href="#m67626bc717" x="78.579029" y="193.176328" style="fill: #fada24; stroke: #000000; stroke-linejoin: miter"/>
     <use xlink:href="#m67626bc717" x="80.356251" y="165.179048" style="fill: #fada24; stroke: #000000; stroke-linejoin: miter"/>
     <use xlink:href="#m67626bc717" x="84.716752" y="253.400786" style="fill: #fada24; stroke: #000000; stroke-linejoin: miter"/>
     <use xlink:href="#m67626bc717" x="89.259142" y="256.760749" style="fill: #fada24; stroke: #000000; stroke-linejoin: miter"/>
     <use xlink:href="#m67626bc717" x="93.042965" y="221.559057" style="fill: #fada24; stroke: #000000; stroke-linejoin: miter"/>
     <use xlink:href="#m67626bc717" x="97.785821" y="260.49412" style="fill: #fada24; stroke: #000000; stroke-linejoin: miter"/>
     <use xlink:href="#m67626bc717" x="121.951215" y="241.372891" style="fill: #fada24; stroke: #000000; stroke-linejoin: miter"/>
     <use xlink:href="#m67626bc717" x="148.853953" y="263.534567" style="fill: #fada24; stroke: #000000; stroke-linejoin: miter"/>
     <use xlink:href="#m67626bc717" x="176.042679" y="267.248093" style="fill: #fada24; stroke: #000000; stroke-linejoin: miter"/>
     <use xlink:href="#m67626bc717" x="224.863501" y="287.619698" style="fill: #fada24; stroke: #000000; stroke-linejoin: miter"/>
     <use xlink:href="#m67626bc717" x="274.568876" y="296.988928" style="fill: #fada24; stroke: #000000; stroke-linejoin: miter"/>
     <use xlink:href="#m67626bc717" x="323.731601" y="301.123439" style="fill: #fada24; stroke: #000000; stroke-linejoin: miter"/>
     <use xlink:href="#m67626bc717" x="422.995477" y="304.150816" style="fill: #fada24; stroke: #000000; stroke-linejoin: miter"/>
    </g>
   </g>
   <g id="patch_3">
    <path d="M 54.727813 320.4 
L 54.727813 43.2 
" style="fill: none; stroke: #000000; stroke-width: 0.8; stroke-linejoin: miter; stroke-linecap: square"/>
   </g>
   <g id="patch_4">
    <path d="M 445.327813 320.4 
L 445.327813 43.2 
" style="fill: none; stroke: #000000; stroke-width: 0.8; stroke-linejoin: miter; stroke-linecap: square"/>
   </g>
   <g id="patch_5">
    <path d="M 54.727813 320.4 
L 445.327813 320.4 
" style="fill: none; stroke: #000000; stroke-width: 0.8; stroke-linejoin: miter; stroke-linecap: square"/>
   </g>
   <g id="patch_6">
    <path d="M 54.727813 43.2 
L 445.327813 43.2 
" style="fill: none; stroke: #000000; stroke-width: 0.8; stroke-linejoin: miter; stroke-linecap: square"/>
   </g>
   <g id="legend_1">
    <g id="patch_7">
     <path d="M 260.67625 214.884375 
L 438.327813 214.884375 
Q 440.327813 214.884375 440.327813 212.884375 
L 440.327813 50.2 
Q 440.327813 48.2 438.327813 48.2 
L 260.67625 48.2 
Q 258.67625 48.2 258.67625 50.2 
L 258.67625 212.884375 
Q 258.67625 214.884375 260.67625 214.884375 
z
" style="fill: #ffffff; opacity: 0.8; stroke: #cccccc; stroke-linejoin: miter"/>
    </g>
    <g id="line2d_26">
     <path d="M 262.67625 56.298437 
L 282.67625 56.298437 
" style="fill: none; stroke: #f5e926; stroke-width: 2; stroke-linecap: square"/>
    </g>
    <g id="line2d_27"/>
    <g id="text_17">
     <!-- Sim 100 [mg] -->
     <g transform="translate(290.67625 59.798437) scale(0.1 -0.1)">
      <defs>
       <path id="DejaVuSans-53" d="M 3425 4513 
L 3425 3897 
Q 3066 4069 2747 4153 
Q 2428 4238 2131 4238 
Q 1616 4238 1336 4038 
Q 1056 3838 1056 3469 
Q 1056 3159 1242 3001 
Q 1428 2844 1947 2747 
L 2328 2669 
Q 3034 2534 3370 2195 
Q 3706 1856 3706 1288 
Q 3706 609 3251 259 
Q 2797 -91 1919 -91 
Q 1588 -91 1214 -16 
Q 841 59 441 206 
L 441 856 
Q 825 641 1194 531 
Q 1563 422 1919 422 
Q 2459 422 2753 634 
Q 3047 847 3047 1241 
Q 3047 1584 2836 1778 
Q 2625 1972 2144 2069 
L 1759 2144 
Q 1053 2284 737 2584 
Q 422 2884 422 3419 
Q 422 4038 858 4394 
Q 1294 4750 2059 4750 
Q 2388 4750 2728 4690 
Q 3069 4631 3425 4513 
z
" transform="scale(0.015625)"/>
       <path id="DejaVuSans-69" d="M 603 3500 
L 1178 3500 
L 1178 0 
L 603 0 
L 603 3500 
z
M 603 4863 
L 1178 4863 
L 1178 4134 
L 603 4134 
L 603 4863 
z
" transform="scale(0.015625)"/>
       <path id="DejaVuSans-6d" d="M 3328 2828 
Q 3544 3216 3844 3400 
Q 4144 3584 4550 3584 
Q 5097 3584 5394 3201 
Q 5691 2819 5691 2113 
L 5691 0 
L 5113 0 
L 5113 2094 
Q 5113 2597 4934 2840 
Q 4756 3084 4391 3084 
Q 3944 3084 3684 2787 
Q 3425 2491 3425 1978 
L 3425 0 
L 2847 0 
L 2847 2094 
Q 2847 2600 2669 2842 
Q 2491 3084 2119 3084 
Q 1678 3084 1418 2786 
Q 1159 2488 1159 1978 
L 1159 0 
L 581 0 
L 581 3500 
L 1159 3500 
L 1159 2956 
Q 1356 3278 1631 3431 
Q 1906 3584 2284 3584 
Q 2666 3584 2933 3390 
Q 3200 3197 3328 2828 
z
" transform="scale(0.015625)"/>
       <path id="DejaVuSans-20" transform="scale(0.015625)"/>
       <path id="DejaVuSans-5b" d="M 550 4863 
L 1875 4863 
L 1875 4416 
L 1125 4416 
L 1125 -397 
L 1875 -397 
L 1875 -844 
L 550 -844 
L 550 4863 
z
" transform="scale(0.015625)"/>
       <path id="DejaVuSans-67" d="M 2906 1791 
Q 2906 2416 2648 2759 
Q 2391 3103 1925 3103 
Q 1463 3103 1205 2759 
Q 947 2416 947 1791 
Q 947 1169 1205 825 
Q 1463 481 1925 481 
Q 2391 481 2648 825 
Q 2906 1169 2906 1791 
z
M 3481 434 
Q 3481 -459 3084 -895 
Q 2688 -1331 1869 -1331 
Q 1566 -1331 1297 -1286 
Q 1028 -1241 775 -1147 
L 775 -588 
Q 1028 -725 1275 -790 
Q 1522 -856 1778 -856 
Q 2344 -856 2625 -561 
Q 2906 -266 2906 331 
L 2906 616 
Q 2728 306 2450 153 
Q 2172 0 1784 0 
Q 1141 0 747 490 
Q 353 981 353 1791 
Q 353 2603 747 3093 
Q 1141 3584 1784 3584 
Q 2172 3584 2450 3431 
Q 2728 3278 2906 2969 
L 2906 3500 
L 3481 3500 
L 3481 434 
z
" transform="scale(0.015625)"/>
       <path id="DejaVuSans-5d" d="M 1947 4863 
L 1947 -844 
L 622 -844 
L 622 -397 
L 1369 -397 
L 1369 4416 
L 622 4416 
L 622 4863 
L 1947 4863 
z
" transform="scale(0.015625)"/>
      </defs>
      <use xlink:href="#DejaVuSans-53"/>
      <use xlink:href="#DejaVuSans-69" transform="translate(63.476562 0)"/>
      <use xlink:href="#DejaVuSans-6d" transform="translate(91.259766 0)"/>
      <use xlink:href="#DejaVuSans-20" transform="translate(188.671875 0)"/>
      <use xlink:href="#DejaVuSans-31" transform="translate(220.458984 0)"/>
      <use xlink:href="#DejaVuSans-30" transform="translate(284.082031 0)"/>
      <use xlink:href="#DejaVuSans-30" transform="translate(347.705078 0)"/>
      <use xlink:href="#DejaVuSans-20" transform="translate(411.328125 0)"/>
      <use xlink:href="#DejaVuSans-5b" transform="translate(443.115234 0)"/>
      <use xlink:href="#DejaVuSans-6d" transform="translate(482.128906 0)"/>
      <use xlink:href="#DejaVuSans-67" transform="translate(579.541016 0)"/>
      <use xlink:href="#DejaVuSans-5d" transform="translate(643.017578 0)"/>
     </g>
    </g>
    <g id="line2d_28">
     <path d="M 262.67625 70.976562 
L 282.67625 70.976562 
" style="fill: none; stroke: #f7e225; stroke-width: 2; stroke-linecap: square"/>
    </g>
    <g id="line2d_29"/>
    <g id="text_18">
     <!-- Sim 150 [mg] -->
     <g transform="translate(290.67625 74.476562) scale(0.1 -0.1)">
      <use xlink:href="#DejaVuSans-53"/>
      <use xlink:href="#DejaVuSans-69" transform="translate(63.476562 0)"/>
      <use xlink:href="#DejaVuSans-6d" transform="translate(91.259766 0)"/>
      <use xlink:href="#DejaVuSans-20" transform="translate(188.671875 0)"/>
      <use xlink:href="#DejaVuSans-31" transform="translate(220.458984 0)"/>
      <use xlink:href="#DejaVuSans-35" transform="translate(284.082031 0)"/>
      <use xlink:href="#DejaVuSans-30" transform="translate(347.705078 0)"/>
      <use xlink:href="#DejaVuSans-20" transform="translate(411.328125 0)"/>
      <use xlink:href="#DejaVuSans-5b" transform="translate(443.115234 0)"/>
      <use xlink:href="#DejaVuSans-6d" transform="translate(482.128906 0)"/>
      <use xlink:href="#DejaVuSans-67" transform="translate(579.541016 0)"/>
      <use xlink:href="#DejaVuSans-5d" transform="translate(643.017578 0)"/>
     </g>
    </g>
    <g id="line2d_30">
     <path d="M 262.67625 85.654687 
L 282.67625 85.654687 
" style="fill: none; stroke: #fada24; stroke-width: 2; stroke-linecap: square"/>
    </g>
    <g id="line2d_31"/>
    <g id="text_19">
     <!-- Sim 200 [mg] -->
     <g transform="translate(290.67625 89.154687) scale(0.1 -0.1)">
      <use xlink:href="#DejaVuSans-53"/>
      <use xlink:href="#DejaVuSans-69" transform="translate(63.476562 0)"/>
      <use xlink:href="#DejaVuSans-6d" transform="translate(91.259766 0)"/>
      <use xlink:href="#DejaVuSans-20" transform="translate(188.671875 0)"/>
      <use xlink:href="#DejaVuSans-32" transform="translate(220.458984 0)"/>
      <use xlink:href="#DejaVuSans-30" transform="translate(284.082031 0)"/>
      <use xlink:href="#DejaVuSans-30" transform="translate(347.705078 0)"/>
      <use xlink:href="#DejaVuSans-20" transform="translate(411.328125 0)"/>
      <use xlink:href="#DejaVuSans-5b" transform="translate(443.115234 0)"/>
      <use xlink:href="#DejaVuSans-6d" transform="translate(482.128906 0)"/>
      <use xlink:href="#DejaVuSans-67" transform="translate(579.541016 0)"/>
      <use xlink:href="#DejaVuSans-5d" transform="translate(643.017578 0)"/>
     </g>
    </g>
    <g id="line2d_32">
     <path d="M 262.67625 100.332812 
L 282.67625 100.332812 
" style="fill: none; stroke-dasharray: 3.7,1.6; stroke-dashoffset: 0; stroke: #f5e926"/>
    </g>
    <g id="line2d_33">
     <g>
      <use xlink:href="#macde56dda3" x="272.67625" y="100.332812" style="fill: #f5e926; stroke: #000000; stroke-linejoin: miter"/>
     </g>
    </g>
    <g id="text_20">
     <!-- 100 [mg] (SYO100_P1) (n=7) -->
     <g transform="translate(290.67625 103.832812) scale(0.1 -0.1)">
      <defs>
       <path id="DejaVuSans-28" d="M 1984 4856 
Q 1566 4138 1362 3434 
Q 1159 2731 1159 2009 
Q 1159 1288 1364 580 
Q 1569 -128 1984 -844 
L 1484 -844 
Q 1016 -109 783 600 
Q 550 1309 550 2009 
Q 550 2706 781 3412 
Q 1013 4119 1484 4856 
L 1984 4856 
z
" transform="scale(0.015625)"/>
       <path id="DejaVuSans-59" d="M -13 4666 
L 666 4666 
L 1959 2747 
L 3244 4666 
L 3922 4666 
L 2272 2222 
L 2272 0 
L 1638 0 
L 1638 2222 
L -13 4666 
z
" transform="scale(0.015625)"/>
       <path id="DejaVuSans-4f" d="M 2522 4238 
Q 1834 4238 1429 3725 
Q 1025 3213 1025 2328 
Q 1025 1447 1429 934 
Q 1834 422 2522 422 
Q 3209 422 3611 934 
Q 4013 1447 4013 2328 
Q 4013 3213 3611 3725 
Q 3209 4238 2522 4238 
z
M 2522 4750 
Q 3503 4750 4090 4092 
Q 4678 3434 4678 2328 
Q 4678 1225 4090 567 
Q 3503 -91 2522 -91 
Q 1538 -91 948 565 
Q 359 1222 359 2328 
Q 359 3434 948 4092 
Q 1538 4750 2522 4750 
z
" transform="scale(0.015625)"/>
       <path id="DejaVuSans-5f" d="M 3263 -1063 
L 3263 -1509 
L -63 -1509 
L -63 -1063 
L 3263 -1063 
z
" transform="scale(0.015625)"/>
       <path id="DejaVuSans-50" d="M 1259 4147 
L 1259 2394 
L 2053 2394 
Q 2494 2394 2734 2622 
Q 2975 2850 2975 3272 
Q 2975 3691 2734 3919 
Q 2494 4147 2053 4147 
L 1259 4147 
z
M 628 4666 
L 2053 4666 
Q 2838 4666 3239 4311 
Q 3641 3956 3641 3272 
Q 3641 2581 3239 2228 
Q 2838 1875 2053 1875 
L 1259 1875 
L 1259 0 
L 628 0 
L 628 4666 
z
" transform="scale(0.015625)"/>
       <path id="DejaVuSans-29" d="M 513 4856 
L 1013 4856 
Q 1481 4119 1714 3412 
Q 1947 2706 1947 2009 
Q 1947 1309 1714 600 
Q 1481 -109 1013 -844 
L 513 -844 
Q 928 -128 1133 580 
Q 1338 1288 1338 2009 
Q 1338 2731 1133 3434 
Q 928 4138 513 4856 
z
" transform="scale(0.015625)"/>
       <path id="DejaVuSans-6e" d="M 3513 2113 
L 3513 0 
L 2938 0 
L 2938 2094 
Q 2938 2591 2744 2837 
Q 2550 3084 2163 3084 
Q 1697 3084 1428 2787 
Q 1159 2491 1159 1978 
L 1159 0 
L 581 0 
L 581 3500 
L 1159 3500 
L 1159 2956 
Q 1366 3272 1645 3428 
Q 1925 3584 2291 3584 
Q 2894 3584 3203 3211 
Q 3513 2838 3513 2113 
z
" transform="scale(0.015625)"/>
       <path id="DejaVuSans-3d" d="M 678 2906 
L 4684 2906 
L 4684 2381 
L 678 2381 
L 678 2906 
z
M 678 1631 
L 4684 1631 
L 4684 1100 
L 678 1100 
L 678 1631 
z
" transform="scale(0.015625)"/>
      </defs>
      <use xlink:href="#DejaVuSans-31"/>
      <use xlink:href="#DejaVuSans-30" transform="translate(63.623047 0)"/>
      <use xlink:href="#DejaVuSans-30" transform="translate(127.246094 0)"/>
      <use xlink:href="#DejaVuSans-20" transform="translate(190.869141 0)"/>
      <use xlink:href="#DejaVuSans-5b" transform="translate(222.65625 0)"/>
      <use xlink:href="#DejaVuSans-6d" transform="translate(261.669922 0)"/>
      <use xlink:href="#DejaVuSans-67" transform="translate(359.082031 0)"/>
      <use xlink:href="#DejaVuSans-5d" transform="translate(422.558594 0)"/>
      <use xlink:href="#DejaVuSans-20" transform="translate(461.572266 0)"/>
      <use xlink:href="#DejaVuSans-28" transform="translate(493.359375 0)"/>
      <use xlink:href="#DejaVuSans-53" transform="translate(532.373047 0)"/>
      <use xlink:href="#DejaVuSans-59" transform="translate(595.849609 0)"/>
      <use xlink:href="#DejaVuSans-4f" transform="translate(651.433594 0)"/>
      <use xlink:href="#DejaVuSans-31" transform="translate(730.144531 0)"/>
      <use xlink:href="#DejaVuSans-30" transform="translate(793.767578 0)"/>
      <use xlink:href="#DejaVuSans-30" transform="translate(857.390625 0)"/>
      <use xlink:href="#DejaVuSans-5f" transform="translate(921.013672 0)"/>
      <use xlink:href="#DejaVuSans-50" transform="translate(971.013672 0)"/>
      <use xlink:href="#DejaVuSans-31" transform="translate(1031.316406 0)"/>
      <use xlink:href="#DejaVuSans-29" transform="translate(1094.939453 0)"/>
      <use xlink:href="#DejaVuSans-20" transform="translate(1133.953125 0)"/>
      <use xlink:href="#DejaVuSans-28" transform="translate(1165.740234 0)"/>
      <use xlink:href="#DejaVuSans-6e" transform="translate(1204.753906 0)"/>
      <use xlink:href="#DejaVuSans-3d" transform="translate(1268.132812 0)"/>
      <use xlink:href="#DejaVuSans-37" transform="translate(1351.921875 0)"/>
      <use xlink:href="#DejaVuSans-29" transform="translate(1415.544922 0)"/>
     </g>
    </g>
    <g id="line2d_34">
     <path d="M 262.67625 115.289062 
L 282.67625 115.289062 
" style="fill: none; stroke-dasharray: 3.7,1.6; stroke-dashoffset: 0; stroke: #f5e926"/>
    </g>
    <g id="line2d_35">
     <g>
      <use xlink:href="#macde56dda3" x="272.67625" y="115.289062" style="fill: #f5e926; stroke: #000000; stroke-linejoin: miter"/>
     </g>
    </g>
    <g id="text_21">
     <!-- 100 [mg] (SYO100_P2) (n=7) -->
     <g transform="translate(290.67625 118.789062) scale(0.1 -0.1)">
      <use xlink:href="#DejaVuSans-31"/>
      <use xlink:href="#DejaVuSans-30" transform="translate(63.623047 0)"/>
      <use xlink:href="#DejaVuSans-30" transform="translate(127.246094 0)"/>
      <use xlink:href="#DejaVuSans-20" transform="translate(190.869141 0)"/>
      <use xlink:href="#DejaVuSans-5b" transform="translate(222.65625 0)"/>
      <use xlink:href="#DejaVuSans-6d" transform="translate(261.669922 0)"/>
      <use xlink:href="#DejaVuSans-67" transform="translate(359.082031 0)"/>
      <use xlink:href="#DejaVuSans-5d" transform="translate(422.558594 0)"/>
      <use xlink:href="#DejaVuSans-20" transform="translate(461.572266 0)"/>
      <use xlink:href="#DejaVuSans-28" transform="translate(493.359375 0)"/>
      <use xlink:href="#DejaVuSans-53" transform="translate(532.373047 0)"/>
      <use xlink:href="#DejaVuSans-59" transform="translate(595.849609 0)"/>
      <use xlink:href="#DejaVuSans-4f" transform="translate(651.433594 0)"/>
      <use xlink:href="#DejaVuSans-31" transform="translate(730.144531 0)"/>
      <use xlink:href="#DejaVuSans-30" transform="translate(793.767578 0)"/>
      <use xlink:href="#DejaVuSans-30" transform="translate(857.390625 0)"/>
      <use xlink:href="#DejaVuSans-5f" transform="translate(921.013672 0)"/>
      <use xlink:href="#DejaVuSans-50" transform="translate(971.013672 0)"/>
      <use xlink:href="#DejaVuSans-32" transform="translate(1031.316406 0)"/>
      <use xlink:href="#DejaVuSans-29" transform="translate(1094.939453 0)"/>
      <use xlink:href="#DejaVuSans-20" transform="translate(1133.953125 0)"/>
      <use xlink:href="#DejaVuSans-28" transform="translate(1165.740234 0)"/>
      <use xlink:href="#DejaVuSans-6e" transform="translate(1204.753906 0)"/>
      <use xlink:href="#DejaVuSans-3d" transform="translate(1268.132812 0)"/>
      <use xlink:href="#DejaVuSans-37" transform="translate(1351.921875 0)"/>
      <use xlink:href="#DejaVuSans-29" transform="translate(1415.544922 0)"/>
     </g>
    </g>
    <g id="line2d_36">
     <path d="M 262.67625 130.245312 
L 282.67625 130.245312 
" style="fill: none; stroke-dasharray: 3.7,1.6; stroke-dashoffset: 0; stroke: #f7e225"/>
    </g>
    <g id="line2d_37">
     <g>
      <use xlink:href="#m24d96afa3c" x="272.67625" y="130.245312" style="fill: #f7e225; stroke: #000000; stroke-linejoin: miter"/>
     </g>
    </g>
    <g id="text_22">
     <!-- 150 [mg] (SYO150_P1) (n=7) -->
     <g transform="translate(290.67625 133.745312) scale(0.1 -0.1)">
      <use xlink:href="#DejaVuSans-31"/>
      <use xlink:href="#DejaVuSans-35" transform="translate(63.623047 0)"/>
      <use xlink:href="#DejaVuSans-30" transform="translate(127.246094 0)"/>
      <use xlink:href="#DejaVuSans-20" transform="translate(190.869141 0)"/>
      <use xlink:href="#DejaVuSans-5b" transform="translate(222.65625 0)"/>
      <use xlink:href="#DejaVuSans-6d" transform="translate(261.669922 0)"/>
      <use xlink:href="#DejaVuSans-67" transform="translate(359.082031 0)"/>
      <use xlink:href="#DejaVuSans-5d" transform="translate(422.558594 0)"/>
      <use xlink:href="#DejaVuSans-20" transform="translate(461.572266 0)"/>
      <use xlink:href="#DejaVuSans-28" transform="translate(493.359375 0)"/>
      <use xlink:href="#DejaVuSans-53" transform="translate(532.373047 0)"/>
      <use xlink:href="#DejaVuSans-59" transform="translate(595.849609 0)"/>
      <use xlink:href="#DejaVuSans-4f" transform="translate(651.433594 0)"/>
      <use xlink:href="#DejaVuSans-31" transform="translate(730.144531 0)"/>
      <use xlink:href="#DejaVuSans-35" transform="translate(793.767578 0)"/>
      <use xlink:href="#DejaVuSans-30" transform="translate(857.390625 0)"/>
      <use xlink:href="#DejaVuSans-5f" transform="translate(921.013672 0)"/>
      <use xlink:href="#DejaVuSans-50" transform="translate(971.013672 0)"/>
      <use xlink:href="#DejaVuSans-31" transform="translate(1031.316406 0)"/>
      <use xlink:href="#DejaVuSans-29" transform="translate(1094.939453 0)"/>
      <use xlink:href="#DejaVuSans-20" transform="translate(1133.953125 0)"/>
      <use xlink:href="#DejaVuSans-28" transform="translate(1165.740234 0)"/>
      <use xlink:href="#DejaVuSans-6e" transform="translate(1204.753906 0)"/>
      <use xlink:href="#DejaVuSans-3d" transform="translate(1268.132812 0)"/>
      <use xlink:href="#DejaVuSans-37" transform="translate(1351.921875 0)"/>
      <use xlink:href="#DejaVuSans-29" transform="translate(1415.544922 0)"/>
     </g>
    </g>
    <g id="line2d_38">
     <path d="M 262.67625 145.201562 
L 282.67625 145.201562 
" style="fill: none; stroke-dasharray: 3.7,1.6; stroke-dashoffset: 0; stroke: #f7e225"/>
    </g>
    <g id="line2d_39">
     <g>
      <use xlink:href="#m24d96afa3c" x="272.67625" y="145.201562" style="fill: #f7e225; stroke: #000000; stroke-linejoin: miter"/>
     </g>
    </g>
    <g id="text_23">
     <!-- 150 [mg] (SYO150_P2) (n=7) -->
     <g transform="translate(290.67625 148.701562) scale(0.1 -0.1)">
      <use xlink:href="#DejaVuSans-31"/>
      <use xlink:href="#DejaVuSans-35" transform="translate(63.623047 0)"/>
      <use xlink:href="#DejaVuSans-30" transform="translate(127.246094 0)"/>
      <use xlink:href="#DejaVuSans-20" transform="translate(190.869141 0)"/>
      <use xlink:href="#DejaVuSans-5b" transform="translate(222.65625 0)"/>
      <use xlink:href="#DejaVuSans-6d" transform="translate(261.669922 0)"/>
      <use xlink:href="#DejaVuSans-67" transform="translate(359.082031 0)"/>
      <use xlink:href="#DejaVuSans-5d" transform="translate(422.558594 0)"/>
      <use xlink:href="#DejaVuSans-20" transform="translate(461.572266 0)"/>
      <use xlink:href="#DejaVuSans-28" transform="translate(493.359375 0)"/>
      <use xlink:href="#DejaVuSans-53" transform="translate(532.373047 0)"/>
      <use xlink:href="#DejaVuSans-59" transform="translate(595.849609 0)"/>
      <use xlink:href="#DejaVuSans-4f" transform="translate(651.433594 0)"/>
      <use xlink:href="#DejaVuSans-31" transform="translate(730.144531 0)"/>
      <use xlink:href="#DejaVuSans-35" transform="translate(793.767578 0)"/>
      <use xlink:href="#DejaVuSans-30" transform="translate(857.390625 0)"/>
      <use xlink:href="#DejaVuSans-5f" transform="translate(921.013672 0)"/>
      <use xlink:href="#DejaVuSans-50" transform="translate(971.013672 0)"/>
      <use xlink:href="#DejaVuSans-32" transform="translate(1031.316406 0)"/>
      <use xlink:href="#DejaVuSans-29" transform="translate(1094.939453 0)"/>
      <use xlink:href="#DejaVuSans-20" transform="translate(1133.953125 0)"/>
      <use xlink:href="#DejaVuSans-28" transform="translate(1165.740234 0)"/>
      <use xlink:href="#DejaVuSans-6e" transform="translate(1204.753906 0)"/>
      <use xlink:href="#DejaVuSans-3d" transform="translate(1268.132812 0)"/>
      <use xlink:href="#DejaVuSans-37" transform="translate(1351.921875 0)"/>
      <use xlink:href="#DejaVuSans-29" transform="translate(1415.544922 0)"/>
     </g>
    </g>
    <g id="line2d_40">
     <path d="M 262.67625 160.157812 
L 282.67625 160.157812 
" style="fill: none; stroke-dasharray: 3.7,1.6; stroke-dashoffset: 0; stroke: #fada24"/>
    </g>
    <g id="line2d_41">
     <g>
      <use xlink:href="#m67626bc717" x="272.67625" y="160.157812" style="fill: #fada24; stroke: #000000; stroke-linejoin: miter"/>
     </g>
    </g>
    <g id="text_24">
     <!-- 200 [mg] (SYO200_P1) (n=8) -->
     <g transform="translate(290.67625 163.657812) scale(0.1 -0.1)">
      <use xlink:href="#DejaVuSans-32"/>
      <use xlink:href="#DejaVuSans-30" transform="translate(63.623047 0)"/>
      <use xlink:href="#DejaVuSans-30" transform="translate(127.246094 0)"/>
      <use xlink:href="#DejaVuSans-20" transform="translate(190.869141 0)"/>
      <use xlink:href="#DejaVuSans-5b" transform="translate(222.65625 0)"/>
      <use xlink:href="#DejaVuSans-6d" transform="translate(261.669922 0)"/>
      <use xlink:href="#DejaVuSans-67" transform="translate(359.082031 0)"/>
      <use xlink:href="#DejaVuSans-5d" transform="translate(422.558594 0)"/>
      <use xlink:href="#DejaVuSans-20" transform="translate(461.572266 0)"/>
      <use xlink:href="#DejaVuSans-28" transform="translate(493.359375 0)"/>
      <use xlink:href="#DejaVuSans-53" transform="translate(532.373047 0)"/>
      <use xlink:href="#DejaVuSans-59" transform="translate(595.849609 0)"/>
      <use xlink:href="#DejaVuSans-4f" transform="translate(651.433594 0)"/>
      <use xlink:href="#DejaVuSans-32" transform="translate(730.144531 0)"/>
      <use xlink:href="#DejaVuSans-30" transform="translate(793.767578 0)"/>
      <use xlink:href="#DejaVuSans-30" transform="translate(857.390625 0)"/>
      <use xlink:href="#DejaVuSans-5f" transform="translate(921.013672 0)"/>
      <use xlink:href="#DejaVuSans-50" transform="translate(971.013672 0)"/>
      <use xlink:href="#DejaVuSans-31" transform="translate(1031.316406 0)"/>
      <use xlink:href="#DejaVuSans-29" transform="translate(1094.939453 0)"/>
      <use xlink:href="#DejaVuSans-20" transform="translate(1133.953125 0)"/>
      <use xlink:href="#DejaVuSans-28" transform="translate(1165.740234 0)"/>
      <use xlink:href="#DejaVuSans-6e" transform="translate(1204.753906 0)"/>
      <use xlink:href="#DejaVuSans-3d" transform="translate(1268.132812 0)"/>
      <use xlink:href="#DejaVuSans-38" transform="translate(1351.921875 0)"/>
      <use xlink:href="#DejaVuSans-29" transform="translate(1415.544922 0)"/>
     </g>
    </g>
    <g id="line2d_42">
     <path d="M 262.67625 175.114062 
L 282.67625 175.114062 
" style="fill: none; stroke-dasharray: 3.7,1.6; stroke-dashoffset: 0; stroke: #fada24"/>
    </g>
    <g id="line2d_43">
     <g>
      <use xlink:href="#m67626bc717" x="272.67625" y="175.114062" style="fill: #fada24; stroke: #000000; stroke-linejoin: miter"/>
     </g>
    </g>
    <g id="text_25">
     <!-- 200 [mg] (SOF200_P1) (n=8) -->
     <g transform="translate(290.67625 178.614062) scale(0.1 -0.1)">
      <defs>
       <path id="DejaVuSans-46" d="M 628 4666 
L 3309 4666 
L 3309 4134 
L 1259 4134 
L 1259 2759 
L 3109 2759 
L 3109 2228 
L 1259 2228 
L 1259 0 
L 628 0 
L 628 4666 
z
" transform="scale(0.015625)"/>
      </defs>
      <use xlink:href="#DejaVuSans-32"/>
      <use xlink:href="#DejaVuSans-30" transform="translate(63.623047 0)"/>
      <use xlink:href="#DejaVuSans-30" transform="translate(127.246094 0)"/>
      <use xlink:href="#DejaVuSans-20" transform="translate(190.869141 0)"/>
      <use xlink:href="#DejaVuSans-5b" transform="translate(222.65625 0)"/>
      <use xlink:href="#DejaVuSans-6d" transform="translate(261.669922 0)"/>
      <use xlink:href="#DejaVuSans-67" transform="translate(359.082031 0)"/>
      <use xlink:href="#DejaVuSans-5d" transform="translate(422.558594 0)"/>
      <use xlink:href="#DejaVuSans-20" transform="translate(461.572266 0)"/>
      <use xlink:href="#DejaVuSans-28" transform="translate(493.359375 0)"/>
      <use xlink:href="#DejaVuSans-53" transform="translate(532.373047 0)"/>
      <use xlink:href="#DejaVuSans-4f" transform="translate(595.849609 0)"/>
      <use xlink:href="#DejaVuSans-46" transform="translate(674.560547 0)"/>
      <use xlink:href="#DejaVuSans-32" transform="translate(732.080078 0)"/>
      <use xlink:href="#DejaVuSans-30" transform="translate(795.703125 0)"/>
      <use xlink:href="#DejaVuSans-30" transform="translate(859.326172 0)"/>
      <use xlink:href="#DejaVuSans-5f" transform="translate(922.949219 0)"/>
      <use xlink:href="#DejaVuSans-50" transform="translate(972.949219 0)"/>
      <use xlink:href="#DejaVuSans-31" transform="translate(1033.251953 0)"/>
      <use xlink:href="#DejaVuSans-29" transform="translate(1096.875 0)"/>
      <use xlink:href="#DejaVuSans-20" transform="translate(1135.888672 0)"/>
      <use xlink:href="#DejaVuSans-28" transform="translate(1167.675781 0)"/>
      <use xlink:href="#DejaVuSans-6e" transform="translate(1206.689453 0)"/>
      <use xlink:href="#DejaVuSans-3d" transform="translate(1270.068359 0)"/>
      <use xlink:href="#DejaVuSans-38" transform="translate(1353.857422 0)"/>
      <use xlink:href="#DejaVuSans-29" transform="translate(1417.480469 0)"/>
     </g>
    </g>
    <g id="line2d_44">
     <path d="M 262.67625 190.070312 
L 282.67625 190.070312 
" style="fill: none; stroke-dasharray: 3.7,1.6; stroke-dashoffset: 0; stroke: #fada24"/>
    </g>
    <g id="line2d_45">
     <g>
      <use xlink:href="#m67626bc717" x="272.67625" y="190.070312" style="fill: #fada24; stroke: #000000; stroke-linejoin: miter"/>
     </g>
    </g>
    <g id="text_26">
     <!-- 200 [mg] (SYO200_P2) (n=8) -->
     <g transform="translate(290.67625 193.570312) scale(0.1 -0.1)">
      <use xlink:href="#DejaVuSans-32"/>
      <use xlink:href="#DejaVuSans-30" transform="translate(63.623047 0)"/>
      <use xlink:href="#DejaVuSans-30" transform="translate(127.246094 0)"/>
      <use xlink:href="#DejaVuSans-20" transform="translate(190.869141 0)"/>
      <use xlink:href="#DejaVuSans-5b" transform="translate(222.65625 0)"/>
      <use xlink:href="#DejaVuSans-6d" transform="translate(261.669922 0)"/>
      <use xlink:href="#DejaVuSans-67" transform="translate(359.082031 0)"/>
      <use xlink:href="#DejaVuSans-5d" transform="translate(422.558594 0)"/>
      <use xlink:href="#DejaVuSans-20" transform="translate(461.572266 0)"/>
      <use xlink:href="#DejaVuSans-28" transform="translate(493.359375 0)"/>
      <use xlink:href="#DejaVuSans-53" transform="translate(532.373047 0)"/>
      <use xlink:href="#DejaVuSans-59" transform="translate(595.849609 0)"/>
      <use xlink:href="#DejaVuSans-4f" transform="translate(651.433594 0)"/>
      <use xlink:href="#DejaVuSans-32" transform="translate(730.144531 0)"/>
      <use xlink:href="#DejaVuSans-30" transform="translate(793.767578 0)"/>
      <use xlink:href="#DejaVuSans-30" transform="translate(857.390625 0)"/>
      <use xlink:href="#DejaVuSans-5f" transform="translate(921.013672 0)"/>
      <use xlink:href="#DejaVuSans-50" transform="translate(971.013672 0)"/>
      <use xlink:href="#DejaVuSans-32" transform="translate(1031.316406 0)"/>
      <use xlink:href="#DejaVuSans-29" transform="translate(1094.939453 0)"/>
      <use xlink:href="#DejaVuSans-20" transform="translate(1133.953125 0)"/>
      <use xlink:href="#DejaVuSans-28" transform="translate(1165.740234 0)"/>
      <use xlink:href="#DejaVuSans-6e" transform="translate(1204.753906 0)"/>
      <use xlink:href="#DejaVuSans-3d" transform="translate(1268.132812 0)"/>
      <use xlink:href="#DejaVuSans-38" transform="translate(1351.921875 0)"/>
      <use xlink:href="#DejaVuSans-29" transform="translate(1415.544922 0)"/>
     </g>
    </g>
    <g id="line2d_46">
     <path d="M 262.67625 205.026562 
L 282.67625 205.026562 
" style="fill: none; stroke-dasharray: 3.7,1.6; stroke-dashoffset: 0; stroke: #fada24"/>
    </g>
    <g id="line2d_47">
     <g>
      <use xlink:href="#m67626bc717" x="272.67625" y="205.026562" style="fill: #fada24; stroke: #000000; stroke-linejoin: miter"/>
     </g>
    </g>
    <g id="text_27">
     <!-- 200 [mg] (SOF200_P2) (n=8) -->
     <g transform="translate(290.67625 208.526562) scale(0.1 -0.1)">
      <use xlink:href="#DejaVuSans-32"/>
      <use xlink:href="#DejaVuSans-30" transform="translate(63.623047 0)"/>
      <use xlink:href="#DejaVuSans-30" transform="translate(127.246094 0)"/>
      <use xlink:href="#DejaVuSans-20" transform="translate(190.869141 0)"/>
      <use xlink:href="#DejaVuSans-5b" transform="translate(222.65625 0)"/>
      <use xlink:href="#DejaVuSans-6d" transform="translate(261.669922 0)"/>
      <use xlink:href="#DejaVuSans-67" transform="translate(359.082031 0)"/>
      <use xlink:href="#DejaVuSans-5d" transform="translate(422.558594 0)"/>
      <use xlink:href="#DejaVuSans-20" transform="translate(461.572266 0)"/>
      <use xlink:href="#DejaVuSans-28" transform="translate(493.359375 0)"/>
      <use xlink:href="#DejaVuSans-53" transform="translate(532.373047 0)"/>
      <use xlink:href="#DejaVuSans-4f" transform="translate(595.849609 0)"/>
      <use xlink:href="#DejaVuSans-46" transform="translate(674.560547 0)"/>
      <use xlink:href="#DejaVuSans-32" transform="translate(732.080078 0)"/>
      <use xlink:href="#DejaVuSans-30" transform="translate(795.703125 0)"/>
      <use xlink:href="#DejaVuSans-30" transform="translate(859.326172 0)"/>
      <use xlink:href="#DejaVuSans-5f" transform="translate(922.949219 0)"/>
      <use xlink:href="#DejaVuSans-50" transform="translate(972.949219 0)"/>
      <use xlink:href="#DejaVuSans-32" transform="translate(1033.251953 0)"/>
      <use xlink:href="#DejaVuSans-29" transform="translate(1096.875 0)"/>
      <use xlink:href="#DejaVuSans-20" transform="translate(1135.888672 0)"/>
      <use xlink:href="#DejaVuSans-28" transform="translate(1167.675781 0)"/>
      <use xlink:href="#DejaVuSans-6e" transform="translate(1206.689453 0)"/>
      <use xlink:href="#DejaVuSans-3d" transform="translate(1270.068359 0)"/>
      <use xlink:href="#DejaVuSans-38" transform="translate(1353.857422 0)"/>
      <use xlink:href="#DejaVuSans-29" transform="translate(1417.480469 0)"/>
     </g>
    </g>
   </g>
  </g>
  <g id="text_28">
   <!-- Huh2021 -->
   <g transform="translate(180.680937 26.196094) scale(0.25 -0.25)">
    <defs>
     <path id="DejaVuSans-Bold-48" d="M 588 4666 
L 1791 4666 
L 1791 2888 
L 3566 2888 
L 3566 4666 
L 4769 4666 
L 4769 0 
L 3566 0 
L 3566 1978 
L 1791 1978 
L 1791 0 
L 588 0 
L 588 4666 
z
" transform="scale(0.015625)"/>
     <path id="DejaVuSans-Bold-32" d="M 1844 884 
L 3897 884 
L 3897 0 
L 506 0 
L 506 884 
L 2209 2388 
Q 2438 2594 2547 2791 
Q 2656 2988 2656 3200 
Q 2656 3528 2436 3728 
Q 2216 3928 1850 3928 
Q 1569 3928 1234 3808 
Q 900 3688 519 3450 
L 519 4475 
Q 925 4609 1322 4679 
Q 1719 4750 2100 4750 
Q 2938 4750 3402 4381 
Q 3866 4013 3866 3353 
Q 3866 2972 3669 2642 
Q 3472 2313 2841 1759 
L 1844 884 
z
" transform="scale(0.015625)"/>
     <path id="DejaVuSans-Bold-30" d="M 2944 2338 
Q 2944 3213 2780 3570 
Q 2616 3928 2228 3928 
Q 1841 3928 1675 3570 
Q 1509 3213 1509 2338 
Q 1509 1453 1675 1090 
Q 1841 728 2228 728 
Q 2613 728 2778 1090 
Q 2944 1453 2944 2338 
z
M 4147 2328 
Q 4147 1169 3647 539 
Q 3147 -91 2228 -91 
Q 1306 -91 806 539 
Q 306 1169 306 2328 
Q 306 3491 806 4120 
Q 1306 4750 2228 4750 
Q 3147 4750 3647 4120 
Q 4147 3491 4147 2328 
z
" transform="scale(0.015625)"/>
     <path id="DejaVuSans-Bold-31" d="M 750 831 
L 1813 831 
L 1813 3847 
L 722 3622 
L 722 4441 
L 1806 4666 
L 2950 4666 
L 2950 831 
L 4013 831 
L 4013 0 
L 750 0 
L 750 831 
z
" transform="scale(0.015625)"/>
    </defs>
    <use xlink:href="#DejaVuSans-Bold-48"/>
    <use xlink:href="#DejaVuSans-Bold-75" transform="translate(83.691406 0)"/>
    <use xlink:href="#DejaVuSans-Bold-68" transform="translate(154.882812 0)"/>
    <use xlink:href="#DejaVuSans-Bold-32" transform="translate(226.074219 0)"/>
    <use xlink:href="#DejaVuSans-Bold-30" transform="translate(295.654297 0)"/>
    <use xlink:href="#DejaVuSans-Bold-32" transform="translate(365.234375 0)"/>
    <use xlink:href="#DejaVuSans-Bold-31" transform="translate(434.814453 0)"/>
   </g>
  </g>
 </g>
 <defs>
  <clipPath id="p448769c785">
   <rect x="54.727813" y="43.2" width="390.6" height="277.2"/>
  </clipPath>
 </defs>
</svg>
