<?xml version="1.0" encoding="utf-8" standalone="no"?>
<!DOCTYPE svg PUBLIC "-//W3C//DTD SVG 1.1//EN"
  "http://www.w3.org/Graphics/SVG/1.1/DTD/svg11.dtd">
<svg xmlns:xlink="http://www.w3.org/1999/xlink" width="452.527812pt" height="683.878437pt" viewBox="0 0 452.527812 683.878437" xmlns="http://www.w3.org/2000/svg" version="1.1">
 <metadata>
  <rdf:RDF xmlns:dc="http://purl.org/dc/elements/1.1/" xmlns:cc="http://creativecommons.org/ns#" xmlns:rdf="http://www.w3.org/1999/02/22-rdf-syntax-ns#">
   <cc:Work>
    <dc:type rdf:resource="http://purl.org/dc/dcmitype/StillImage"/>
    <dc:date>2026-01-12T13:21:00.291355</dc:date>
    <dc:format>image/svg+xml</dc:format>
    <dc:creator>
     <cc:Agent>
      <dc:title>Matplotlib v3.10.7, https://matplotlib.org/</dc:title>
     </cc:Agent>
    </dc:creator>
   </cc:Work>
  </rdf:RDF>
 </metadata>
 <defs>
  <style type="text/css">*{stroke-linejoin: round; stroke-linecap: butt}</style>
 </defs>
 <g id="figure_1">
  <g id="patch_1">
   <path d="M 0 683.878437 
L 452.527812 683.878437 
L 452.527812 0 
L 0 0 
z
" style="fill: #ffffff"/>
  </g>
  <g id="axes_1">
   <g id="patch_2">
    <path d="M 54.727813 320.243478 
L 445.327813 320.243478 
L 445.327813 79.2 
L 54.727813 79.2 
z
" style="fill: #ffffff"/>
   </g>
   <g id="matplotlib.axis_1">
    <g id="xtick_1">
     <g id="line2d_1">
      <defs>
       <path id="m17d92fdda3" d="M 0 0 
L 0 3.5 
" style="stroke: #000000; stroke-width: 0.8"/>
      </defs>
      <g>
       <use xlink:href="#m17d92fdda3" x="72.482358" y="320.243478" style="stroke: #000000; stroke-width: 0.8"/>
      </g>
     </g>
     <g id="text_1">
      <!-- −14 -->
      <g transform="translate(56.653842 338.641135) scale(0.15 -0.15)">
       <defs>
        <path id="DejaVuSans-2212" d="M 678 2272 
L 4684 2272 
L 4684 1741 
L 678 1741 
L 678 2272 
z
" transform="scale(0.015625)"/>
        <path id="DejaVuSans-31" d="M 794 531 
L 1825 531 
L 1825 4091 
L 703 3866 
L 703 4441 
L 1819 4666 
L 2450 4666 
L 2450 531 
L 3481 531 
L 3481 0 
L 794 0 
L 794 531 
z
" transform="scale(0.015625)"/>
        <path id="DejaVuSans-34" d="M 2419 4116 
L 825 1625 
L 2419 1625 
L 2419 4116 
z
M 2253 4666 
L 3047 4666 
L 3047 1625 
L 3713 1625 
L 3713 1100 
L 3047 1100 
L 3047 0 
L 2419 0 
L 2419 1100 
L 313 1100 
L 313 1709 
L 2253 4666 
z
" transform="scale(0.015625)"/>
       </defs>
       <use xlink:href="#DejaVuSans-2212"/>
       <use xlink:href="#DejaVuSans-31" transform="translate(83.789062 0)"/>
       <use xlink:href="#DejaVuSans-34" transform="translate(147.412109 0)"/>
      </g>
     </g>
    </g>
    <g id="xtick_2">
     <g id="line2d_2">
      <g>
       <use xlink:href="#m17d92fdda3" x="121.460414" y="320.243478" style="stroke: #000000; stroke-width: 0.8"/>
      </g>
     </g>
     <g id="text_2">
      <!-- −12 -->
      <g transform="translate(105.631899 338.641135) scale(0.15 -0.15)">
       <defs>
        <path id="DejaVuSans-32" d="M 1228 531 
L 3431 531 
L 3431 0 
L 469 0 
L 469 531 
Q 828 903 1448 1529 
Q 2069 2156 2228 2338 
Q 2531 2678 2651 2914 
Q 2772 3150 2772 3378 
Q 2772 3750 2511 3984 
Q 2250 4219 1831 4219 
Q 1534 4219 1204 4116 
Q 875 4013 500 3803 
L 500 4441 
Q 881 4594 1212 4672 
Q 1544 4750 1819 4750 
Q 2544 4750 2975 4387 
Q 3406 4025 3406 3419 
Q 3406 3131 3298 2873 
Q 3191 2616 2906 2266 
Q 2828 2175 2409 1742 
Q 1991 1309 1228 531 
z
" transform="scale(0.015625)"/>
       </defs>
       <use xlink:href="#DejaVuSans-2212"/>
       <use xlink:href="#DejaVuSans-31" transform="translate(83.789062 0)"/>
       <use xlink:href="#DejaVuSans-32" transform="translate(147.412109 0)"/>
      </g>
     </g>
    </g>
    <g id="xtick_3">
     <g id="line2d_3">
      <g>
       <use xlink:href="#m17d92fdda3" x="170.438471" y="320.243478" style="stroke: #000000; stroke-width: 0.8"/>
      </g>
     </g>
     <g id="text_3">
      <!-- −10 -->
      <g transform="translate(154.609955 338.641135) scale(0.15 -0.15)">
       <defs>
        <path id="DejaVuSans-30" d="M 2034 4250 
Q 1547 4250 1301 3770 
Q 1056 3291 1056 2328 
Q 1056 1369 1301 889 
Q 1547 409 2034 409 
Q 2525 409 2770 889 
Q 3016 1369 3016 2328 
Q 3016 3291 2770 3770 
Q 2525 4250 2034 4250 
z
M 2034 4750 
Q 2819 4750 3233 4129 
Q 3647 3509 3647 2328 
Q 3647 1150 3233 529 
Q 2819 -91 2034 -91 
Q 1250 -91 836 529 
Q 422 1150 422 2328 
Q 422 3509 836 4129 
Q 1250 4750 2034 4750 
z
" transform="scale(0.015625)"/>
       </defs>
       <use xlink:href="#DejaVuSans-2212"/>
       <use xlink:href="#DejaVuSans-31" transform="translate(83.789062 0)"/>
       <use xlink:href="#DejaVuSans-30" transform="translate(147.412109 0)"/>
      </g>
     </g>
    </g>
    <g id="xtick_4">
     <g id="line2d_4">
      <g>
       <use xlink:href="#m17d92fdda3" x="219.416527" y="320.243478" style="stroke: #000000; stroke-width: 0.8"/>
      </g>
     </g>
     <g id="text_4">
      <!-- −8 -->
      <g transform="translate(208.359887 338.641135) scale(0.15 -0.15)">
       <defs>
        <path id="DejaVuSans-38" d="M 2034 2216 
Q 1584 2216 1326 1975 
Q 1069 1734 1069 1313 
Q 1069 891 1326 650 
Q 1584 409 2034 409 
Q 2484 409 2743 651 
Q 3003 894 3003 1313 
Q 3003 1734 2745 1975 
Q 2488 2216 2034 2216 
z
M 1403 2484 
Q 997 2584 770 2862 
Q 544 3141 544 3541 
Q 544 4100 942 4425 
Q 1341 4750 2034 4750 
Q 2731 4750 3128 4425 
Q 3525 4100 3525 3541 
Q 3525 3141 3298 2862 
Q 3072 2584 2669 2484 
Q 3125 2378 3379 2068 
Q 3634 1759 3634 1313 
Q 3634 634 3220 271 
Q 2806 -91 2034 -91 
Q 1263 -91 848 271 
Q 434 634 434 1313 
Q 434 1759 690 2068 
Q 947 2378 1403 2484 
z
M 1172 3481 
Q 1172 3119 1398 2916 
Q 1625 2713 2034 2713 
Q 2441 2713 2670 2916 
Q 2900 3119 2900 3481 
Q 2900 3844 2670 4047 
Q 2441 4250 2034 4250 
Q 1625 4250 1398 4047 
Q 1172 3844 1172 3481 
z
" transform="scale(0.015625)"/>
       </defs>
       <use xlink:href="#DejaVuSans-2212"/>
       <use xlink:href="#DejaVuSans-38" transform="translate(83.789062 0)"/>
      </g>
     </g>
    </g>
    <g id="xtick_5">
     <g id="line2d_5">
      <g>
       <use xlink:href="#m17d92fdda3" x="268.394584" y="320.243478" style="stroke: #000000; stroke-width: 0.8"/>
      </g>
     </g>
     <g id="text_5">
      <!-- −6 -->
      <g transform="translate(257.337943 338.641135) scale(0.15 -0.15)">
       <defs>
        <path id="DejaVuSans-36" d="M 2113 2584 
Q 1688 2584 1439 2293 
Q 1191 2003 1191 1497 
Q 1191 994 1439 701 
Q 1688 409 2113 409 
Q 2538 409 2786 701 
Q 3034 994 3034 1497 
Q 3034 2003 2786 2293 
Q 2538 2584 2113 2584 
z
M 3366 4563 
L 3366 3988 
Q 3128 4100 2886 4159 
Q 2644 4219 2406 4219 
Q 1781 4219 1451 3797 
Q 1122 3375 1075 2522 
Q 1259 2794 1537 2939 
Q 1816 3084 2150 3084 
Q 2853 3084 3261 2657 
Q 3669 2231 3669 1497 
Q 3669 778 3244 343 
Q 2819 -91 2113 -91 
Q 1303 -91 875 529 
Q 447 1150 447 2328 
Q 447 3434 972 4092 
Q 1497 4750 2381 4750 
Q 2619 4750 2861 4703 
Q 3103 4656 3366 4563 
z
" transform="scale(0.015625)"/>
       </defs>
       <use xlink:href="#DejaVuSans-2212"/>
       <use xlink:href="#DejaVuSans-36" transform="translate(83.789062 0)"/>
      </g>
     </g>
    </g>
    <g id="xtick_6">
     <g id="line2d_6">
      <g>
       <use xlink:href="#m17d92fdda3" x="317.37264" y="320.243478" style="stroke: #000000; stroke-width: 0.8"/>
      </g>
     </g>
     <g id="text_6">
      <!-- −4 -->
      <g transform="translate(306.315999 338.641135) scale(0.15 -0.15)">
       <use xlink:href="#DejaVuSans-2212"/>
       <use xlink:href="#DejaVuSans-34" transform="translate(83.789062 0)"/>
      </g>
     </g>
    </g>
    <g id="xtick_7">
     <g id="line2d_7">
      <g>
       <use xlink:href="#m17d92fdda3" x="366.350697" y="320.243478" style="stroke: #000000; stroke-width: 0.8"/>
      </g>
     </g>
     <g id="text_7">
      <!-- −2 -->
      <g transform="translate(355.294056 338.641135) scale(0.15 -0.15)">
       <use xlink:href="#DejaVuSans-2212"/>
       <use xlink:href="#DejaVuSans-32" transform="translate(83.789062 0)"/>
      </g>
     </g>
    </g>
    <g id="xtick_8">
     <g id="line2d_8">
      <g>
       <use xlink:href="#m17d92fdda3" x="415.328753" y="320.243478" style="stroke: #000000; stroke-width: 0.8"/>
      </g>
     </g>
     <g id="text_8">
      <!-- 0 -->
      <g transform="translate(410.556878 338.641135) scale(0.15 -0.15)">
       <use xlink:href="#DejaVuSans-30"/>
      </g>
     </g>
    </g>
    <g id="text_9">
     <!-- time [day] -->
     <g transform="translate(197.697031 359.437853) scale(0.18 -0.18)">
      <defs>
       <path id="DejaVuSans-Bold-74" d="M 1759 4494 
L 1759 3500 
L 2913 3500 
L 2913 2700 
L 1759 2700 
L 1759 1216 
Q 1759 972 1856 886 
Q 1953 800 2241 800 
L 2816 800 
L 2816 0 
L 1856 0 
Q 1194 0 917 276 
Q 641 553 641 1216 
L 641 2700 
L 84 2700 
L 84 3500 
L 641 3500 
L 641 4494 
L 1759 4494 
z
" transform="scale(0.015625)"/>
       <path id="DejaVuSans-Bold-69" d="M 538 3500 
L 1656 3500 
L 1656 0 
L 538 0 
L 538 3500 
z
M 538 4863 
L 1656 4863 
L 1656 3950 
L 538 3950 
L 538 4863 
z
" transform="scale(0.015625)"/>
       <path id="DejaVuSans-Bold-6d" d="M 3781 2919 
Q 3994 3244 4286 3414 
Q 4578 3584 4928 3584 
Q 5531 3584 5847 3212 
Q 6163 2841 6163 2131 
L 6163 0 
L 5038 0 
L 5038 1825 
Q 5041 1866 5042 1909 
Q 5044 1953 5044 2034 
Q 5044 2406 4934 2573 
Q 4825 2741 4581 2741 
Q 4263 2741 4089 2478 
Q 3916 2216 3909 1719 
L 3909 0 
L 2784 0 
L 2784 1825 
Q 2784 2406 2684 2573 
Q 2584 2741 2328 2741 
Q 2006 2741 1831 2477 
Q 1656 2213 1656 1722 
L 1656 0 
L 531 0 
L 531 3500 
L 1656 3500 
L 1656 2988 
Q 1863 3284 2130 3434 
Q 2397 3584 2719 3584 
Q 3081 3584 3359 3409 
Q 3638 3234 3781 2919 
z
" transform="scale(0.015625)"/>
       <path id="DejaVuSans-Bold-65" d="M 4031 1759 
L 4031 1441 
L 1416 1441 
Q 1456 1047 1700 850 
Q 1944 653 2381 653 
Q 2734 653 3104 758 
Q 3475 863 3866 1075 
L 3866 213 
Q 3469 63 3072 -14 
Q 2675 -91 2278 -91 
Q 1328 -91 801 392 
Q 275 875 275 1747 
Q 275 2603 792 3093 
Q 1309 3584 2216 3584 
Q 3041 3584 3536 3087 
Q 4031 2591 4031 1759 
z
M 2881 2131 
Q 2881 2450 2695 2645 
Q 2509 2841 2209 2841 
Q 1884 2841 1681 2658 
Q 1478 2475 1428 2131 
L 2881 2131 
z
" transform="scale(0.015625)"/>
       <path id="DejaVuSans-Bold-20" transform="scale(0.015625)"/>
       <path id="DejaVuSans-Bold-5b" d="M 550 4863 
L 2491 4863 
L 2491 4159 
L 1613 4159 
L 1613 -141 
L 2491 -141 
L 2491 -844 
L 550 -844 
L 550 4863 
z
" transform="scale(0.015625)"/>
       <path id="DejaVuSans-Bold-64" d="M 2919 2988 
L 2919 4863 
L 4044 4863 
L 4044 0 
L 2919 0 
L 2919 506 
Q 2688 197 2409 53 
Q 2131 -91 1766 -91 
Q 1119 -91 703 423 
Q 288 938 288 1747 
Q 288 2556 703 3070 
Q 1119 3584 1766 3584 
Q 2128 3584 2408 3439 
Q 2688 3294 2919 2988 
z
M 2181 722 
Q 2541 722 2730 984 
Q 2919 1247 2919 1747 
Q 2919 2247 2730 2509 
Q 2541 2772 2181 2772 
Q 1825 2772 1636 2509 
Q 1447 2247 1447 1747 
Q 1447 1247 1636 984 
Q 1825 722 2181 722 
z
" transform="scale(0.015625)"/>
       <path id="DejaVuSans-Bold-61" d="M 2106 1575 
Q 1756 1575 1579 1456 
Q 1403 1338 1403 1106 
Q 1403 894 1545 773 
Q 1688 653 1941 653 
Q 2256 653 2472 879 
Q 2688 1106 2688 1447 
L 2688 1575 
L 2106 1575 
z
M 3816 1997 
L 3816 0 
L 2688 0 
L 2688 519 
Q 2463 200 2181 54 
Q 1900 -91 1497 -91 
Q 953 -91 614 226 
Q 275 544 275 1050 
Q 275 1666 698 1953 
Q 1122 2241 2028 2241 
L 2688 2241 
L 2688 2328 
Q 2688 2594 2478 2717 
Q 2269 2841 1825 2841 
Q 1466 2841 1156 2769 
Q 847 2697 581 2553 
L 581 3406 
Q 941 3494 1303 3539 
Q 1666 3584 2028 3584 
Q 2975 3584 3395 3211 
Q 3816 2838 3816 1997 
z
" transform="scale(0.015625)"/>
       <path id="DejaVuSans-Bold-79" d="M 78 3500 
L 1197 3500 
L 2138 1125 
L 2938 3500 
L 4056 3500 
L 2584 -331 
Q 2363 -916 2067 -1148 
Q 1772 -1381 1288 -1381 
L 641 -1381 
L 641 -647 
L 991 -647 
Q 1275 -647 1404 -556 
Q 1534 -466 1606 -231 
L 1638 -134 
L 78 3500 
z
" transform="scale(0.015625)"/>
       <path id="DejaVuSans-Bold-5d" d="M 2375 -844 
L 434 -844 
L 434 -141 
L 1313 -141 
L 1313 4159 
L 434 4159 
L 434 4863 
L 2375 4863 
L 2375 -844 
z
" transform="scale(0.015625)"/>
      </defs>
      <use xlink:href="#DejaVuSans-Bold-74"/>
      <use xlink:href="#DejaVuSans-Bold-69" transform="translate(47.802734 0)"/>
      <use xlink:href="#DejaVuSans-Bold-6d" transform="translate(82.080078 0)"/>
      <use xlink:href="#DejaVuSans-Bold-65" transform="translate(186.279297 0)"/>
      <use xlink:href="#DejaVuSans-Bold-20" transform="translate(254.101562 0)"/>
      <use xlink:href="#DejaVuSans-Bold-5b" transform="translate(288.916016 0)"/>
      <use xlink:href="#DejaVuSans-Bold-64" transform="translate(334.619141 0)"/>
      <use xlink:href="#DejaVuSans-Bold-61" transform="translate(406.201172 0)"/>
      <use xlink:href="#DejaVuSans-Bold-79" transform="translate(470.556641 0)"/>
      <use xlink:href="#DejaVuSans-Bold-5d" transform="translate(535.742188 0)"/>
     </g>
    </g>
   </g>
   <g id="matplotlib.axis_2">
    <g id="ytick_1">
     <g id="line2d_9">
      <defs>
       <path id="m94f51234ff" d="M 0 0 
L -3.5 0 
" style="stroke: #000000; stroke-width: 0.8"/>
      </defs>
      <g>
       <use xlink:href="#m94f51234ff" x="54.727813" y="309.286957" style="stroke: #000000; stroke-width: 0.8"/>
      </g>
     </g>
     <g id="text_10">
      <!-- 0 -->
      <g transform="translate(38.184063 314.985785) scale(0.15 -0.15)">
       <use xlink:href="#DejaVuSans-30"/>
      </g>
     </g>
    </g>
    <g id="ytick_2">
     <g id="line2d_10">
      <g>
       <use xlink:href="#m94f51234ff" x="54.727813" y="261.718078" style="stroke: #000000; stroke-width: 0.8"/>
      </g>
     </g>
     <g id="text_11">
      <!-- 10 -->
      <g transform="translate(28.640313 267.416906) scale(0.15 -0.15)">
       <use xlink:href="#DejaVuSans-31"/>
       <use xlink:href="#DejaVuSans-30" transform="translate(63.623047 0)"/>
      </g>
     </g>
    </g>
    <g id="ytick_3">
     <g id="line2d_11">
      <g>
       <use xlink:href="#m94f51234ff" x="54.727813" y="214.1492" style="stroke: #000000; stroke-width: 0.8"/>
      </g>
     </g>
     <g id="text_12">
      <!-- 20 -->
      <g transform="translate(28.640313 219.848028) scale(0.15 -0.15)">
       <use xlink:href="#DejaVuSans-32"/>
       <use xlink:href="#DejaVuSans-30" transform="translate(63.623047 0)"/>
      </g>
     </g>
    </g>
    <g id="ytick_4">
     <g id="line2d_12">
      <g>
       <use xlink:href="#m94f51234ff" x="54.727813" y="166.580322" style="stroke: #000000; stroke-width: 0.8"/>
      </g>
     </g>
     <g id="text_13">
      <!-- 30 -->
      <g transform="translate(28.640313 172.27915) scale(0.15 -0.15)">
       <defs>
        <path id="DejaVuSans-33" d="M 2597 2516 
Q 3050 2419 3304 2112 
Q 3559 1806 3559 1356 
Q 3559 666 3084 287 
Q 2609 -91 1734 -91 
Q 1441 -91 1130 -33 
Q 819 25 488 141 
L 488 750 
Q 750 597 1062 519 
Q 1375 441 1716 441 
Q 2309 441 2620 675 
Q 2931 909 2931 1356 
Q 2931 1769 2642 2001 
Q 2353 2234 1838 2234 
L 1294 2234 
L 1294 2753 
L 1863 2753 
Q 2328 2753 2575 2939 
Q 2822 3125 2822 3475 
Q 2822 3834 2567 4026 
Q 2313 4219 1838 4219 
Q 1578 4219 1281 4162 
Q 984 4106 628 3988 
L 628 4550 
Q 988 4650 1302 4700 
Q 1616 4750 1894 4750 
Q 2613 4750 3031 4423 
Q 3450 4097 3450 3541 
Q 3450 3153 3228 2886 
Q 3006 2619 2597 2516 
z
" transform="scale(0.015625)"/>
       </defs>
       <use xlink:href="#DejaVuSans-33"/>
       <use xlink:href="#DejaVuSans-30" transform="translate(63.623047 0)"/>
      </g>
     </g>
    </g>
    <g id="ytick_5">
     <g id="line2d_13">
      <g>
       <use xlink:href="#m94f51234ff" x="54.727813" y="119.011444" style="stroke: #000000; stroke-width: 0.8"/>
      </g>
     </g>
     <g id="text_14">
      <!-- 40 -->
      <g transform="translate(28.640313 124.710272) scale(0.15 -0.15)">
       <use xlink:href="#DejaVuSans-34"/>
       <use xlink:href="#DejaVuSans-30" transform="translate(63.623047 0)"/>
      </g>
     </g>
    </g>
    <g id="text_15">
     <!-- sorafenib (plasma) [µM] -->
     <g transform="translate(20.877188 322.433927) rotate(-90) scale(0.18 -0.18)">
      <defs>
       <path id="DejaVuSans-Bold-73" d="M 3272 3391 
L 3272 2541 
Q 2913 2691 2578 2766 
Q 2244 2841 1947 2841 
Q 1628 2841 1473 2761 
Q 1319 2681 1319 2516 
Q 1319 2381 1436 2309 
Q 1553 2238 1856 2203 
L 2053 2175 
Q 2913 2066 3209 1816 
Q 3506 1566 3506 1031 
Q 3506 472 3093 190 
Q 2681 -91 1863 -91 
Q 1516 -91 1145 -36 
Q 775 19 384 128 
L 384 978 
Q 719 816 1070 734 
Q 1422 653 1784 653 
Q 2113 653 2278 743 
Q 2444 834 2444 1013 
Q 2444 1163 2330 1236 
Q 2216 1309 1875 1350 
L 1678 1375 
Q 931 1469 631 1722 
Q 331 1975 331 2491 
Q 331 3047 712 3315 
Q 1094 3584 1881 3584 
Q 2191 3584 2531 3537 
Q 2872 3491 3272 3391 
z
" transform="scale(0.015625)"/>
       <path id="DejaVuSans-Bold-6f" d="M 2203 2784 
Q 1831 2784 1636 2517 
Q 1441 2250 1441 1747 
Q 1441 1244 1636 976 
Q 1831 709 2203 709 
Q 2569 709 2762 976 
Q 2956 1244 2956 1747 
Q 2956 2250 2762 2517 
Q 2569 2784 2203 2784 
z
M 2203 3584 
Q 3106 3584 3614 3096 
Q 4122 2609 4122 1747 
Q 4122 884 3614 396 
Q 3106 -91 2203 -91 
Q 1297 -91 786 396 
Q 275 884 275 1747 
Q 275 2609 786 3096 
Q 1297 3584 2203 3584 
z
" transform="scale(0.015625)"/>
       <path id="DejaVuSans-Bold-72" d="M 3138 2547 
Q 2991 2616 2845 2648 
Q 2700 2681 2553 2681 
Q 2122 2681 1889 2404 
Q 1656 2128 1656 1613 
L 1656 0 
L 538 0 
L 538 3500 
L 1656 3500 
L 1656 2925 
Q 1872 3269 2151 3426 
Q 2431 3584 2822 3584 
Q 2878 3584 2943 3579 
Q 3009 3575 3134 3559 
L 3138 2547 
z
" transform="scale(0.015625)"/>
       <path id="DejaVuSans-Bold-66" d="M 2841 4863 
L 2841 4128 
L 2222 4128 
Q 1984 4128 1890 4042 
Q 1797 3956 1797 3744 
L 1797 3500 
L 2753 3500 
L 2753 2700 
L 1797 2700 
L 1797 0 
L 678 0 
L 678 2700 
L 122 2700 
L 122 3500 
L 678 3500 
L 678 3744 
Q 678 4316 997 4589 
Q 1316 4863 1984 4863 
L 2841 4863 
z
" transform="scale(0.015625)"/>
       <path id="DejaVuSans-Bold-6e" d="M 4056 2131 
L 4056 0 
L 2931 0 
L 2931 347 
L 2931 1631 
Q 2931 2084 2911 2256 
Q 2891 2428 2841 2509 
Q 2775 2619 2662 2680 
Q 2550 2741 2406 2741 
Q 2056 2741 1856 2470 
Q 1656 2200 1656 1722 
L 1656 0 
L 538 0 
L 538 3500 
L 1656 3500 
L 1656 2988 
Q 1909 3294 2193 3439 
Q 2478 3584 2822 3584 
Q 3428 3584 3742 3212 
Q 4056 2841 4056 2131 
z
" transform="scale(0.015625)"/>
       <path id="DejaVuSans-Bold-62" d="M 2400 722 
Q 2759 722 2948 984 
Q 3138 1247 3138 1747 
Q 3138 2247 2948 2509 
Q 2759 2772 2400 2772 
Q 2041 2772 1848 2508 
Q 1656 2244 1656 1747 
Q 1656 1250 1848 986 
Q 2041 722 2400 722 
z
M 1656 2988 
Q 1888 3294 2169 3439 
Q 2450 3584 2816 3584 
Q 3463 3584 3878 3070 
Q 4294 2556 4294 1747 
Q 4294 938 3878 423 
Q 3463 -91 2816 -91 
Q 2450 -91 2169 54 
Q 1888 200 1656 506 
L 1656 0 
L 538 0 
L 538 4863 
L 1656 4863 
L 1656 2988 
z
" transform="scale(0.015625)"/>
       <path id="DejaVuSans-Bold-28" d="M 2413 -844 
L 1484 -844 
Q 1006 -72 778 623 
Q 550 1319 550 2003 
Q 550 2688 779 3389 
Q 1009 4091 1484 4856 
L 2413 4856 
Q 2013 4116 1813 3408 
Q 1613 2700 1613 2009 
Q 1613 1319 1811 609 
Q 2009 -100 2413 -844 
z
" transform="scale(0.015625)"/>
       <path id="DejaVuSans-Bold-70" d="M 1656 506 
L 1656 -1331 
L 538 -1331 
L 538 3500 
L 1656 3500 
L 1656 2988 
Q 1888 3294 2169 3439 
Q 2450 3584 2816 3584 
Q 3463 3584 3878 3070 
Q 4294 2556 4294 1747 
Q 4294 938 3878 423 
Q 3463 -91 2816 -91 
Q 2450 -91 2169 54 
Q 1888 200 1656 506 
z
M 2400 2772 
Q 2041 2772 1848 2508 
Q 1656 2244 1656 1747 
Q 1656 1250 1848 986 
Q 2041 722 2400 722 
Q 2759 722 2948 984 
Q 3138 1247 3138 1747 
Q 3138 2247 2948 2509 
Q 2759 2772 2400 2772 
z
" transform="scale(0.015625)"/>
       <path id="DejaVuSans-Bold-6c" d="M 538 4863 
L 1656 4863 
L 1656 0 
L 538 0 
L 538 4863 
z
" transform="scale(0.015625)"/>
       <path id="DejaVuSans-Bold-29" d="M 513 -844 
Q 913 -100 1113 609 
Q 1313 1319 1313 2009 
Q 1313 2700 1113 3408 
Q 913 4116 513 4856 
L 1441 4856 
Q 1916 4091 2145 3389 
Q 2375 2688 2375 2003 
Q 2375 1319 2147 623 
Q 1919 -72 1441 -844 
L 513 -844 
z
" transform="scale(0.015625)"/>
       <path id="DejaVuSans-Bold-b5" d="M 544 -1338 
L 544 3500 
L 1672 3500 
L 1672 1466 
Q 1672 1103 1828 926 
Q 1984 750 2303 750 
Q 2625 750 2781 926 
Q 2938 1103 2938 1466 
L 2938 3500 
L 4063 3500 
L 4063 1159 
Q 4063 938 4114 850 
Q 4166 763 4288 763 
Q 4344 763 4395 778 
Q 4447 794 4506 831 
L 4506 50 
Q 4341 -22 4195 -56 
Q 4050 -91 3909 -91 
Q 3631 -91 3454 26 
Q 3278 144 3169 403 
Q 3022 156 2811 32 
Q 2600 -91 2322 -91 
Q 2091 -91 1928 -17 
Q 1766 56 1672 206 
L 1672 -1338 
L 544 -1338 
z
" transform="scale(0.015625)"/>
       <path id="DejaVuSans-Bold-4d" d="M 588 4666 
L 2119 4666 
L 3181 2169 
L 4250 4666 
L 5778 4666 
L 5778 0 
L 4641 0 
L 4641 3413 
L 3566 897 
L 2803 897 
L 1728 3413 
L 1728 0 
L 588 0 
L 588 4666 
z
" transform="scale(0.015625)"/>
      </defs>
      <use xlink:href="#DejaVuSans-Bold-73"/>
      <use xlink:href="#DejaVuSans-Bold-6f" transform="translate(59.521484 0)"/>
      <use xlink:href="#DejaVuSans-Bold-72" transform="translate(128.222656 0)"/>
      <use xlink:href="#DejaVuSans-Bold-61" transform="translate(177.539062 0)"/>
      <use xlink:href="#DejaVuSans-Bold-66" transform="translate(245.019531 0)"/>
      <use xlink:href="#DejaVuSans-Bold-65" transform="translate(288.525391 0)"/>
      <use xlink:href="#DejaVuSans-Bold-6e" transform="translate(356.347656 0)"/>
      <use xlink:href="#DejaVuSans-Bold-69" transform="translate(427.539062 0)"/>
      <use xlink:href="#DejaVuSans-Bold-62" transform="translate(461.816406 0)"/>
      <use xlink:href="#DejaVuSans-Bold-20" transform="translate(533.398438 0)"/>
      <use xlink:href="#DejaVuSans-Bold-28" transform="translate(568.212891 0)"/>
      <use xlink:href="#DejaVuSans-Bold-70" transform="translate(613.916016 0)"/>
      <use xlink:href="#DejaVuSans-Bold-6c" transform="translate(685.498047 0)"/>
      <use xlink:href="#DejaVuSans-Bold-61" transform="translate(719.775391 0)"/>
      <use xlink:href="#DejaVuSans-Bold-73" transform="translate(787.255859 0)"/>
      <use xlink:href="#DejaVuSans-Bold-6d" transform="translate(846.777344 0)"/>
      <use xlink:href="#DejaVuSans-Bold-61" transform="translate(950.976562 0)"/>
      <use xlink:href="#DejaVuSans-Bold-29" transform="translate(1018.457031 0)"/>
      <use xlink:href="#DejaVuSans-Bold-20" transform="translate(1064.160156 0)"/>
      <use xlink:href="#DejaVuSans-Bold-5b" transform="translate(1098.974609 0)"/>
      <use xlink:href="#DejaVuSans-Bold-b5" transform="translate(1144.677734 0)"/>
      <use xlink:href="#DejaVuSans-Bold-4d" transform="translate(1218.261719 0)"/>
      <use xlink:href="#DejaVuSans-Bold-5d" transform="translate(1317.773438 0)"/>
     </g>
    </g>
   </g>
   <g id="line2d_14">
    <path d="M 72.482358 309.286957 
L 72.727248 309.180194 
L 73.094584 308.727898 
L 73.829255 307.351267 
L 75.114928 304.993424 
L 75.972044 303.887429 
L 76.767938 303.201234 
L 77.625054 302.752791 
L 78.604615 302.502941 
L 79.829066 302.438528 
L 81.604521 302.595959 
L 85.032985 302.997981 
L 85.40032 302.563941 
L 86.196214 301.160943 
L 87.359443 299.211518 
L 88.155336 298.279128 
L 88.951229 297.67991 
L 89.747123 297.350843 
L 90.665461 297.216294 
L 91.82869 297.291427 
L 93.4817 297.649979 
L 96.910164 298.683264 
L 97.216276 298.671087 
L 97.583612 298.327989 
L 98.25706 297.259683 
L 99.603957 295.108237 
L 100.39985 294.255518 
L 101.134521 293.766141 
L 101.930414 293.500931 
L 102.848753 293.448413 
L 103.950759 293.621741 
L 105.542546 294.11926 
L 108.97101 295.49448 
L 109.460791 295.58696 
L 109.766903 295.347402 
L 110.317907 294.569779 
L 111.970916 292.071378 
L 112.766809 291.329941 
L 113.50148 290.937089 
L 114.297374 290.767084 
L 115.215712 290.813139 
L 116.378941 291.112582 
L 118.093173 291.808019 
L 121.766527 293.395171 
L 122.133863 293.065452 
L 122.807311 292.067484 
L 124.092985 290.188912 
L 124.888878 289.434033 
L 125.623549 289.035555 
L 126.419443 288.870583 
L 127.276559 288.924932 
L 128.378565 289.230214 
L 129.970352 289.926681 
L 134.072264 291.850052 
L 134.439599 291.496942 
L 135.235493 290.310345 
L 136.337499 288.770959 
L 137.133392 288.044751 
L 137.868063 287.672853 
L 138.602734 287.539267 
L 139.45985 287.611037 
L 140.561856 287.946247 
L 142.153643 288.694835 
L 146.316778 290.796914 
L 146.684113 290.455518 
L 147.480007 289.292164 
L 148.582013 287.781762 
L 149.377907 287.075678 
L 150.112577 286.722424 
L 150.847248 286.607754 
L 151.704364 286.701954 
L 152.80637 287.066354 
L 154.398157 287.857045 
L 158.561292 290.063155 
L 158.928628 289.729952 
L 159.663298 288.676768 
L 160.826527 287.092744 
L 161.561198 286.441511 
L 162.295869 286.078991 
L 163.03054 285.959767 
L 163.887656 286.054561 
L 164.989662 286.427168 
L 166.520226 287.204314 
L 170.071135 289.340482 
L 170.683361 289.600665 
L 170.989474 289.417328 
L 171.479255 288.822767 
L 173.315932 286.365656 
L 174.050602 285.823047 
L 174.785273 285.55674 
L 175.581167 285.520498 
L 176.499505 285.716934 
L 177.723957 286.231786 
L 179.621856 287.306921 
L 182.927875 289.24421 
L 183.233988 289.064266 
L 183.723769 288.474823 
L 185.560446 286.034451 
L 186.295117 285.498152 
L 187.029787 285.238196 
L 187.825681 285.208939 
L 188.744019 285.413559 
L 189.968471 285.939416 
L 191.86637 287.031436 
L 195.172389 288.996484 
L 195.478502 288.818902 
L 195.968283 288.233019 
L 197.80496 285.804298 
L 198.539631 285.272389 
L 199.274302 285.016852 
L 200.070195 284.992454 
L 200.988534 285.202766 
L 202.212985 285.736278 
L 204.110885 286.84004 
L 207.416903 288.824389 
L 207.723016 288.648448 
L 208.212797 288.065042 
L 210.049474 285.644424 
L 210.784145 285.115566 
L 211.518816 284.863102 
L 212.314709 284.842082 
L 213.233048 285.05635 
L 214.457499 285.595182 
L 216.355399 286.707105 
L 219.661418 288.704867 
L 219.96753 288.530068 
L 220.457311 287.948382 
L 222.293988 285.533395 
L 223.028659 285.006659 
L 223.76333 284.756329 
L 224.559223 284.737656 
L 225.477562 284.954674 
L 226.702013 285.497201 
L 228.599913 286.614794 
L 231.905932 288.621874 
L 232.212044 288.447867 
L 232.701825 287.867377 
L 234.538502 285.456302 
L 235.273173 284.931039 
L 236.007844 284.682193 
L 236.803737 284.66515 
L 237.722076 284.884077 
L 238.946527 285.429172 
L 240.844427 286.550701 
L 244.150446 288.564253 
L 244.456559 288.390797 
L 244.946339 287.811137 
L 246.783016 285.402778 
L 247.517687 284.878539 
L 248.252358 284.630723 
L 249.048251 284.614812 
L 249.96659 284.835064 
L 251.191041 285.381942 
L 253.088941 286.506206 
L 256.39496 288.524251 
L 256.701073 288.351177 
L 257.190853 287.772094 
L 259.02753 285.365622 
L 259.762201 284.842093 
L 260.496872 284.594992 
L 261.292765 284.579867 
L 262.211104 284.80104 
L 263.435555 285.349156 
L 265.333455 286.475318 
L 268.639474 288.496483 
L 268.945587 288.323674 
L 269.435367 287.744991 
L 271.272044 285.339829 
L 272.006715 284.816794 
L 272.741386 284.570189 
L 273.53728 284.555609 
L 274.455618 284.777422 
L 275.68007 285.326397 
L 277.577969 286.453876 
L 280.883988 288.477208 
L 281.190101 288.304583 
L 281.679881 287.726178 
L 283.516559 285.321925 
L 284.251229 284.799232 
L 284.9859 284.552972 
L 285.781794 284.538771 
L 286.700132 284.761028 
L 287.924584 285.310599 
L 289.822483 286.438993 
L 293.128502 288.463828 
L 293.434615 288.291331 
L 293.924396 287.713119 
L 295.761073 285.309497 
L 296.495744 284.787042 
L 297.230414 284.541021 
L 298.026308 284.527084 
L 298.944646 284.749648 
L 300.169098 285.299633 
L 302.12822 286.467679 
L 305.373016 288.454541 
L 305.679129 288.282133 
L 306.16891 287.704055 
L 308.005587 285.300871 
L 308.740258 284.778581 
L 309.474928 284.532726 
L 310.270822 284.518971 
L 311.18916 284.741749 
L 312.413612 285.292022 
L 314.372734 286.460522 
L 317.61753 288.448095 
L 317.923643 288.275749 
L 318.413424 287.697763 
L 320.250101 285.294884 
L 320.984772 284.772709 
L 321.719443 284.526969 
L 322.515336 284.513341 
L 323.433675 284.736267 
L 324.658126 285.286739 
L 326.617248 286.455555 
L 329.862044 288.443621 
L 330.168157 288.271317 
L 330.657938 287.693396 
L 332.494615 285.290728 
L 333.229286 284.768632 
L 333.963957 284.522972 
L 334.75985 284.509432 
L 335.678189 284.732462 
L 336.90264 285.283072 
L 338.861762 286.452107 
L 342.106559 288.440515 
L 342.412671 288.268241 
L 342.902452 287.690365 
L 344.739129 285.287844 
L 345.4738 284.765803 
L 346.208471 284.520199 
L 347.004364 284.506719 
L 347.922703 284.72982 
L 349.147154 285.280527 
L 351.106276 286.449714 
L 354.351073 288.43836 
L 354.657186 288.266107 
L 355.146966 287.688262 
L 356.983643 285.285842 
L 357.718314 284.763839 
L 358.452985 284.518273 
L 359.248878 284.504837 
L 360.167217 284.727987 
L 361.391668 285.27876 
L 363.350791 286.448053 
L 366.595587 288.436864 
L 366.9017 288.264625 
L 367.39148 287.686801 
L 369.228157 285.284452 
L 369.962828 284.762476 
L 370.697499 284.516937 
L 371.493392 284.50353 
L 372.411731 284.726715 
L 373.636182 285.277534 
L 375.595305 286.4469 
L 378.840101 288.435825 
L 379.146214 288.263596 
L 379.635994 287.685788 
L 381.472671 285.283487 
L 382.207342 284.76153 
L 382.942013 284.51601 
L 383.737907 284.502623 
L 384.656245 284.725832 
L 385.880697 285.276683 
L 387.839819 286.4461 
L 391.084615 288.435105 
L 391.390728 288.262882 
L 391.880508 287.685084 
L 393.717186 285.282818 
L 394.451856 284.760873 
L 395.186527 284.515366 
L 395.982421 284.501993 
L 396.900759 284.725219 
L 398.125211 285.276093 
L 400.084333 286.445545 
L 403.329129 288.434604 
L 403.635242 288.262387 
L 404.125023 287.684596 
L 405.9617 285.282353 
L 406.69637 284.760418 
L 407.431041 284.514919 
L 408.226935 284.501556 
L 409.145273 284.724793 
L 410.369725 285.275683 
L 412.328847 286.445159 
L 415.573643 288.434257 
L 415.879756 288.262043 
L 416.369537 287.684257 
L 418.206214 285.282031 
L 418.940885 284.760101 
L 419.675555 284.514609 
L 420.471449 284.501253 
L 421.389787 284.724498 
L 422.614239 285.275398 
L 424.573361 286.444892 
L 427.573267 288.386025 
L 427.573267 288.386025 
" clip-path="url(#p6f16bcda39)" style="fill: none; stroke: #febd2a; stroke-width: 2; stroke-linecap: square"/>
   </g>
   <g id="line2d_15">
    <path d="M 415.328753 90.156522 
L 418.389881 268.2 
" clip-path="url(#p6f16bcda39)" style="fill: none; stroke-dasharray: 3.7,1.6; stroke-dashoffset: 0; stroke: #febd2a"/>
    <defs>
     <path id="m68515f04fb" d="M -3 3 
L 3 3 
L 3 -3 
L -3 -3 
z
" style="stroke: #000000; stroke-linejoin: miter"/>
    </defs>
    <g clip-path="url(#p6f16bcda39)">
     <use xlink:href="#m68515f04fb" x="415.328753" y="90.156522" style="fill: #febd2a; stroke: #000000; stroke-linejoin: miter"/>
     <use xlink:href="#m68515f04fb" x="418.389881" y="268.2" style="fill: #febd2a; stroke: #000000; stroke-linejoin: miter"/>
    </g>
   </g>
   <g id="line2d_16">
    <path d="M 415.328753 231.678261 
L 418.389881 260.21087 
" clip-path="url(#p6f16bcda39)" style="fill: none; stroke-dasharray: 3.7,1.6; stroke-dashoffset: 0; stroke: #febd2a"/>
    <g clip-path="url(#p6f16bcda39)">
     <use xlink:href="#m68515f04fb" x="415.328753" y="231.678261" style="fill: #febd2a; stroke: #000000; stroke-linejoin: miter"/>
     <use xlink:href="#m68515f04fb" x="418.389881" y="260.21087" style="fill: #febd2a; stroke: #000000; stroke-linejoin: miter"/>
    </g>
   </g>
   <g id="line2d_17">
    <path d="M 415.328753 155.21087 
L 418.389881 265.917391 
" clip-path="url(#p6f16bcda39)" style="fill: none; stroke-dasharray: 3.7,1.6; stroke-dashoffset: 0; stroke: #febd2a"/>
    <g clip-path="url(#p6f16bcda39)">
     <use xlink:href="#m68515f04fb" x="415.328753" y="155.21087" style="fill: #febd2a; stroke: #000000; stroke-linejoin: miter"/>
     <use xlink:href="#m68515f04fb" x="418.389881" y="265.917391" style="fill: #febd2a; stroke: #000000; stroke-linejoin: miter"/>
    </g>
   </g>
   <g id="line2d_18">
    <path d="M 415.328753 165.482609 
L 418.389881 283.036957 
" clip-path="url(#p6f16bcda39)" style="fill: none; stroke-dasharray: 3.7,1.6; stroke-dashoffset: 0; stroke: #febd2a"/>
    <g clip-path="url(#p6f16bcda39)">
     <use xlink:href="#m68515f04fb" x="415.328753" y="165.482609" style="fill: #febd2a; stroke: #000000; stroke-linejoin: miter"/>
     <use xlink:href="#m68515f04fb" x="418.389881" y="283.036957" style="fill: #febd2a; stroke: #000000; stroke-linejoin: miter"/>
    </g>
   </g>
   <g id="line2d_19">
    <path d="M 415.328753 157.493478 
L 418.389881 219.123913 
" clip-path="url(#p6f16bcda39)" style="fill: none; stroke-dasharray: 3.7,1.6; stroke-dashoffset: 0; stroke: #febd2a"/>
    <g clip-path="url(#p6f16bcda39)">
     <use xlink:href="#m68515f04fb" x="415.328753" y="157.493478" style="fill: #febd2a; stroke: #000000; stroke-linejoin: miter"/>
     <use xlink:href="#m68515f04fb" x="418.389881" y="219.123913" style="fill: #febd2a; stroke: #000000; stroke-linejoin: miter"/>
    </g>
   </g>
   <g id="line2d_20">
    <path d="M 415.328753 216.841304 
L 418.389881 265.917391 
" clip-path="url(#p6f16bcda39)" style="fill: none; stroke-dasharray: 3.7,1.6; stroke-dashoffset: 0; stroke: #febd2a"/>
    <g clip-path="url(#p6f16bcda39)">
     <use xlink:href="#m68515f04fb" x="415.328753" y="216.841304" style="fill: #febd2a; stroke: #000000; stroke-linejoin: miter"/>
     <use xlink:href="#m68515f04fb" x="418.389881" y="265.917391" style="fill: #febd2a; stroke: #000000; stroke-linejoin: miter"/>
    </g>
   </g>
   <g id="line2d_21">
    <path d="M 415.328753 252.221739 
L 418.389881 287.602174 
" clip-path="url(#p6f16bcda39)" style="fill: none; stroke-dasharray: 3.7,1.6; stroke-dashoffset: 0; stroke: #febd2a"/>
    <g clip-path="url(#p6f16bcda39)">
     <use xlink:href="#m68515f04fb" x="415.328753" y="252.221739" style="fill: #febd2a; stroke: #000000; stroke-linejoin: miter"/>
     <use xlink:href="#m68515f04fb" x="418.389881" y="287.602174" style="fill: #febd2a; stroke: #000000; stroke-linejoin: miter"/>
    </g>
   </g>
   <g id="line2d_22">
    <path d="M 415.328753 232.819565 
" clip-path="url(#p6f16bcda39)" style="fill: none; stroke-dasharray: 3.7,1.6; stroke-dashoffset: 0; stroke: #febd2a"/>
    <g clip-path="url(#p6f16bcda39)">
     <use xlink:href="#m68515f04fb" x="415.328753" y="232.819565" style="fill: #febd2a; stroke: #000000; stroke-linejoin: miter"/>
    </g>
   </g>
   <g id="line2d_23">
    <path d="M 415.328753 238.526087 
L 418.389881 283.036957 
" clip-path="url(#p6f16bcda39)" style="fill: none; stroke-dasharray: 3.7,1.6; stroke-dashoffset: 0; stroke: #febd2a"/>
    <g clip-path="url(#p6f16bcda39)">
     <use xlink:href="#m68515f04fb" x="415.328753" y="238.526087" style="fill: #febd2a; stroke: #000000; stroke-linejoin: miter"/>
     <use xlink:href="#m68515f04fb" x="418.389881" y="283.036957" style="fill: #febd2a; stroke: #000000; stroke-linejoin: miter"/>
    </g>
   </g>
   <g id="line2d_24">
    <path d="M 415.328753 251.080435 
L 418.389881 283.036957 
" clip-path="url(#p6f16bcda39)" style="fill: none; stroke-dasharray: 3.7,1.6; stroke-dashoffset: 0; stroke: #febd2a"/>
    <g clip-path="url(#p6f16bcda39)">
     <use xlink:href="#m68515f04fb" x="415.328753" y="251.080435" style="fill: #febd2a; stroke: #000000; stroke-linejoin: miter"/>
     <use xlink:href="#m68515f04fb" x="418.389881" y="283.036957" style="fill: #febd2a; stroke: #000000; stroke-linejoin: miter"/>
    </g>
   </g>
   <g id="line2d_25">
    <path d="M 415.328753 239.667391 
L 418.389881 245.373913 
" clip-path="url(#p6f16bcda39)" style="fill: none; stroke-dasharray: 3.7,1.6; stroke-dashoffset: 0; stroke: #febd2a"/>
    <g clip-path="url(#p6f16bcda39)">
     <use xlink:href="#m68515f04fb" x="415.328753" y="239.667391" style="fill: #febd2a; stroke: #000000; stroke-linejoin: miter"/>
     <use xlink:href="#m68515f04fb" x="418.389881" y="245.373913" style="fill: #febd2a; stroke: #000000; stroke-linejoin: miter"/>
    </g>
   </g>
   <g id="line2d_26">
    <path d="M 415.328753 256.786957 
L 418.389881 275.047826 
" clip-path="url(#p6f16bcda39)" style="fill: none; stroke-dasharray: 3.7,1.6; stroke-dashoffset: 0; stroke: #febd2a"/>
    <g clip-path="url(#p6f16bcda39)">
     <use xlink:href="#m68515f04fb" x="415.328753" y="256.786957" style="fill: #febd2a; stroke: #000000; stroke-linejoin: miter"/>
     <use xlink:href="#m68515f04fb" x="418.389881" y="275.047826" style="fill: #febd2a; stroke: #000000; stroke-linejoin: miter"/>
    </g>
   </g>
   <g id="line2d_27">
    <path d="M 415.328753 254.504348 
L 418.389881 294.45 
" clip-path="url(#p6f16bcda39)" style="fill: none; stroke-dasharray: 3.7,1.6; stroke-dashoffset: 0; stroke: #febd2a"/>
    <g clip-path="url(#p6f16bcda39)">
     <use xlink:href="#m68515f04fb" x="415.328753" y="254.504348" style="fill: #febd2a; stroke: #000000; stroke-linejoin: miter"/>
     <use xlink:href="#m68515f04fb" x="418.389881" y="294.45" style="fill: #febd2a; stroke: #000000; stroke-linejoin: miter"/>
    </g>
   </g>
   <g id="line2d_28">
    <path d="M 415.328753 252.221739 
L 418.389881 288.743478 
" clip-path="url(#p6f16bcda39)" style="fill: none; stroke-dasharray: 3.7,1.6; stroke-dashoffset: 0; stroke: #febd2a"/>
    <g clip-path="url(#p6f16bcda39)">
     <use xlink:href="#m68515f04fb" x="415.328753" y="252.221739" style="fill: #febd2a; stroke: #000000; stroke-linejoin: miter"/>
     <use xlink:href="#m68515f04fb" x="418.389881" y="288.743478" style="fill: #febd2a; stroke: #000000; stroke-linejoin: miter"/>
    </g>
   </g>
   <g id="patch_3">
    <path d="M 54.727813 320.243478 
L 54.727813 79.2 
" style="fill: none; stroke: #000000; stroke-width: 0.8; stroke-linejoin: miter; stroke-linecap: square"/>
   </g>
   <g id="patch_4">
    <path d="M 445.327813 320.243478 
L 445.327813 79.2 
" style="fill: none; stroke: #000000; stroke-width: 0.8; stroke-linejoin: miter; stroke-linecap: square"/>
   </g>
   <g id="patch_5">
    <path d="M 54.727813 320.243478 
L 445.327813 320.243478 
" style="fill: none; stroke: #000000; stroke-width: 0.8; stroke-linejoin: miter; stroke-linecap: square"/>
   </g>
   <g id="patch_6">
    <path d="M 54.727813 79.2 
L 445.327813 79.2 
" style="fill: none; stroke: #000000; stroke-width: 0.8; stroke-linejoin: miter; stroke-linecap: square"/>
   </g>
   <g id="legend_1">
    <g id="patch_7">
     <path d="M 61.727813 101.878125 
L 161.930938 101.878125 
Q 163.930938 101.878125 163.930938 99.878125 
L 163.930938 86.2 
Q 163.930938 84.2 161.930938 84.2 
L 61.727813 84.2 
Q 59.727813 84.2 59.727813 86.2 
L 59.727813 99.878125 
Q 59.727813 101.878125 61.727813 101.878125 
z
" style="fill: #ffffff; opacity: 0.8; stroke: #cccccc; stroke-linejoin: miter"/>
    </g>
    <g id="line2d_29">
     <path d="M 63.727813 92.298437 
L 83.727813 92.298437 
" style="fill: none; stroke: #febd2a; stroke-width: 2; stroke-linecap: square"/>
    </g>
    <g id="line2d_30"/>
    <g id="text_16">
     <!-- Sim 400 [mg] -->
     <g transform="translate(91.727813 95.798437) scale(0.1 -0.1)">
      <defs>
       <path id="DejaVuSans-53" d="M 3425 4513 
L 3425 3897 
Q 3066 4069 2747 4153 
Q 2428 4238 2131 4238 
Q 1616 4238 1336 4038 
Q 1056 3838 1056 3469 
Q 1056 3159 1242 3001 
Q 1428 2844 1947 2747 
L 2328 2669 
Q 3034 2534 3370 2195 
Q 3706 1856 3706 1288 
Q 3706 609 3251 259 
Q 2797 -91 1919 -91 
Q 1588 -91 1214 -16 
Q 841 59 441 206 
L 441 856 
Q 825 641 1194 531 
Q 1563 422 1919 422 
Q 2459 422 2753 634 
Q 3047 847 3047 1241 
Q 3047 1584 2836 1778 
Q 2625 1972 2144 2069 
L 1759 2144 
Q 1053 2284 737 2584 
Q 422 2884 422 3419 
Q 422 4038 858 4394 
Q 1294 4750 2059 4750 
Q 2388 4750 2728 4690 
Q 3069 4631 3425 4513 
z
" transform="scale(0.015625)"/>
       <path id="DejaVuSans-69" d="M 603 3500 
L 1178 3500 
L 1178 0 
L 603 0 
L 603 3500 
z
M 603 4863 
L 1178 4863 
L 1178 4134 
L 603 4134 
L 603 4863 
z
" transform="scale(0.015625)"/>
       <path id="DejaVuSans-6d" d="M 3328 2828 
Q 3544 3216 3844 3400 
Q 4144 3584 4550 3584 
Q 5097 3584 5394 3201 
Q 5691 2819 5691 2113 
L 5691 0 
L 5113 0 
L 5113 2094 
Q 5113 2597 4934 2840 
Q 4756 3084 4391 3084 
Q 3944 3084 3684 2787 
Q 3425 2491 3425 1978 
L 3425 0 
L 2847 0 
L 2847 2094 
Q 2847 2600 2669 2842 
Q 2491 3084 2119 3084 
Q 1678 3084 1418 2786 
Q 1159 2488 1159 1978 
L 1159 0 
L 581 0 
L 581 3500 
L 1159 3500 
L 1159 2956 
Q 1356 3278 1631 3431 
Q 1906 3584 2284 3584 
Q 2666 3584 2933 3390 
Q 3200 3197 3328 2828 
z
" transform="scale(0.015625)"/>
       <path id="DejaVuSans-20" transform="scale(0.015625)"/>
       <path id="DejaVuSans-5b" d="M 550 4863 
L 1875 4863 
L 1875 4416 
L 1125 4416 
L 1125 -397 
L 1875 -397 
L 1875 -844 
L 550 -844 
L 550 4863 
z
" transform="scale(0.015625)"/>
       <path id="DejaVuSans-67" d="M 2906 1791 
Q 2906 2416 2648 2759 
Q 2391 3103 1925 3103 
Q 1463 3103 1205 2759 
Q 947 2416 947 1791 
Q 947 1169 1205 825 
Q 1463 481 1925 481 
Q 2391 481 2648 825 
Q 2906 1169 2906 1791 
z
M 3481 434 
Q 3481 -459 3084 -895 
Q 2688 -1331 1869 -1331 
Q 1566 -1331 1297 -1286 
Q 1028 -1241 775 -1147 
L 775 -588 
Q 1028 -725 1275 -790 
Q 1522 -856 1778 -856 
Q 2344 -856 2625 -561 
Q 2906 -266 2906 331 
L 2906 616 
Q 2728 306 2450 153 
Q 2172 0 1784 0 
Q 1141 0 747 490 
Q 353 981 353 1791 
Q 353 2603 747 3093 
Q 1141 3584 1784 3584 
Q 2172 3584 2450 3431 
Q 2728 3278 2906 2969 
L 2906 3500 
L 3481 3500 
L 3481 434 
z
" transform="scale(0.015625)"/>
       <path id="DejaVuSans-5d" d="M 1947 4863 
L 1947 -844 
L 622 -844 
L 622 -397 
L 1369 -397 
L 1369 4416 
L 622 4416 
L 622 4863 
L 1947 4863 
z
" transform="scale(0.015625)"/>
      </defs>
      <use xlink:href="#DejaVuSans-53"/>
      <use xlink:href="#DejaVuSans-69" transform="translate(63.476562 0)"/>
      <use xlink:href="#DejaVuSans-6d" transform="translate(91.259766 0)"/>
      <use xlink:href="#DejaVuSans-20" transform="translate(188.671875 0)"/>
      <use xlink:href="#DejaVuSans-34" transform="translate(220.458984 0)"/>
      <use xlink:href="#DejaVuSans-30" transform="translate(284.082031 0)"/>
      <use xlink:href="#DejaVuSans-30" transform="translate(347.705078 0)"/>
      <use xlink:href="#DejaVuSans-20" transform="translate(411.328125 0)"/>
      <use xlink:href="#DejaVuSans-5b" transform="translate(443.115234 0)"/>
      <use xlink:href="#DejaVuSans-6d" transform="translate(482.128906 0)"/>
      <use xlink:href="#DejaVuSans-67" transform="translate(579.541016 0)"/>
      <use xlink:href="#DejaVuSans-5d" transform="translate(643.017578 0)"/>
     </g>
    </g>
   </g>
  </g>
  <g id="axes_2">
   <g id="patch_8">
    <path d="M 54.727813 633.6 
L 445.327813 633.6 
L 445.327813 392.556522 
L 54.727813 392.556522 
z
" style="fill: #ffffff"/>
   </g>
   <g id="matplotlib.axis_3">
    <g id="xtick_9">
     <g id="line2d_31">
      <g>
       <use xlink:href="#m17d92fdda3" x="54.727812" y="633.6" style="stroke: #000000; stroke-width: 0.8"/>
      </g>
     </g>
     <g id="text_17">
      <!-- −0.50 -->
      <g transform="translate(31.743828 651.997656) scale(0.15 -0.15)">
       <defs>
        <path id="DejaVuSans-2e" d="M 684 794 
L 1344 794 
L 1344 0 
L 684 0 
L 684 794 
z
" transform="scale(0.015625)"/>
        <path id="DejaVuSans-35" d="M 691 4666 
L 3169 4666 
L 3169 4134 
L 1269 4134 
L 1269 2991 
Q 1406 3038 1543 3061 
Q 1681 3084 1819 3084 
Q 2600 3084 3056 2656 
Q 3513 2228 3513 1497 
Q 3513 744 3044 326 
Q 2575 -91 1722 -91 
Q 1428 -91 1123 -41 
Q 819 9 494 109 
L 494 744 
Q 775 591 1075 516 
Q 1375 441 1709 441 
Q 2250 441 2565 725 
Q 2881 1009 2881 1497 
Q 2881 1984 2565 2268 
Q 2250 2553 1709 2553 
Q 1456 2553 1204 2497 
Q 953 2441 691 2322 
L 691 4666 
z
" transform="scale(0.015625)"/>
       </defs>
       <use xlink:href="#DejaVuSans-2212"/>
       <use xlink:href="#DejaVuSans-30" transform="translate(83.789062 0)"/>
       <use xlink:href="#DejaVuSans-2e" transform="translate(147.412109 0)"/>
       <use xlink:href="#DejaVuSans-35" transform="translate(179.199219 0)"/>
       <use xlink:href="#DejaVuSans-30" transform="translate(242.822266 0)"/>
      </g>
     </g>
    </g>
    <g id="xtick_10">
     <g id="line2d_32">
      <g>
       <use xlink:href="#m17d92fdda3" x="111.336508" y="633.6" style="stroke: #000000; stroke-width: 0.8"/>
      </g>
     </g>
     <g id="text_18">
      <!-- −0.25 -->
      <g transform="translate(88.352524 651.997656) scale(0.15 -0.15)">
       <use xlink:href="#DejaVuSans-2212"/>
       <use xlink:href="#DejaVuSans-30" transform="translate(83.789062 0)"/>
       <use xlink:href="#DejaVuSans-2e" transform="translate(147.412109 0)"/>
       <use xlink:href="#DejaVuSans-32" transform="translate(179.199219 0)"/>
       <use xlink:href="#DejaVuSans-35" transform="translate(242.822266 0)"/>
      </g>
     </g>
    </g>
    <g id="xtick_11">
     <g id="line2d_33">
      <g>
       <use xlink:href="#m17d92fdda3" x="167.945204" y="633.6" style="stroke: #000000; stroke-width: 0.8"/>
      </g>
     </g>
     <g id="text_19">
      <!-- 0.00 -->
      <g transform="translate(151.245985 651.997656) scale(0.15 -0.15)">
       <use xlink:href="#DejaVuSans-30"/>
       <use xlink:href="#DejaVuSans-2e" transform="translate(63.623047 0)"/>
       <use xlink:href="#DejaVuSans-30" transform="translate(95.410156 0)"/>
       <use xlink:href="#DejaVuSans-30" transform="translate(159.033203 0)"/>
      </g>
     </g>
    </g>
    <g id="xtick_12">
     <g id="line2d_34">
      <g>
       <use xlink:href="#m17d92fdda3" x="224.553899" y="633.6" style="stroke: #000000; stroke-width: 0.8"/>
      </g>
     </g>
     <g id="text_20">
      <!-- 0.25 -->
      <g transform="translate(207.854681 651.997656) scale(0.15 -0.15)">
       <use xlink:href="#DejaVuSans-30"/>
       <use xlink:href="#DejaVuSans-2e" transform="translate(63.623047 0)"/>
       <use xlink:href="#DejaVuSans-32" transform="translate(95.410156 0)"/>
       <use xlink:href="#DejaVuSans-35" transform="translate(159.033203 0)"/>
      </g>
     </g>
    </g>
    <g id="xtick_13">
     <g id="line2d_35">
      <g>
       <use xlink:href="#m17d92fdda3" x="281.162595" y="633.6" style="stroke: #000000; stroke-width: 0.8"/>
      </g>
     </g>
     <g id="text_21">
      <!-- 0.50 -->
      <g transform="translate(264.463376 651.997656) scale(0.15 -0.15)">
       <use xlink:href="#DejaVuSans-30"/>
       <use xlink:href="#DejaVuSans-2e" transform="translate(63.623047 0)"/>
       <use xlink:href="#DejaVuSans-35" transform="translate(95.410156 0)"/>
       <use xlink:href="#DejaVuSans-30" transform="translate(159.033203 0)"/>
      </g>
     </g>
    </g>
    <g id="xtick_14">
     <g id="line2d_36">
      <g>
       <use xlink:href="#m17d92fdda3" x="337.771291" y="633.6" style="stroke: #000000; stroke-width: 0.8"/>
      </g>
     </g>
     <g id="text_22">
      <!-- 0.75 -->
      <g transform="translate(321.072072 651.997656) scale(0.15 -0.15)">
       <defs>
        <path id="DejaVuSans-37" d="M 525 4666 
L 3525 4666 
L 3525 4397 
L 1831 0 
L 1172 0 
L 2766 4134 
L 525 4134 
L 525 4666 
z
" transform="scale(0.015625)"/>
       </defs>
       <use xlink:href="#DejaVuSans-30"/>
       <use xlink:href="#DejaVuSans-2e" transform="translate(63.623047 0)"/>
       <use xlink:href="#DejaVuSans-37" transform="translate(95.410156 0)"/>
       <use xlink:href="#DejaVuSans-35" transform="translate(159.033203 0)"/>
      </g>
     </g>
    </g>
    <g id="xtick_15">
     <g id="line2d_37">
      <g>
       <use xlink:href="#m17d92fdda3" x="394.379986" y="633.6" style="stroke: #000000; stroke-width: 0.8"/>
      </g>
     </g>
     <g id="text_23">
      <!-- 1.00 -->
      <g transform="translate(377.680768 651.997656) scale(0.15 -0.15)">
       <use xlink:href="#DejaVuSans-31"/>
       <use xlink:href="#DejaVuSans-2e" transform="translate(63.623047 0)"/>
       <use xlink:href="#DejaVuSans-30" transform="translate(95.410156 0)"/>
       <use xlink:href="#DejaVuSans-30" transform="translate(159.033203 0)"/>
      </g>
     </g>
    </g>
    <g id="text_24">
     <!-- time [day] -->
     <g transform="translate(197.697031 672.794375) scale(0.18 -0.18)">
      <use xlink:href="#DejaVuSans-Bold-74"/>
      <use xlink:href="#DejaVuSans-Bold-69" transform="translate(47.802734 0)"/>
      <use xlink:href="#DejaVuSans-Bold-6d" transform="translate(82.080078 0)"/>
      <use xlink:href="#DejaVuSans-Bold-65" transform="translate(186.279297 0)"/>
      <use xlink:href="#DejaVuSans-Bold-20" transform="translate(254.101562 0)"/>
      <use xlink:href="#DejaVuSans-Bold-5b" transform="translate(288.916016 0)"/>
      <use xlink:href="#DejaVuSans-Bold-64" transform="translate(334.619141 0)"/>
      <use xlink:href="#DejaVuSans-Bold-61" transform="translate(406.201172 0)"/>
      <use xlink:href="#DejaVuSans-Bold-79" transform="translate(470.556641 0)"/>
      <use xlink:href="#DejaVuSans-Bold-5d" transform="translate(535.742188 0)"/>
     </g>
    </g>
   </g>
   <g id="matplotlib.axis_4">
    <g id="ytick_6">
     <g id="line2d_38">
      <g>
       <use xlink:href="#m94f51234ff" x="54.727813" y="622.643478" style="stroke: #000000; stroke-width: 0.8"/>
      </g>
     </g>
     <g id="text_25">
      <!-- 0 -->
      <g transform="translate(38.184063 628.342306) scale(0.15 -0.15)">
       <use xlink:href="#DejaVuSans-30"/>
      </g>
     </g>
    </g>
    <g id="ytick_7">
     <g id="line2d_39">
      <g>
       <use xlink:href="#m94f51234ff" x="54.727813" y="575.0746" style="stroke: #000000; stroke-width: 0.8"/>
      </g>
     </g>
     <g id="text_26">
      <!-- 10 -->
      <g transform="translate(28.640313 580.773428) scale(0.15 -0.15)">
       <use xlink:href="#DejaVuSans-31"/>
       <use xlink:href="#DejaVuSans-30" transform="translate(63.623047 0)"/>
      </g>
     </g>
    </g>
    <g id="ytick_8">
     <g id="line2d_40">
      <g>
       <use xlink:href="#m94f51234ff" x="54.727813" y="527.505722" style="stroke: #000000; stroke-width: 0.8"/>
      </g>
     </g>
     <g id="text_27">
      <!-- 20 -->
      <g transform="translate(28.640313 533.20455) scale(0.15 -0.15)">
       <use xlink:href="#DejaVuSans-32"/>
       <use xlink:href="#DejaVuSans-30" transform="translate(63.623047 0)"/>
      </g>
     </g>
    </g>
    <g id="ytick_9">
     <g id="line2d_41">
      <g>
       <use xlink:href="#m94f51234ff" x="54.727813" y="479.936844" style="stroke: #000000; stroke-width: 0.8"/>
      </g>
     </g>
     <g id="text_28">
      <!-- 30 -->
      <g transform="translate(28.640313 485.635672) scale(0.15 -0.15)">
       <use xlink:href="#DejaVuSans-33"/>
       <use xlink:href="#DejaVuSans-30" transform="translate(63.623047 0)"/>
      </g>
     </g>
    </g>
    <g id="ytick_10">
     <g id="line2d_42">
      <g>
       <use xlink:href="#m94f51234ff" x="54.727813" y="432.367966" style="stroke: #000000; stroke-width: 0.8"/>
      </g>
     </g>
     <g id="text_29">
      <!-- 40 -->
      <g transform="translate(28.640313 438.066794) scale(0.15 -0.15)">
       <use xlink:href="#DejaVuSans-34"/>
       <use xlink:href="#DejaVuSans-30" transform="translate(63.623047 0)"/>
      </g>
     </g>
    </g>
    <g id="text_30">
     <!-- sorafenib (plasma) [µM] -->
     <g transform="translate(20.877188 635.790448) rotate(-90) scale(0.18 -0.18)">
      <use xlink:href="#DejaVuSans-Bold-73"/>
      <use xlink:href="#DejaVuSans-Bold-6f" transform="translate(59.521484 0)"/>
      <use xlink:href="#DejaVuSans-Bold-72" transform="translate(128.222656 0)"/>
      <use xlink:href="#DejaVuSans-Bold-61" transform="translate(177.539062 0)"/>
      <use xlink:href="#DejaVuSans-Bold-66" transform="translate(245.019531 0)"/>
      <use xlink:href="#DejaVuSans-Bold-65" transform="translate(288.525391 0)"/>
      <use xlink:href="#DejaVuSans-Bold-6e" transform="translate(356.347656 0)"/>
      <use xlink:href="#DejaVuSans-Bold-69" transform="translate(427.539062 0)"/>
      <use xlink:href="#DejaVuSans-Bold-62" transform="translate(461.816406 0)"/>
      <use xlink:href="#DejaVuSans-Bold-20" transform="translate(533.398438 0)"/>
      <use xlink:href="#DejaVuSans-Bold-28" transform="translate(568.212891 0)"/>
      <use xlink:href="#DejaVuSans-Bold-70" transform="translate(613.916016 0)"/>
      <use xlink:href="#DejaVuSans-Bold-6c" transform="translate(685.498047 0)"/>
      <use xlink:href="#DejaVuSans-Bold-61" transform="translate(719.775391 0)"/>
      <use xlink:href="#DejaVuSans-Bold-73" transform="translate(787.255859 0)"/>
      <use xlink:href="#DejaVuSans-Bold-6d" transform="translate(846.777344 0)"/>
      <use xlink:href="#DejaVuSans-Bold-61" transform="translate(950.976562 0)"/>
      <use xlink:href="#DejaVuSans-Bold-29" transform="translate(1018.457031 0)"/>
      <use xlink:href="#DejaVuSans-Bold-20" transform="translate(1064.160156 0)"/>
      <use xlink:href="#DejaVuSans-Bold-5b" transform="translate(1098.974609 0)"/>
      <use xlink:href="#DejaVuSans-Bold-b5" transform="translate(1144.677734 0)"/>
      <use xlink:href="#DejaVuSans-Bold-4d" transform="translate(1218.261719 0)"/>
      <use xlink:href="#DejaVuSans-Bold-5d" transform="translate(1317.773438 0)"/>
     </g>
    </g>
   </g>
   <g id="line2d_43">
    <path d="M 54.161726 601.704017 
L 56.99216 601.791126 
L 59.822595 601.618909 
L 63.785204 601.125316 
L 80.767813 598.695912 
L 86.428682 598.219876 
L 92.655639 597.92547 
L 99.448682 597.836456 
L 107.373899 597.967044 
L 116.997378 598.357587 
L 130.583465 599.154143 
L 157.755639 601.032385 
L 169.643465 601.797296 
L 172.473899 601.66874 
L 176.436508 601.206728 
L 185.493899 599.789364 
L 192.286943 598.879301 
L 197.947813 598.340548 
L 204.174769 597.983378 
L 210.967813 597.838588 
L 218.326943 597.908168 
L 227.384334 598.22231 
L 239.27216 598.867448 
L 259.085204 600.195762 
L 281.162595 601.742547 
L 281.162595 601.742547 
" clip-path="url(#pcf9cff8313)" style="fill: none; stroke: #febd2a; stroke-width: 2; stroke-linecap: square"/>
   </g>
   <g id="line2d_44">
    <path d="M 167.945204 403.513043 
L 196.249552 581.556522 
" clip-path="url(#pcf9cff8313)" style="fill: none; stroke-dasharray: 3.7,1.6; stroke-dashoffset: 0; stroke: #febd2a"/>
    <g clip-path="url(#pcf9cff8313)">
     <use xlink:href="#m68515f04fb" x="167.945204" y="403.513043" style="fill: #febd2a; stroke: #000000; stroke-linejoin: miter"/>
     <use xlink:href="#m68515f04fb" x="196.249552" y="581.556522" style="fill: #febd2a; stroke: #000000; stroke-linejoin: miter"/>
    </g>
   </g>
   <g id="line2d_45">
    <path d="M 167.945204 545.034783 
L 196.249552 573.567391 
" clip-path="url(#pcf9cff8313)" style="fill: none; stroke-dasharray: 3.7,1.6; stroke-dashoffset: 0; stroke: #febd2a"/>
    <g clip-path="url(#pcf9cff8313)">
     <use xlink:href="#m68515f04fb" x="167.945204" y="545.034783" style="fill: #febd2a; stroke: #000000; stroke-linejoin: miter"/>
     <use xlink:href="#m68515f04fb" x="196.249552" y="573.567391" style="fill: #febd2a; stroke: #000000; stroke-linejoin: miter"/>
    </g>
   </g>
   <g id="line2d_46">
    <path d="M 167.945204 468.567391 
L 196.249552 579.273913 
" clip-path="url(#pcf9cff8313)" style="fill: none; stroke-dasharray: 3.7,1.6; stroke-dashoffset: 0; stroke: #febd2a"/>
    <g clip-path="url(#pcf9cff8313)">
     <use xlink:href="#m68515f04fb" x="167.945204" y="468.567391" style="fill: #febd2a; stroke: #000000; stroke-linejoin: miter"/>
     <use xlink:href="#m68515f04fb" x="196.249552" y="579.273913" style="fill: #febd2a; stroke: #000000; stroke-linejoin: miter"/>
    </g>
   </g>
   <g id="line2d_47">
    <path d="M 167.945204 478.83913 
L 196.249552 596.393478 
" clip-path="url(#pcf9cff8313)" style="fill: none; stroke-dasharray: 3.7,1.6; stroke-dashoffset: 0; stroke: #febd2a"/>
    <g clip-path="url(#pcf9cff8313)">
     <use xlink:href="#m68515f04fb" x="167.945204" y="478.83913" style="fill: #febd2a; stroke: #000000; stroke-linejoin: miter"/>
     <use xlink:href="#m68515f04fb" x="196.249552" y="596.393478" style="fill: #febd2a; stroke: #000000; stroke-linejoin: miter"/>
    </g>
   </g>
   <g id="line2d_48">
    <path d="M 167.945204 470.85 
L 196.249552 532.480435 
" clip-path="url(#pcf9cff8313)" style="fill: none; stroke-dasharray: 3.7,1.6; stroke-dashoffset: 0; stroke: #febd2a"/>
    <g clip-path="url(#pcf9cff8313)">
     <use xlink:href="#m68515f04fb" x="167.945204" y="470.85" style="fill: #febd2a; stroke: #000000; stroke-linejoin: miter"/>
     <use xlink:href="#m68515f04fb" x="196.249552" y="532.480435" style="fill: #febd2a; stroke: #000000; stroke-linejoin: miter"/>
    </g>
   </g>
   <g id="line2d_49">
    <path d="M 167.945204 530.197826 
L 196.249552 579.273913 
" clip-path="url(#pcf9cff8313)" style="fill: none; stroke-dasharray: 3.7,1.6; stroke-dashoffset: 0; stroke: #febd2a"/>
    <g clip-path="url(#pcf9cff8313)">
     <use xlink:href="#m68515f04fb" x="167.945204" y="530.197826" style="fill: #febd2a; stroke: #000000; stroke-linejoin: miter"/>
     <use xlink:href="#m68515f04fb" x="196.249552" y="579.273913" style="fill: #febd2a; stroke: #000000; stroke-linejoin: miter"/>
    </g>
   </g>
   <g id="line2d_50">
    <path d="M 167.945204 565.578261 
L 196.249552 600.958696 
" clip-path="url(#pcf9cff8313)" style="fill: none; stroke-dasharray: 3.7,1.6; stroke-dashoffset: 0; stroke: #febd2a"/>
    <g clip-path="url(#pcf9cff8313)">
     <use xlink:href="#m68515f04fb" x="167.945204" y="565.578261" style="fill: #febd2a; stroke: #000000; stroke-linejoin: miter"/>
     <use xlink:href="#m68515f04fb" x="196.249552" y="600.958696" style="fill: #febd2a; stroke: #000000; stroke-linejoin: miter"/>
    </g>
   </g>
   <g id="line2d_51">
    <path d="M 167.945204 546.176087 
" clip-path="url(#pcf9cff8313)" style="fill: none; stroke-dasharray: 3.7,1.6; stroke-dashoffset: 0; stroke: #febd2a"/>
    <g clip-path="url(#pcf9cff8313)">
     <use xlink:href="#m68515f04fb" x="167.945204" y="546.176087" style="fill: #febd2a; stroke: #000000; stroke-linejoin: miter"/>
    </g>
   </g>
   <g id="line2d_52">
    <path d="M 167.945204 551.882609 
L 196.249552 596.393478 
" clip-path="url(#pcf9cff8313)" style="fill: none; stroke-dasharray: 3.7,1.6; stroke-dashoffset: 0; stroke: #febd2a"/>
    <g clip-path="url(#pcf9cff8313)">
     <use xlink:href="#m68515f04fb" x="167.945204" y="551.882609" style="fill: #febd2a; stroke: #000000; stroke-linejoin: miter"/>
     <use xlink:href="#m68515f04fb" x="196.249552" y="596.393478" style="fill: #febd2a; stroke: #000000; stroke-linejoin: miter"/>
    </g>
   </g>
   <g id="line2d_53">
    <path d="M 167.945204 564.436957 
L 196.249552 596.393478 
" clip-path="url(#pcf9cff8313)" style="fill: none; stroke-dasharray: 3.7,1.6; stroke-dashoffset: 0; stroke: #febd2a"/>
    <g clip-path="url(#pcf9cff8313)">
     <use xlink:href="#m68515f04fb" x="167.945204" y="564.436957" style="fill: #febd2a; stroke: #000000; stroke-linejoin: miter"/>
     <use xlink:href="#m68515f04fb" x="196.249552" y="596.393478" style="fill: #febd2a; stroke: #000000; stroke-linejoin: miter"/>
    </g>
   </g>
   <g id="line2d_54">
    <path d="M 167.945204 553.023913 
L 196.249552 558.730435 
" clip-path="url(#pcf9cff8313)" style="fill: none; stroke-dasharray: 3.7,1.6; stroke-dashoffset: 0; stroke: #febd2a"/>
    <g clip-path="url(#pcf9cff8313)">
     <use xlink:href="#m68515f04fb" x="167.945204" y="553.023913" style="fill: #febd2a; stroke: #000000; stroke-linejoin: miter"/>
     <use xlink:href="#m68515f04fb" x="196.249552" y="558.730435" style="fill: #febd2a; stroke: #000000; stroke-linejoin: miter"/>
    </g>
   </g>
   <g id="line2d_55">
    <path d="M 167.945204 570.143478 
L 196.249552 588.404348 
" clip-path="url(#pcf9cff8313)" style="fill: none; stroke-dasharray: 3.7,1.6; stroke-dashoffset: 0; stroke: #febd2a"/>
    <g clip-path="url(#pcf9cff8313)">
     <use xlink:href="#m68515f04fb" x="167.945204" y="570.143478" style="fill: #febd2a; stroke: #000000; stroke-linejoin: miter"/>
     <use xlink:href="#m68515f04fb" x="196.249552" y="588.404348" style="fill: #febd2a; stroke: #000000; stroke-linejoin: miter"/>
    </g>
   </g>
   <g id="line2d_56">
    <path d="M 167.945204 567.86087 
L 196.249552 607.806522 
" clip-path="url(#pcf9cff8313)" style="fill: none; stroke-dasharray: 3.7,1.6; stroke-dashoffset: 0; stroke: #febd2a"/>
    <g clip-path="url(#pcf9cff8313)">
     <use xlink:href="#m68515f04fb" x="167.945204" y="567.86087" style="fill: #febd2a; stroke: #000000; stroke-linejoin: miter"/>
     <use xlink:href="#m68515f04fb" x="196.249552" y="607.806522" style="fill: #febd2a; stroke: #000000; stroke-linejoin: miter"/>
    </g>
   </g>
   <g id="line2d_57">
    <path d="M 167.945204 565.578261 
L 196.249552 602.1 
" clip-path="url(#pcf9cff8313)" style="fill: none; stroke-dasharray: 3.7,1.6; stroke-dashoffset: 0; stroke: #febd2a"/>
    <g clip-path="url(#pcf9cff8313)">
     <use xlink:href="#m68515f04fb" x="167.945204" y="565.578261" style="fill: #febd2a; stroke: #000000; stroke-linejoin: miter"/>
     <use xlink:href="#m68515f04fb" x="196.249552" y="602.1" style="fill: #febd2a; stroke: #000000; stroke-linejoin: miter"/>
    </g>
   </g>
   <g id="patch_9">
    <path d="M 54.727813 633.6 
L 54.727813 392.556522 
" style="fill: none; stroke: #000000; stroke-width: 0.8; stroke-linejoin: miter; stroke-linecap: square"/>
   </g>
   <g id="patch_10">
    <path d="M 445.327813 633.6 
L 445.327813 392.556522 
" style="fill: none; stroke: #000000; stroke-width: 0.8; stroke-linejoin: miter; stroke-linecap: square"/>
   </g>
   <g id="patch_11">
    <path d="M 54.727812 633.6 
L 445.327813 633.6 
" style="fill: none; stroke: #000000; stroke-width: 0.8; stroke-linejoin: miter; stroke-linecap: square"/>
   </g>
   <g id="patch_12">
    <path d="M 54.727812 392.556522 
L 445.327813 392.556522 
" style="fill: none; stroke: #000000; stroke-width: 0.8; stroke-linejoin: miter; stroke-linecap: square"/>
   </g>
   <g id="legend_2">
    <g id="patch_13">
     <path d="M 338.124688 415.234647 
L 438.327813 415.234647 
Q 440.327813 415.234647 440.327813 413.234647 
L 440.327813 399.556522 
Q 440.327813 397.556522 438.327813 397.556522 
L 338.124688 397.556522 
Q 336.124688 397.556522 336.124688 399.556522 
L 336.124688 413.234647 
Q 336.124688 415.234647 338.124688 415.234647 
z
" style="fill: #ffffff; opacity: 0.8; stroke: #cccccc; stroke-linejoin: miter"/>
    </g>
    <g id="line2d_58">
     <path d="M 340.124688 405.654959 
L 360.124688 405.654959 
" style="fill: none; stroke: #febd2a; stroke-width: 2; stroke-linecap: square"/>
    </g>
    <g id="line2d_59"/>
    <g id="text_31">
     <!-- Sim 400 [mg] -->
     <g transform="translate(368.124688 409.154959) scale(0.1 -0.1)">
      <use xlink:href="#DejaVuSans-53"/>
      <use xlink:href="#DejaVuSans-69" transform="translate(63.476562 0)"/>
      <use xlink:href="#DejaVuSans-6d" transform="translate(91.259766 0)"/>
      <use xlink:href="#DejaVuSans-20" transform="translate(188.671875 0)"/>
      <use xlink:href="#DejaVuSans-34" transform="translate(220.458984 0)"/>
      <use xlink:href="#DejaVuSans-30" transform="translate(284.082031 0)"/>
      <use xlink:href="#DejaVuSans-30" transform="translate(347.705078 0)"/>
      <use xlink:href="#DejaVuSans-20" transform="translate(411.328125 0)"/>
      <use xlink:href="#DejaVuSans-5b" transform="translate(443.115234 0)"/>
      <use xlink:href="#DejaVuSans-6d" transform="translate(482.128906 0)"/>
      <use xlink:href="#DejaVuSans-67" transform="translate(579.541016 0)"/>
      <use xlink:href="#DejaVuSans-5d" transform="translate(643.017578 0)"/>
     </g>
    </g>
   </g>
  </g>
  <g id="text_32">
   <!-- Fucile2015 -->
   <g transform="translate(167.667266 26.196094) scale(0.25 -0.25)">
    <defs>
     <path id="DejaVuSans-Bold-46" d="M 588 4666 
L 3834 4666 
L 3834 3756 
L 1791 3756 
L 1791 2888 
L 3713 2888 
L 3713 1978 
L 1791 1978 
L 1791 0 
L 588 0 
L 588 4666 
z
" transform="scale(0.015625)"/>
     <path id="DejaVuSans-Bold-75" d="M 500 1363 
L 500 3500 
L 1625 3500 
L 1625 3150 
Q 1625 2866 1622 2436 
Q 1619 2006 1619 1863 
Q 1619 1441 1641 1255 
Q 1663 1069 1716 984 
Q 1784 875 1895 815 
Q 2006 756 2150 756 
Q 2500 756 2700 1025 
Q 2900 1294 2900 1772 
L 2900 3500 
L 4019 3500 
L 4019 0 
L 2900 0 
L 2900 506 
Q 2647 200 2364 54 
Q 2081 -91 1741 -91 
Q 1134 -91 817 281 
Q 500 653 500 1363 
z
" transform="scale(0.015625)"/>
     <path id="DejaVuSans-Bold-63" d="M 3366 3391 
L 3366 2478 
Q 3138 2634 2908 2709 
Q 2678 2784 2431 2784 
Q 1963 2784 1702 2511 
Q 1441 2238 1441 1747 
Q 1441 1256 1702 982 
Q 1963 709 2431 709 
Q 2694 709 2930 787 
Q 3166 866 3366 1019 
L 3366 103 
Q 3103 6 2833 -42 
Q 2563 -91 2291 -91 
Q 1344 -91 809 395 
Q 275 881 275 1747 
Q 275 2613 809 3098 
Q 1344 3584 2291 3584 
Q 2566 3584 2833 3536 
Q 3100 3488 3366 3391 
z
" transform="scale(0.015625)"/>
     <path id="DejaVuSans-Bold-32" d="M 1844 884 
L 3897 884 
L 3897 0 
L 506 0 
L 506 884 
L 2209 2388 
Q 2438 2594 2547 2791 
Q 2656 2988 2656 3200 
Q 2656 3528 2436 3728 
Q 2216 3928 1850 3928 
Q 1569 3928 1234 3808 
Q 900 3688 519 3450 
L 519 4475 
Q 925 4609 1322 4679 
Q 1719 4750 2100 4750 
Q 2938 4750 3402 4381 
Q 3866 4013 3866 3353 
Q 3866 2972 3669 2642 
Q 3472 2313 2841 1759 
L 1844 884 
z
" transform="scale(0.015625)"/>
     <path id="DejaVuSans-Bold-30" d="M 2944 2338 
Q 2944 3213 2780 3570 
Q 2616 3928 2228 3928 
Q 1841 3928 1675 3570 
Q 1509 3213 1509 2338 
Q 1509 1453 1675 1090 
Q 1841 728 2228 728 
Q 2613 728 2778 1090 
Q 2944 1453 2944 2338 
z
M 4147 2328 
Q 4147 1169 3647 539 
Q 3147 -91 2228 -91 
Q 1306 -91 806 539 
Q 306 1169 306 2328 
Q 306 3491 806 4120 
Q 1306 4750 2228 4750 
Q 3147 4750 3647 4120 
Q 4147 3491 4147 2328 
z
" transform="scale(0.015625)"/>
     <path id="DejaVuSans-Bold-31" d="M 750 831 
L 1813 831 
L 1813 3847 
L 722 3622 
L 722 4441 
L 1806 4666 
L 2950 4666 
L 2950 831 
L 4013 831 
L 4013 0 
L 750 0 
L 750 831 
z
" transform="scale(0.015625)"/>
     <path id="DejaVuSans-Bold-35" d="M 678 4666 
L 3669 4666 
L 3669 3781 
L 1638 3781 
L 1638 3059 
Q 1775 3097 1914 3117 
Q 2053 3138 2203 3138 
Q 3056 3138 3531 2711 
Q 4006 2284 4006 1522 
Q 4006 766 3489 337 
Q 2972 -91 2053 -91 
Q 1656 -91 1267 -14 
Q 878 63 494 219 
L 494 1166 
Q 875 947 1217 837 
Q 1559 728 1863 728 
Q 2300 728 2551 942 
Q 2803 1156 2803 1522 
Q 2803 1891 2551 2103 
Q 2300 2316 1863 2316 
Q 1603 2316 1309 2248 
Q 1016 2181 678 2041 
L 678 4666 
z
" transform="scale(0.015625)"/>
    </defs>
    <use xlink:href="#DejaVuSans-Bold-46"/>
    <use xlink:href="#DejaVuSans-Bold-75" transform="translate(63.310547 0)"/>
    <use xlink:href="#DejaVuSans-Bold-63" transform="translate(134.501953 0)"/>
    <use xlink:href="#DejaVuSans-Bold-69" transform="translate(193.779297 0)"/>
    <use xlink:href="#DejaVuSans-Bold-6c" transform="translate(228.056641 0)"/>
    <use xlink:href="#DejaVuSans-Bold-65" transform="translate(262.333984 0)"/>
    <use xlink:href="#DejaVuSans-Bold-32" transform="translate(330.15625 0)"/>
    <use xlink:href="#DejaVuSans-Bold-30" transform="translate(399.736328 0)"/>
    <use xlink:href="#DejaVuSans-Bold-31" transform="translate(469.316406 0)"/>
    <use xlink:href="#DejaVuSans-Bold-35" transform="translate(538.896484 0)"/>
   </g>
  </g>
 </g>
 <defs>
  <clipPath id="p6f16bcda39">
   <rect x="54.727813" y="79.2" width="390.6" height="241.043478"/>
  </clipPath>
  <clipPath id="pcf9cff8313">
   <rect x="54.727813" y="392.556522" width="390.6" height="241.043478"/>
  </clipPath>
 </defs>
</svg>
