<?xml version="1.0" encoding="utf-8" standalone="no"?>
<!DOCTYPE svg PUBLIC "-//W3C//DTD SVG 1.1//EN"
  "http://www.w3.org/Graphics/SVG/1.1/DTD/svg11.dtd">
<svg xmlns:xlink="http://www.w3.org/1999/xlink" width="457.295pt" height="683.737812pt" viewBox="0 0 457.295 683.737812" xmlns="http://www.w3.org/2000/svg" version="1.1">
 <metadata>
  <rdf:RDF xmlns:dc="http://purl.org/dc/elements/1.1/" xmlns:cc="http://creativecommons.org/ns#" xmlns:rdf="http://www.w3.org/1999/02/22-rdf-syntax-ns#">
   <cc:Work>
    <dc:type rdf:resource="http://purl.org/dc/dcmitype/StillImage"/>
    <dc:date>2026-01-12T13:10:48.178012</dc:date>
    <dc:format>image/svg+xml</dc:format>
    <dc:creator>
     <cc:Agent>
      <dc:title>Matplotlib v3.10.7, https://matplotlib.org/</dc:title>
     </cc:Agent>
    </dc:creator>
   </cc:Work>
  </rdf:RDF>
 </metadata>
 <defs>
  <style type="text/css">*{stroke-linejoin: round; stroke-linecap: butt}</style>
 </defs>
 <g id="figure_1">
  <g id="patch_1">
   <path d="M 0 683.737812 
L 457.295 683.737812 
L 457.295 0 
L 0 0 
z
" style="fill: #ffffff"/>
  </g>
  <g id="axes_1">
   <g id="patch_2">
    <path d="M 59.495 320.243478 
L 450.095 320.243478 
L 450.095 79.2 
L 59.495 79.2 
z
" style="fill: #ffffff"/>
   </g>
   <g id="matplotlib.axis_1">
    <g id="xtick_1">
     <g id="line2d_1">
      <defs>
       <path id="m1bfb7ead2b" d="M 0 0 
L 0 3.5 
" style="stroke: #000000; stroke-width: 0.8"/>
      </defs>
      <g>
       <use xlink:href="#m1bfb7ead2b" x="106.743972" y="320.243478" style="stroke: #000000; stroke-width: 0.8"/>
      </g>
     </g>
     <g id="text_1">
      <!-- −150 -->
      <g transform="translate(86.143582 338.641135) scale(0.15 -0.15)">
       <defs>
        <path id="DejaVuSans-2212" d="M 678 2272 
L 4684 2272 
L 4684 1741 
L 678 1741 
L 678 2272 
z
" transform="scale(0.015625)"/>
        <path id="DejaVuSans-31" d="M 794 531 
L 1825 531 
L 1825 4091 
L 703 3866 
L 703 4441 
L 1819 4666 
L 2450 4666 
L 2450 531 
L 3481 531 
L 3481 0 
L 794 0 
L 794 531 
z
" transform="scale(0.015625)"/>
        <path id="DejaVuSans-35" d="M 691 4666 
L 3169 4666 
L 3169 4134 
L 1269 4134 
L 1269 2991 
Q 1406 3038 1543 3061 
Q 1681 3084 1819 3084 
Q 2600 3084 3056 2656 
Q 3513 2228 3513 1497 
Q 3513 744 3044 326 
Q 2575 -91 1722 -91 
Q 1428 -91 1123 -41 
Q 819 9 494 109 
L 494 744 
Q 775 591 1075 516 
Q 1375 441 1709 441 
Q 2250 441 2565 725 
Q 2881 1009 2881 1497 
Q 2881 1984 2565 2268 
Q 2250 2553 1709 2553 
Q 1456 2553 1204 2497 
Q 953 2441 691 2322 
L 691 4666 
z
" transform="scale(0.015625)"/>
        <path id="DejaVuSans-30" d="M 2034 4250 
Q 1547 4250 1301 3770 
Q 1056 3291 1056 2328 
Q 1056 1369 1301 889 
Q 1547 409 2034 409 
Q 2525 409 2770 889 
Q 3016 1369 3016 2328 
Q 3016 3291 2770 3770 
Q 2525 4250 2034 4250 
z
M 2034 4750 
Q 2819 4750 3233 4129 
Q 3647 3509 3647 2328 
Q 3647 1150 3233 529 
Q 2819 -91 2034 -91 
Q 1250 -91 836 529 
Q 422 1150 422 2328 
Q 422 3509 836 4129 
Q 1250 4750 2034 4750 
z
" transform="scale(0.015625)"/>
       </defs>
       <use xlink:href="#DejaVuSans-2212"/>
       <use xlink:href="#DejaVuSans-31" transform="translate(83.789062 0)"/>
       <use xlink:href="#DejaVuSans-35" transform="translate(147.412109 0)"/>
       <use xlink:href="#DejaVuSans-30" transform="translate(211.035156 0)"/>
      </g>
     </g>
    </g>
    <g id="xtick_2">
     <g id="line2d_2">
      <g>
       <use xlink:href="#m1bfb7ead2b" x="188.672936" y="320.243478" style="stroke: #000000; stroke-width: 0.8"/>
      </g>
     </g>
     <g id="text_2">
      <!-- −100 -->
      <g transform="translate(168.072545 338.641135) scale(0.15 -0.15)">
       <use xlink:href="#DejaVuSans-2212"/>
       <use xlink:href="#DejaVuSans-31" transform="translate(83.789062 0)"/>
       <use xlink:href="#DejaVuSans-30" transform="translate(147.412109 0)"/>
       <use xlink:href="#DejaVuSans-30" transform="translate(211.035156 0)"/>
      </g>
     </g>
    </g>
    <g id="xtick_3">
     <g id="line2d_3">
      <g>
       <use xlink:href="#m1bfb7ead2b" x="270.601899" y="320.243478" style="stroke: #000000; stroke-width: 0.8"/>
      </g>
     </g>
     <g id="text_3">
      <!-- −50 -->
      <g transform="translate(254.773383 338.641135) scale(0.15 -0.15)">
       <use xlink:href="#DejaVuSans-2212"/>
       <use xlink:href="#DejaVuSans-35" transform="translate(83.789062 0)"/>
       <use xlink:href="#DejaVuSans-30" transform="translate(147.412109 0)"/>
      </g>
     </g>
    </g>
    <g id="xtick_4">
     <g id="line2d_4">
      <g>
       <use xlink:href="#m1bfb7ead2b" x="352.530862" y="320.243478" style="stroke: #000000; stroke-width: 0.8"/>
      </g>
     </g>
     <g id="text_4">
      <!-- 0 -->
      <g transform="translate(347.758987 338.641135) scale(0.15 -0.15)">
       <use xlink:href="#DejaVuSans-30"/>
      </g>
     </g>
    </g>
    <g id="xtick_5">
     <g id="line2d_5">
      <g>
       <use xlink:href="#m1bfb7ead2b" x="434.459826" y="320.243478" style="stroke: #000000; stroke-width: 0.8"/>
      </g>
     </g>
     <g id="text_5">
      <!-- 50 -->
      <g transform="translate(424.916076 338.641135) scale(0.15 -0.15)">
       <use xlink:href="#DejaVuSans-35"/>
       <use xlink:href="#DejaVuSans-30" transform="translate(63.623047 0)"/>
      </g>
     </g>
    </g>
    <g id="text_6">
     <!-- time [hour] -->
     <g transform="translate(197.130313 359.437853) scale(0.18 -0.18)">
      <defs>
       <path id="DejaVuSans-Bold-74" d="M 1759 4494 
L 1759 3500 
L 2913 3500 
L 2913 2700 
L 1759 2700 
L 1759 1216 
Q 1759 972 1856 886 
Q 1953 800 2241 800 
L 2816 800 
L 2816 0 
L 1856 0 
Q 1194 0 917 276 
Q 641 553 641 1216 
L 641 2700 
L 84 2700 
L 84 3500 
L 641 3500 
L 641 4494 
L 1759 4494 
z
" transform="scale(0.015625)"/>
       <path id="DejaVuSans-Bold-69" d="M 538 3500 
L 1656 3500 
L 1656 0 
L 538 0 
L 538 3500 
z
M 538 4863 
L 1656 4863 
L 1656 3950 
L 538 3950 
L 538 4863 
z
" transform="scale(0.015625)"/>
       <path id="DejaVuSans-Bold-6d" d="M 3781 2919 
Q 3994 3244 4286 3414 
Q 4578 3584 4928 3584 
Q 5531 3584 5847 3212 
Q 6163 2841 6163 2131 
L 6163 0 
L 5038 0 
L 5038 1825 
Q 5041 1866 5042 1909 
Q 5044 1953 5044 2034 
Q 5044 2406 4934 2573 
Q 4825 2741 4581 2741 
Q 4263 2741 4089 2478 
Q 3916 2216 3909 1719 
L 3909 0 
L 2784 0 
L 2784 1825 
Q 2784 2406 2684 2573 
Q 2584 2741 2328 2741 
Q 2006 2741 1831 2477 
Q 1656 2213 1656 1722 
L 1656 0 
L 531 0 
L 531 3500 
L 1656 3500 
L 1656 2988 
Q 1863 3284 2130 3434 
Q 2397 3584 2719 3584 
Q 3081 3584 3359 3409 
Q 3638 3234 3781 2919 
z
" transform="scale(0.015625)"/>
       <path id="DejaVuSans-Bold-65" d="M 4031 1759 
L 4031 1441 
L 1416 1441 
Q 1456 1047 1700 850 
Q 1944 653 2381 653 
Q 2734 653 3104 758 
Q 3475 863 3866 1075 
L 3866 213 
Q 3469 63 3072 -14 
Q 2675 -91 2278 -91 
Q 1328 -91 801 392 
Q 275 875 275 1747 
Q 275 2603 792 3093 
Q 1309 3584 2216 3584 
Q 3041 3584 3536 3087 
Q 4031 2591 4031 1759 
z
M 2881 2131 
Q 2881 2450 2695 2645 
Q 2509 2841 2209 2841 
Q 1884 2841 1681 2658 
Q 1478 2475 1428 2131 
L 2881 2131 
z
" transform="scale(0.015625)"/>
       <path id="DejaVuSans-Bold-20" transform="scale(0.015625)"/>
       <path id="DejaVuSans-Bold-5b" d="M 550 4863 
L 2491 4863 
L 2491 4159 
L 1613 4159 
L 1613 -141 
L 2491 -141 
L 2491 -844 
L 550 -844 
L 550 4863 
z
" transform="scale(0.015625)"/>
       <path id="DejaVuSans-Bold-68" d="M 4056 2131 
L 4056 0 
L 2931 0 
L 2931 347 
L 2931 1625 
Q 2931 2084 2911 2256 
Q 2891 2428 2841 2509 
Q 2775 2619 2662 2680 
Q 2550 2741 2406 2741 
Q 2056 2741 1856 2470 
Q 1656 2200 1656 1722 
L 1656 0 
L 538 0 
L 538 4863 
L 1656 4863 
L 1656 2988 
Q 1909 3294 2193 3439 
Q 2478 3584 2822 3584 
Q 3428 3584 3742 3212 
Q 4056 2841 4056 2131 
z
" transform="scale(0.015625)"/>
       <path id="DejaVuSans-Bold-6f" d="M 2203 2784 
Q 1831 2784 1636 2517 
Q 1441 2250 1441 1747 
Q 1441 1244 1636 976 
Q 1831 709 2203 709 
Q 2569 709 2762 976 
Q 2956 1244 2956 1747 
Q 2956 2250 2762 2517 
Q 2569 2784 2203 2784 
z
M 2203 3584 
Q 3106 3584 3614 3096 
Q 4122 2609 4122 1747 
Q 4122 884 3614 396 
Q 3106 -91 2203 -91 
Q 1297 -91 786 396 
Q 275 884 275 1747 
Q 275 2609 786 3096 
Q 1297 3584 2203 3584 
z
" transform="scale(0.015625)"/>
       <path id="DejaVuSans-Bold-75" d="M 500 1363 
L 500 3500 
L 1625 3500 
L 1625 3150 
Q 1625 2866 1622 2436 
Q 1619 2006 1619 1863 
Q 1619 1441 1641 1255 
Q 1663 1069 1716 984 
Q 1784 875 1895 815 
Q 2006 756 2150 756 
Q 2500 756 2700 1025 
Q 2900 1294 2900 1772 
L 2900 3500 
L 4019 3500 
L 4019 0 
L 2900 0 
L 2900 506 
Q 2647 200 2364 54 
Q 2081 -91 1741 -91 
Q 1134 -91 817 281 
Q 500 653 500 1363 
z
" transform="scale(0.015625)"/>
       <path id="DejaVuSans-Bold-72" d="M 3138 2547 
Q 2991 2616 2845 2648 
Q 2700 2681 2553 2681 
Q 2122 2681 1889 2404 
Q 1656 2128 1656 1613 
L 1656 0 
L 538 0 
L 538 3500 
L 1656 3500 
L 1656 2925 
Q 1872 3269 2151 3426 
Q 2431 3584 2822 3584 
Q 2878 3584 2943 3579 
Q 3009 3575 3134 3559 
L 3138 2547 
z
" transform="scale(0.015625)"/>
       <path id="DejaVuSans-Bold-5d" d="M 2375 -844 
L 434 -844 
L 434 -141 
L 1313 -141 
L 1313 4159 
L 434 4159 
L 434 4863 
L 2375 4863 
L 2375 -844 
z
" transform="scale(0.015625)"/>
      </defs>
      <use xlink:href="#DejaVuSans-Bold-74"/>
      <use xlink:href="#DejaVuSans-Bold-69" transform="translate(47.802734 0)"/>
      <use xlink:href="#DejaVuSans-Bold-6d" transform="translate(82.080078 0)"/>
      <use xlink:href="#DejaVuSans-Bold-65" transform="translate(186.279297 0)"/>
      <use xlink:href="#DejaVuSans-Bold-20" transform="translate(254.101562 0)"/>
      <use xlink:href="#DejaVuSans-Bold-5b" transform="translate(288.916016 0)"/>
      <use xlink:href="#DejaVuSans-Bold-68" transform="translate(334.619141 0)"/>
      <use xlink:href="#DejaVuSans-Bold-6f" transform="translate(405.810547 0)"/>
      <use xlink:href="#DejaVuSans-Bold-75" transform="translate(474.511719 0)"/>
      <use xlink:href="#DejaVuSans-Bold-72" transform="translate(545.703125 0)"/>
      <use xlink:href="#DejaVuSans-Bold-5d" transform="translate(595.019531 0)"/>
     </g>
    </g>
   </g>
   <g id="matplotlib.axis_2">
    <g id="ytick_1">
     <g id="line2d_6">
      <defs>
       <path id="m93bf859f7a" d="M 0 0 
L -3.5 0 
" style="stroke: #000000; stroke-width: 0.8"/>
      </defs>
      <g>
       <use xlink:href="#m93bf859f7a" x="59.495" y="309.286957" style="stroke: #000000; stroke-width: 0.8"/>
      </g>
     </g>
     <g id="text_7">
      <!-- 0 -->
      <g transform="translate(42.95125 314.985785) scale(0.15 -0.15)">
       <use xlink:href="#DejaVuSans-30"/>
      </g>
     </g>
    </g>
    <g id="ytick_2">
     <g id="line2d_7">
      <g>
       <use xlink:href="#m93bf859f7a" x="59.495" y="249.343354" style="stroke: #000000; stroke-width: 0.8"/>
      </g>
     </g>
     <g id="text_8">
      <!-- 5 -->
      <g transform="translate(42.95125 255.042183) scale(0.15 -0.15)">
       <use xlink:href="#DejaVuSans-35"/>
      </g>
     </g>
    </g>
    <g id="ytick_3">
     <g id="line2d_8">
      <g>
       <use xlink:href="#m93bf859f7a" x="59.495" y="189.399752" style="stroke: #000000; stroke-width: 0.8"/>
      </g>
     </g>
     <g id="text_9">
      <!-- 10 -->
      <g transform="translate(33.4075 195.09858) scale(0.15 -0.15)">
       <use xlink:href="#DejaVuSans-31"/>
       <use xlink:href="#DejaVuSans-30" transform="translate(63.623047 0)"/>
      </g>
     </g>
    </g>
    <g id="ytick_4">
     <g id="line2d_9">
      <g>
       <use xlink:href="#m93bf859f7a" x="59.495" y="129.45615" style="stroke: #000000; stroke-width: 0.8"/>
      </g>
     </g>
     <g id="text_10">
      <!-- 15 -->
      <g transform="translate(33.4075 135.154978) scale(0.15 -0.15)">
       <use xlink:href="#DejaVuSans-31"/>
       <use xlink:href="#DejaVuSans-35" transform="translate(63.623047 0)"/>
      </g>
     </g>
    </g>
    <g id="text_11">
     <!-- sorafenib (plasma) [µM] -->
     <g transform="translate(25.644375 322.433927) rotate(-90) scale(0.18 -0.18)">
      <defs>
       <path id="DejaVuSans-Bold-73" d="M 3272 3391 
L 3272 2541 
Q 2913 2691 2578 2766 
Q 2244 2841 1947 2841 
Q 1628 2841 1473 2761 
Q 1319 2681 1319 2516 
Q 1319 2381 1436 2309 
Q 1553 2238 1856 2203 
L 2053 2175 
Q 2913 2066 3209 1816 
Q 3506 1566 3506 1031 
Q 3506 472 3093 190 
Q 2681 -91 1863 -91 
Q 1516 -91 1145 -36 
Q 775 19 384 128 
L 384 978 
Q 719 816 1070 734 
Q 1422 653 1784 653 
Q 2113 653 2278 743 
Q 2444 834 2444 1013 
Q 2444 1163 2330 1236 
Q 2216 1309 1875 1350 
L 1678 1375 
Q 931 1469 631 1722 
Q 331 1975 331 2491 
Q 331 3047 712 3315 
Q 1094 3584 1881 3584 
Q 2191 3584 2531 3537 
Q 2872 3491 3272 3391 
z
" transform="scale(0.015625)"/>
       <path id="DejaVuSans-Bold-61" d="M 2106 1575 
Q 1756 1575 1579 1456 
Q 1403 1338 1403 1106 
Q 1403 894 1545 773 
Q 1688 653 1941 653 
Q 2256 653 2472 879 
Q 2688 1106 2688 1447 
L 2688 1575 
L 2106 1575 
z
M 3816 1997 
L 3816 0 
L 2688 0 
L 2688 519 
Q 2463 200 2181 54 
Q 1900 -91 1497 -91 
Q 953 -91 614 226 
Q 275 544 275 1050 
Q 275 1666 698 1953 
Q 1122 2241 2028 2241 
L 2688 2241 
L 2688 2328 
Q 2688 2594 2478 2717 
Q 2269 2841 1825 2841 
Q 1466 2841 1156 2769 
Q 847 2697 581 2553 
L 581 3406 
Q 941 3494 1303 3539 
Q 1666 3584 2028 3584 
Q 2975 3584 3395 3211 
Q 3816 2838 3816 1997 
z
" transform="scale(0.015625)"/>
       <path id="DejaVuSans-Bold-66" d="M 2841 4863 
L 2841 4128 
L 2222 4128 
Q 1984 4128 1890 4042 
Q 1797 3956 1797 3744 
L 1797 3500 
L 2753 3500 
L 2753 2700 
L 1797 2700 
L 1797 0 
L 678 0 
L 678 2700 
L 122 2700 
L 122 3500 
L 678 3500 
L 678 3744 
Q 678 4316 997 4589 
Q 1316 4863 1984 4863 
L 2841 4863 
z
" transform="scale(0.015625)"/>
       <path id="DejaVuSans-Bold-6e" d="M 4056 2131 
L 4056 0 
L 2931 0 
L 2931 347 
L 2931 1631 
Q 2931 2084 2911 2256 
Q 2891 2428 2841 2509 
Q 2775 2619 2662 2680 
Q 2550 2741 2406 2741 
Q 2056 2741 1856 2470 
Q 1656 2200 1656 1722 
L 1656 0 
L 538 0 
L 538 3500 
L 1656 3500 
L 1656 2988 
Q 1909 3294 2193 3439 
Q 2478 3584 2822 3584 
Q 3428 3584 3742 3212 
Q 4056 2841 4056 2131 
z
" transform="scale(0.015625)"/>
       <path id="DejaVuSans-Bold-62" d="M 2400 722 
Q 2759 722 2948 984 
Q 3138 1247 3138 1747 
Q 3138 2247 2948 2509 
Q 2759 2772 2400 2772 
Q 2041 2772 1848 2508 
Q 1656 2244 1656 1747 
Q 1656 1250 1848 986 
Q 2041 722 2400 722 
z
M 1656 2988 
Q 1888 3294 2169 3439 
Q 2450 3584 2816 3584 
Q 3463 3584 3878 3070 
Q 4294 2556 4294 1747 
Q 4294 938 3878 423 
Q 3463 -91 2816 -91 
Q 2450 -91 2169 54 
Q 1888 200 1656 506 
L 1656 0 
L 538 0 
L 538 4863 
L 1656 4863 
L 1656 2988 
z
" transform="scale(0.015625)"/>
       <path id="DejaVuSans-Bold-28" d="M 2413 -844 
L 1484 -844 
Q 1006 -72 778 623 
Q 550 1319 550 2003 
Q 550 2688 779 3389 
Q 1009 4091 1484 4856 
L 2413 4856 
Q 2013 4116 1813 3408 
Q 1613 2700 1613 2009 
Q 1613 1319 1811 609 
Q 2009 -100 2413 -844 
z
" transform="scale(0.015625)"/>
       <path id="DejaVuSans-Bold-70" d="M 1656 506 
L 1656 -1331 
L 538 -1331 
L 538 3500 
L 1656 3500 
L 1656 2988 
Q 1888 3294 2169 3439 
Q 2450 3584 2816 3584 
Q 3463 3584 3878 3070 
Q 4294 2556 4294 1747 
Q 4294 938 3878 423 
Q 3463 -91 2816 -91 
Q 2450 -91 2169 54 
Q 1888 200 1656 506 
z
M 2400 2772 
Q 2041 2772 1848 2508 
Q 1656 2244 1656 1747 
Q 1656 1250 1848 986 
Q 2041 722 2400 722 
Q 2759 722 2948 984 
Q 3138 1247 3138 1747 
Q 3138 2247 2948 2509 
Q 2759 2772 2400 2772 
z
" transform="scale(0.015625)"/>
       <path id="DejaVuSans-Bold-6c" d="M 538 4863 
L 1656 4863 
L 1656 0 
L 538 0 
L 538 4863 
z
" transform="scale(0.015625)"/>
       <path id="DejaVuSans-Bold-29" d="M 513 -844 
Q 913 -100 1113 609 
Q 1313 1319 1313 2009 
Q 1313 2700 1113 3408 
Q 913 4116 513 4856 
L 1441 4856 
Q 1916 4091 2145 3389 
Q 2375 2688 2375 2003 
Q 2375 1319 2147 623 
Q 1919 -72 1441 -844 
L 513 -844 
z
" transform="scale(0.015625)"/>
       <path id="DejaVuSans-Bold-b5" d="M 544 -1338 
L 544 3500 
L 1672 3500 
L 1672 1466 
Q 1672 1103 1828 926 
Q 1984 750 2303 750 
Q 2625 750 2781 926 
Q 2938 1103 2938 1466 
L 2938 3500 
L 4063 3500 
L 4063 1159 
Q 4063 938 4114 850 
Q 4166 763 4288 763 
Q 4344 763 4395 778 
Q 4447 794 4506 831 
L 4506 50 
Q 4341 -22 4195 -56 
Q 4050 -91 3909 -91 
Q 3631 -91 3454 26 
Q 3278 144 3169 403 
Q 3022 156 2811 32 
Q 2600 -91 2322 -91 
Q 2091 -91 1928 -17 
Q 1766 56 1672 206 
L 1672 -1338 
L 544 -1338 
z
" transform="scale(0.015625)"/>
       <path id="DejaVuSans-Bold-4d" d="M 588 4666 
L 2119 4666 
L 3181 2169 
L 4250 4666 
L 5778 4666 
L 5778 0 
L 4641 0 
L 4641 3413 
L 3566 897 
L 2803 897 
L 1728 3413 
L 1728 0 
L 588 0 
L 588 4666 
z
" transform="scale(0.015625)"/>
      </defs>
      <use xlink:href="#DejaVuSans-Bold-73"/>
      <use xlink:href="#DejaVuSans-Bold-6f" transform="translate(59.521484 0)"/>
      <use xlink:href="#DejaVuSans-Bold-72" transform="translate(128.222656 0)"/>
      <use xlink:href="#DejaVuSans-Bold-61" transform="translate(177.539062 0)"/>
      <use xlink:href="#DejaVuSans-Bold-66" transform="translate(245.019531 0)"/>
      <use xlink:href="#DejaVuSans-Bold-65" transform="translate(288.525391 0)"/>
      <use xlink:href="#DejaVuSans-Bold-6e" transform="translate(356.347656 0)"/>
      <use xlink:href="#DejaVuSans-Bold-69" transform="translate(427.539062 0)"/>
      <use xlink:href="#DejaVuSans-Bold-62" transform="translate(461.816406 0)"/>
      <use xlink:href="#DejaVuSans-Bold-20" transform="translate(533.398438 0)"/>
      <use xlink:href="#DejaVuSans-Bold-28" transform="translate(568.212891 0)"/>
      <use xlink:href="#DejaVuSans-Bold-70" transform="translate(613.916016 0)"/>
      <use xlink:href="#DejaVuSans-Bold-6c" transform="translate(685.498047 0)"/>
      <use xlink:href="#DejaVuSans-Bold-61" transform="translate(719.775391 0)"/>
      <use xlink:href="#DejaVuSans-Bold-73" transform="translate(787.255859 0)"/>
      <use xlink:href="#DejaVuSans-Bold-6d" transform="translate(846.777344 0)"/>
      <use xlink:href="#DejaVuSans-Bold-61" transform="translate(950.976562 0)"/>
      <use xlink:href="#DejaVuSans-Bold-29" transform="translate(1018.457031 0)"/>
      <use xlink:href="#DejaVuSans-Bold-20" transform="translate(1064.160156 0)"/>
      <use xlink:href="#DejaVuSans-Bold-5b" transform="translate(1098.974609 0)"/>
      <use xlink:href="#DejaVuSans-Bold-b5" transform="translate(1144.677734 0)"/>
      <use xlink:href="#DejaVuSans-Bold-4d" transform="translate(1218.261719 0)"/>
      <use xlink:href="#DejaVuSans-Bold-5d" transform="translate(1317.773438 0)"/>
     </g>
    </g>
   </g>
   <g id="LineCollection_1">
    <path clip-path="url(#p40081b2231)" style="fill: none; stroke: #fada24"/>
    <path clip-path="url(#p40081b2231)" style="fill: none; stroke: #fada24"/>
    <path clip-path="url(#p40081b2231)" style="fill: none; stroke: #fada24"/>
    <path clip-path="url(#p40081b2231)" style="fill: none; stroke: #fada24"/>
    <path clip-path="url(#p40081b2231)" style="fill: none; stroke: #fada24"/>
    <path clip-path="url(#p40081b2231)" style="fill: none; stroke: #fada24"/>
    <path clip-path="url(#p40081b2231)" style="fill: none; stroke: #fada24"/>
   </g>
   <g id="line2d_10">
    <path d="M 77.249545 309.286957 
L 77.446175 309.215454 
L 77.839434 308.716826 
L 78.429323 307.370932 
L 79.6091 303.786394 
L 81.182136 299.198508 
L 82.165283 296.943367 
L 83.148431 295.211604 
L 84.131578 293.949193 
L 85.114726 293.076942 
L 86.097873 292.514227 
L 87.081021 292.189293 
L 88.260798 292.030317 
L 89.637205 292.064888 
L 91.6035 292.362993 
L 94.552943 293.06889 
L 110.283303 297.135582 
L 116.575448 298.488416 
L 116.575448 298.488416 
L 116.772077 298.456504 
L 117.165336 298.035348 
L 117.755225 296.800306 
L 118.935002 293.417974 
L 120.311409 289.557758 
L 121.294556 287.343082 
L 122.277704 285.65568 
L 123.260851 284.453578 
L 124.243999 283.660984 
L 125.227146 283.19639 
L 126.210294 282.985299 
L 127.390071 282.97907 
L 128.766478 283.207328 
L 130.732773 283.798089 
L 133.878845 285.034021 
L 144.496839 289.35386 
L 150.395724 291.453401 
L 155.90135 293.211444 
L 155.90135 293.211444 
L 156.09798 293.199155 
L 156.491239 292.816414 
L 157.081127 291.636391 
L 158.064275 288.928548 
L 159.637311 284.600539 
L 160.620459 282.458594 
L 161.603606 280.843686 
L 162.586754 279.714952 
L 163.373272 279.111716 
L 164.356419 278.663556 
L 165.339567 278.484066 
L 166.519344 278.531798 
L 167.895751 278.839127 
L 169.665416 279.479139 
L 172.418229 280.737964 
L 183.822741 286.167074 
L 189.328367 288.454221 
L 195.030623 290.582358 
L 195.423882 290.648966 
L 195.817141 290.28499 
L 196.40703 289.131854 
L 197.390177 286.465355 
L 198.963213 282.197108 
L 199.946361 280.090724 
L 200.929509 278.511233 
L 201.716027 277.601363 
L 202.502545 276.965324 
L 203.289063 276.561034 
L 204.27221 276.319902 
L 205.255358 276.307022 
L 206.435135 276.511556 
L 208.008171 277.033786 
L 210.171096 278.012781 
L 214.693574 280.37818 
L 220.985719 283.594399 
L 226.294716 286.052666 
L 231.800342 288.352576 
L 234.749785 289.416337 
L 235.143044 289.061462 
L 235.732932 287.921368 
L 236.71608 285.274932 
L 238.289116 281.035688 
L 239.272263 278.946559 
L 240.255411 277.384245 
L 241.041929 276.488244 
L 241.828447 275.866254 
L 242.614965 275.476209 
L 243.598113 275.253131 
L 244.58126 275.258515 
L 245.761037 275.485118 
L 247.334073 276.036789 
L 249.496998 277.055795 
L 254.216106 279.608831 
L 260.311621 282.818375 
L 265.620618 285.352535 
L 270.929615 287.642656 
L 274.075687 288.821572 
L 274.468946 288.471095 
L 275.058835 287.337306 
L 276.041982 284.700568 
L 277.615018 280.475346 
L 278.598166 278.394559 
L 279.581313 276.840546 
L 280.367831 275.951247 
L 281.154349 275.336045 
L 281.940868 274.952882 
L 282.924015 274.738525 
L 283.907163 274.75273 
L 285.08694 274.989992 
L 286.659976 275.555881 
L 288.8229 276.594208 
L 293.542009 279.187493 
L 299.637524 282.444154 
L 304.94652 285.014945 
L 310.255517 287.33799 
L 313.401589 288.534825 
L 313.794848 288.186471 
L 314.384737 287.055723 
L 315.367885 284.423665 
L 316.940921 280.205211 
L 317.924068 278.128448 
L 318.907216 276.578441 
L 319.693734 275.692375 
L 320.480252 275.080448 
L 321.26677 274.700605 
L 322.249918 274.490455 
L 323.233065 274.508915 
L 324.412842 274.751317 
L 325.985878 275.324065 
L 328.148803 276.371709 
L 332.867911 278.984406 
L 338.963426 282.263789 
L 344.075793 284.760945 
L 349.38479 287.108732 
L 352.727492 288.396635 
L 353.120751 288.049303 
L 353.710639 286.920022 
L 354.693787 284.290221 
L 356.266823 280.075029 
L 357.249971 278.000207 
L 358.233118 276.452131 
L 359.019636 275.567624 
L 359.806154 274.957276 
L 360.592672 274.579033 
L 361.57582 274.370911 
L 362.558967 274.391422 
L 363.738745 274.636302 
L 365.311781 275.212355 
L 367.474705 276.264491 
L 372.193814 278.886545 
L 378.289328 282.176878 
L 383.401696 284.682247 
L 388.710693 287.037715 
L 392.053394 288.33005 
L 392.446653 287.983212 
L 393.036542 286.854638 
L 394.019689 284.225923 
L 395.592726 280.012304 
L 396.575873 277.938417 
L 397.559021 276.391272 
L 398.345539 275.507516 
L 399.132057 274.897929 
L 399.918575 274.520457 
L 400.901722 274.313312 
L 401.88487 274.334811 
L 403.064647 274.580886 
L 404.637683 275.158532 
L 406.800608 276.212833 
L 411.519716 278.839394 
L 417.615231 282.135005 
L 422.727598 284.644331 
L 428.036595 287.0035 
L 431.182667 288.291802 
L 431.182667 288.291802 
" clip-path="url(#p40081b2231)" style="fill: none; stroke: #fada24; stroke-width: 2; stroke-linecap: square"/>
   </g>
   <g id="line2d_11">
    <path d="M 352.59397 265.046193 
L 356.291847 172.219812 
L 362.845356 222.730286 
L 392.202643 235.535845 
L 395.832559 123.764161 
L 402.460096 90.156522 
L 432.340455 213.854899 
" clip-path="url(#p40081b2231)" style="fill: none; stroke-dasharray: 3.7,1.6; stroke-dashoffset: 0; stroke: #fada24"/>
    <defs>
     <path id="mc37139096f" d="M -3 3 
L 3 3 
L 3 -3 
L -3 -3 
z
" style="stroke: #000000; stroke-linejoin: miter"/>
    </defs>
    <g clip-path="url(#p40081b2231)">
     <use xlink:href="#mc37139096f" x="352.59397" y="265.046193" style="fill: #fada24; stroke: #000000; stroke-linejoin: miter"/>
     <use xlink:href="#mc37139096f" x="356.291847" y="172.219812" style="fill: #fada24; stroke: #000000; stroke-linejoin: miter"/>
     <use xlink:href="#mc37139096f" x="362.845356" y="222.730286" style="fill: #fada24; stroke: #000000; stroke-linejoin: miter"/>
     <use xlink:href="#mc37139096f" x="392.202643" y="235.535845" style="fill: #fada24; stroke: #000000; stroke-linejoin: miter"/>
     <use xlink:href="#mc37139096f" x="395.832559" y="123.764161" style="fill: #fada24; stroke: #000000; stroke-linejoin: miter"/>
     <use xlink:href="#mc37139096f" x="402.460096" y="90.156522" style="fill: #fada24; stroke: #000000; stroke-linejoin: miter"/>
     <use xlink:href="#mc37139096f" x="432.340455" y="213.854899" style="fill: #fada24; stroke: #000000; stroke-linejoin: miter"/>
    </g>
   </g>
   <g id="patch_3">
    <path d="M 59.495 320.243478 
L 59.495 79.2 
" style="fill: none; stroke: #000000; stroke-width: 0.8; stroke-linejoin: miter; stroke-linecap: square"/>
   </g>
   <g id="patch_4">
    <path d="M 450.095 320.243478 
L 450.095 79.2 
" style="fill: none; stroke: #000000; stroke-width: 0.8; stroke-linejoin: miter; stroke-linecap: square"/>
   </g>
   <g id="patch_5">
    <path d="M 59.495 320.243478 
L 450.095 320.243478 
" style="fill: none; stroke: #000000; stroke-width: 0.8; stroke-linejoin: miter; stroke-linecap: square"/>
   </g>
   <g id="patch_6">
    <path d="M 59.495 79.2 
L 450.095 79.2 
" style="fill: none; stroke: #000000; stroke-width: 0.8; stroke-linejoin: miter; stroke-linecap: square"/>
   </g>
   <g id="legend_1">
    <g id="patch_7">
     <path d="M 66.495 116.834375 
L 253.712188 116.834375 
Q 255.712188 116.834375 255.712188 114.834375 
L 255.712188 86.2 
Q 255.712188 84.2 253.712188 84.2 
L 66.495 84.2 
Q 64.495 84.2 64.495 86.2 
L 64.495 114.834375 
Q 64.495 116.834375 66.495 116.834375 
z
" style="fill: #ffffff; opacity: 0.8; stroke: #cccccc; stroke-linejoin: miter"/>
    </g>
    <g id="line2d_12">
     <path d="M 68.495 92.298437 
L 88.495 92.298437 
" style="fill: none; stroke: #fada24; stroke-width: 2; stroke-linecap: square"/>
    </g>
    <g id="line2d_13"/>
    <g id="text_12">
     <!-- Sim 200 [mg] (sor) -->
     <g transform="translate(96.495 95.798437) scale(0.1 -0.1)">
      <defs>
       <path id="DejaVuSans-53" d="M 3425 4513 
L 3425 3897 
Q 3066 4069 2747 4153 
Q 2428 4238 2131 4238 
Q 1616 4238 1336 4038 
Q 1056 3838 1056 3469 
Q 1056 3159 1242 3001 
Q 1428 2844 1947 2747 
L 2328 2669 
Q 3034 2534 3370 2195 
Q 3706 1856 3706 1288 
Q 3706 609 3251 259 
Q 2797 -91 1919 -91 
Q 1588 -91 1214 -16 
Q 841 59 441 206 
L 441 856 
Q 825 641 1194 531 
Q 1563 422 1919 422 
Q 2459 422 2753 634 
Q 3047 847 3047 1241 
Q 3047 1584 2836 1778 
Q 2625 1972 2144 2069 
L 1759 2144 
Q 1053 2284 737 2584 
Q 422 2884 422 3419 
Q 422 4038 858 4394 
Q 1294 4750 2059 4750 
Q 2388 4750 2728 4690 
Q 3069 4631 3425 4513 
z
" transform="scale(0.015625)"/>
       <path id="DejaVuSans-69" d="M 603 3500 
L 1178 3500 
L 1178 0 
L 603 0 
L 603 3500 
z
M 603 4863 
L 1178 4863 
L 1178 4134 
L 603 4134 
L 603 4863 
z
" transform="scale(0.015625)"/>
       <path id="DejaVuSans-6d" d="M 3328 2828 
Q 3544 3216 3844 3400 
Q 4144 3584 4550 3584 
Q 5097 3584 5394 3201 
Q 5691 2819 5691 2113 
L 5691 0 
L 5113 0 
L 5113 2094 
Q 5113 2597 4934 2840 
Q 4756 3084 4391 3084 
Q 3944 3084 3684 2787 
Q 3425 2491 3425 1978 
L 3425 0 
L 2847 0 
L 2847 2094 
Q 2847 2600 2669 2842 
Q 2491 3084 2119 3084 
Q 1678 3084 1418 2786 
Q 1159 2488 1159 1978 
L 1159 0 
L 581 0 
L 581 3500 
L 1159 3500 
L 1159 2956 
Q 1356 3278 1631 3431 
Q 1906 3584 2284 3584 
Q 2666 3584 2933 3390 
Q 3200 3197 3328 2828 
z
" transform="scale(0.015625)"/>
       <path id="DejaVuSans-20" transform="scale(0.015625)"/>
       <path id="DejaVuSans-32" d="M 1228 531 
L 3431 531 
L 3431 0 
L 469 0 
L 469 531 
Q 828 903 1448 1529 
Q 2069 2156 2228 2338 
Q 2531 2678 2651 2914 
Q 2772 3150 2772 3378 
Q 2772 3750 2511 3984 
Q 2250 4219 1831 4219 
Q 1534 4219 1204 4116 
Q 875 4013 500 3803 
L 500 4441 
Q 881 4594 1212 4672 
Q 1544 4750 1819 4750 
Q 2544 4750 2975 4387 
Q 3406 4025 3406 3419 
Q 3406 3131 3298 2873 
Q 3191 2616 2906 2266 
Q 2828 2175 2409 1742 
Q 1991 1309 1228 531 
z
" transform="scale(0.015625)"/>
       <path id="DejaVuSans-5b" d="M 550 4863 
L 1875 4863 
L 1875 4416 
L 1125 4416 
L 1125 -397 
L 1875 -397 
L 1875 -844 
L 550 -844 
L 550 4863 
z
" transform="scale(0.015625)"/>
       <path id="DejaVuSans-67" d="M 2906 1791 
Q 2906 2416 2648 2759 
Q 2391 3103 1925 3103 
Q 1463 3103 1205 2759 
Q 947 2416 947 1791 
Q 947 1169 1205 825 
Q 1463 481 1925 481 
Q 2391 481 2648 825 
Q 2906 1169 2906 1791 
z
M 3481 434 
Q 3481 -459 3084 -895 
Q 2688 -1331 1869 -1331 
Q 1566 -1331 1297 -1286 
Q 1028 -1241 775 -1147 
L 775 -588 
Q 1028 -725 1275 -790 
Q 1522 -856 1778 -856 
Q 2344 -856 2625 -561 
Q 2906 -266 2906 331 
L 2906 616 
Q 2728 306 2450 153 
Q 2172 0 1784 0 
Q 1141 0 747 490 
Q 353 981 353 1791 
Q 353 2603 747 3093 
Q 1141 3584 1784 3584 
Q 2172 3584 2450 3431 
Q 2728 3278 2906 2969 
L 2906 3500 
L 3481 3500 
L 3481 434 
z
" transform="scale(0.015625)"/>
       <path id="DejaVuSans-5d" d="M 1947 4863 
L 1947 -844 
L 622 -844 
L 622 -397 
L 1369 -397 
L 1369 4416 
L 622 4416 
L 622 4863 
L 1947 4863 
z
" transform="scale(0.015625)"/>
       <path id="DejaVuSans-28" d="M 1984 4856 
Q 1566 4138 1362 3434 
Q 1159 2731 1159 2009 
Q 1159 1288 1364 580 
Q 1569 -128 1984 -844 
L 1484 -844 
Q 1016 -109 783 600 
Q 550 1309 550 2009 
Q 550 2706 781 3412 
Q 1013 4119 1484 4856 
L 1984 4856 
z
" transform="scale(0.015625)"/>
       <path id="DejaVuSans-73" d="M 2834 3397 
L 2834 2853 
Q 2591 2978 2328 3040 
Q 2066 3103 1784 3103 
Q 1356 3103 1142 2972 
Q 928 2841 928 2578 
Q 928 2378 1081 2264 
Q 1234 2150 1697 2047 
L 1894 2003 
Q 2506 1872 2764 1633 
Q 3022 1394 3022 966 
Q 3022 478 2636 193 
Q 2250 -91 1575 -91 
Q 1294 -91 989 -36 
Q 684 19 347 128 
L 347 722 
Q 666 556 975 473 
Q 1284 391 1588 391 
Q 1994 391 2212 530 
Q 2431 669 2431 922 
Q 2431 1156 2273 1281 
Q 2116 1406 1581 1522 
L 1381 1569 
Q 847 1681 609 1914 
Q 372 2147 372 2553 
Q 372 3047 722 3315 
Q 1072 3584 1716 3584 
Q 2034 3584 2315 3537 
Q 2597 3491 2834 3397 
z
" transform="scale(0.015625)"/>
       <path id="DejaVuSans-6f" d="M 1959 3097 
Q 1497 3097 1228 2736 
Q 959 2375 959 1747 
Q 959 1119 1226 758 
Q 1494 397 1959 397 
Q 2419 397 2687 759 
Q 2956 1122 2956 1747 
Q 2956 2369 2687 2733 
Q 2419 3097 1959 3097 
z
M 1959 3584 
Q 2709 3584 3137 3096 
Q 3566 2609 3566 1747 
Q 3566 888 3137 398 
Q 2709 -91 1959 -91 
Q 1206 -91 779 398 
Q 353 888 353 1747 
Q 353 2609 779 3096 
Q 1206 3584 1959 3584 
z
" transform="scale(0.015625)"/>
       <path id="DejaVuSans-72" d="M 2631 2963 
Q 2534 3019 2420 3045 
Q 2306 3072 2169 3072 
Q 1681 3072 1420 2755 
Q 1159 2438 1159 1844 
L 1159 0 
L 581 0 
L 581 3500 
L 1159 3500 
L 1159 2956 
Q 1341 3275 1631 3429 
Q 1922 3584 2338 3584 
Q 2397 3584 2469 3576 
Q 2541 3569 2628 3553 
L 2631 2963 
z
" transform="scale(0.015625)"/>
       <path id="DejaVuSans-29" d="M 513 4856 
L 1013 4856 
Q 1481 4119 1714 3412 
Q 1947 2706 1947 2009 
Q 1947 1309 1714 600 
Q 1481 -109 1013 -844 
L 513 -844 
Q 928 -128 1133 580 
Q 1338 1288 1338 2009 
Q 1338 2731 1133 3434 
Q 928 4138 513 4856 
z
" transform="scale(0.015625)"/>
      </defs>
      <use xlink:href="#DejaVuSans-53"/>
      <use xlink:href="#DejaVuSans-69" transform="translate(63.476562 0)"/>
      <use xlink:href="#DejaVuSans-6d" transform="translate(91.259766 0)"/>
      <use xlink:href="#DejaVuSans-20" transform="translate(188.671875 0)"/>
      <use xlink:href="#DejaVuSans-32" transform="translate(220.458984 0)"/>
      <use xlink:href="#DejaVuSans-30" transform="translate(284.082031 0)"/>
      <use xlink:href="#DejaVuSans-30" transform="translate(347.705078 0)"/>
      <use xlink:href="#DejaVuSans-20" transform="translate(411.328125 0)"/>
      <use xlink:href="#DejaVuSans-5b" transform="translate(443.115234 0)"/>
      <use xlink:href="#DejaVuSans-6d" transform="translate(482.128906 0)"/>
      <use xlink:href="#DejaVuSans-67" transform="translate(579.541016 0)"/>
      <use xlink:href="#DejaVuSans-5d" transform="translate(643.017578 0)"/>
      <use xlink:href="#DejaVuSans-20" transform="translate(682.03125 0)"/>
      <use xlink:href="#DejaVuSans-28" transform="translate(713.818359 0)"/>
      <use xlink:href="#DejaVuSans-73" transform="translate(752.832031 0)"/>
      <use xlink:href="#DejaVuSans-6f" transform="translate(804.931641 0)"/>
      <use xlink:href="#DejaVuSans-72" transform="translate(866.113281 0)"/>
      <use xlink:href="#DejaVuSans-29" transform="translate(907.226562 0)"/>
     </g>
    </g>
    <g id="LineCollection_2">
     <path d="M 78.495 111.976562 
L 78.495 101.976562 
" style="fill: none; stroke: #fada24"/>
    </g>
    <g id="line2d_14">
     <path d="M 68.495 106.976562 
L 88.495 106.976562 
" style="fill: none; stroke-dasharray: 3.7,1.6; stroke-dashoffset: 0; stroke: #fada24"/>
    </g>
    <g id="line2d_15">
     <g>
      <use xlink:href="#mc37139096f" x="78.495" y="106.976562" style="fill: #fada24; stroke: #000000; stroke-linejoin: miter"/>
     </g>
    </g>
    <g id="text_13">
     <!--  200 [mg] (SOF_sor)±SD (n=1) -->
     <g transform="translate(96.495 110.476562) scale(0.1 -0.1)">
      <defs>
       <path id="DejaVuSans-4f" d="M 2522 4238 
Q 1834 4238 1429 3725 
Q 1025 3213 1025 2328 
Q 1025 1447 1429 934 
Q 1834 422 2522 422 
Q 3209 422 3611 934 
Q 4013 1447 4013 2328 
Q 4013 3213 3611 3725 
Q 3209 4238 2522 4238 
z
M 2522 4750 
Q 3503 4750 4090 4092 
Q 4678 3434 4678 2328 
Q 4678 1225 4090 567 
Q 3503 -91 2522 -91 
Q 1538 -91 948 565 
Q 359 1222 359 2328 
Q 359 3434 948 4092 
Q 1538 4750 2522 4750 
z
" transform="scale(0.015625)"/>
       <path id="DejaVuSans-46" d="M 628 4666 
L 3309 4666 
L 3309 4134 
L 1259 4134 
L 1259 2759 
L 3109 2759 
L 3109 2228 
L 1259 2228 
L 1259 0 
L 628 0 
L 628 4666 
z
" transform="scale(0.015625)"/>
       <path id="DejaVuSans-5f" d="M 3263 -1063 
L 3263 -1509 
L -63 -1509 
L -63 -1063 
L 3263 -1063 
z
" transform="scale(0.015625)"/>
       <path id="DejaVuSans-b1" d="M 2944 4013 
L 2944 2803 
L 4684 2803 
L 4684 2272 
L 2944 2272 
L 2944 1063 
L 2419 1063 
L 2419 2272 
L 678 2272 
L 678 2803 
L 2419 2803 
L 2419 4013 
L 2944 4013 
z
M 678 531 
L 4684 531 
L 4684 0 
L 678 0 
L 678 531 
z
" transform="scale(0.015625)"/>
       <path id="DejaVuSans-44" d="M 1259 4147 
L 1259 519 
L 2022 519 
Q 2988 519 3436 956 
Q 3884 1394 3884 2338 
Q 3884 3275 3436 3711 
Q 2988 4147 2022 4147 
L 1259 4147 
z
M 628 4666 
L 1925 4666 
Q 3281 4666 3915 4102 
Q 4550 3538 4550 2338 
Q 4550 1131 3912 565 
Q 3275 0 1925 0 
L 628 0 
L 628 4666 
z
" transform="scale(0.015625)"/>
       <path id="DejaVuSans-6e" d="M 3513 2113 
L 3513 0 
L 2938 0 
L 2938 2094 
Q 2938 2591 2744 2837 
Q 2550 3084 2163 3084 
Q 1697 3084 1428 2787 
Q 1159 2491 1159 1978 
L 1159 0 
L 581 0 
L 581 3500 
L 1159 3500 
L 1159 2956 
Q 1366 3272 1645 3428 
Q 1925 3584 2291 3584 
Q 2894 3584 3203 3211 
Q 3513 2838 3513 2113 
z
" transform="scale(0.015625)"/>
       <path id="DejaVuSans-3d" d="M 678 2906 
L 4684 2906 
L 4684 2381 
L 678 2381 
L 678 2906 
z
M 678 1631 
L 4684 1631 
L 4684 1100 
L 678 1100 
L 678 1631 
z
" transform="scale(0.015625)"/>
      </defs>
      <use xlink:href="#DejaVuSans-20"/>
      <use xlink:href="#DejaVuSans-32" transform="translate(31.787109 0)"/>
      <use xlink:href="#DejaVuSans-30" transform="translate(95.410156 0)"/>
      <use xlink:href="#DejaVuSans-30" transform="translate(159.033203 0)"/>
      <use xlink:href="#DejaVuSans-20" transform="translate(222.65625 0)"/>
      <use xlink:href="#DejaVuSans-5b" transform="translate(254.443359 0)"/>
      <use xlink:href="#DejaVuSans-6d" transform="translate(293.457031 0)"/>
      <use xlink:href="#DejaVuSans-67" transform="translate(390.869141 0)"/>
      <use xlink:href="#DejaVuSans-5d" transform="translate(454.345703 0)"/>
      <use xlink:href="#DejaVuSans-20" transform="translate(493.359375 0)"/>
      <use xlink:href="#DejaVuSans-28" transform="translate(525.146484 0)"/>
      <use xlink:href="#DejaVuSans-53" transform="translate(564.160156 0)"/>
      <use xlink:href="#DejaVuSans-4f" transform="translate(627.636719 0)"/>
      <use xlink:href="#DejaVuSans-46" transform="translate(706.347656 0)"/>
      <use xlink:href="#DejaVuSans-5f" transform="translate(763.867188 0)"/>
      <use xlink:href="#DejaVuSans-73" transform="translate(813.867188 0)"/>
      <use xlink:href="#DejaVuSans-6f" transform="translate(865.966797 0)"/>
      <use xlink:href="#DejaVuSans-72" transform="translate(927.148438 0)"/>
      <use xlink:href="#DejaVuSans-29" transform="translate(968.261719 0)"/>
      <use xlink:href="#DejaVuSans-b1" transform="translate(1007.275391 0)"/>
      <use xlink:href="#DejaVuSans-53" transform="translate(1091.064453 0)"/>
      <use xlink:href="#DejaVuSans-44" transform="translate(1154.541016 0)"/>
      <use xlink:href="#DejaVuSans-20" transform="translate(1231.542969 0)"/>
      <use xlink:href="#DejaVuSans-28" transform="translate(1263.330078 0)"/>
      <use xlink:href="#DejaVuSans-6e" transform="translate(1302.34375 0)"/>
      <use xlink:href="#DejaVuSans-3d" transform="translate(1365.722656 0)"/>
      <use xlink:href="#DejaVuSans-31" transform="translate(1449.511719 0)"/>
      <use xlink:href="#DejaVuSans-29" transform="translate(1513.134766 0)"/>
     </g>
    </g>
   </g>
  </g>
  <g id="axes_2">
   <g id="patch_8">
    <path d="M 59.495 633.6 
L 450.095 633.6 
L 450.095 392.556522 
L 59.495 392.556522 
z
" style="fill: #ffffff"/>
   </g>
   <g id="matplotlib.axis_3">
    <g id="xtick_6">
     <g id="line2d_16">
      <g>
       <use xlink:href="#m1bfb7ead2b" x="106.777983" y="633.6" style="stroke: #000000; stroke-width: 0.8"/>
      </g>
     </g>
     <g id="text_14">
      <!-- −150 -->
      <g transform="translate(86.177592 651.997656) scale(0.15 -0.15)">
       <use xlink:href="#DejaVuSans-2212"/>
       <use xlink:href="#DejaVuSans-31" transform="translate(83.789062 0)"/>
       <use xlink:href="#DejaVuSans-35" transform="translate(147.412109 0)"/>
       <use xlink:href="#DejaVuSans-30" transform="translate(211.035156 0)"/>
      </g>
     </g>
    </g>
    <g id="xtick_7">
     <g id="line2d_17">
      <g>
       <use xlink:href="#m1bfb7ead2b" x="188.80142" y="633.6" style="stroke: #000000; stroke-width: 0.8"/>
      </g>
     </g>
     <g id="text_15">
      <!-- −100 -->
      <g transform="translate(168.201029 651.997656) scale(0.15 -0.15)">
       <use xlink:href="#DejaVuSans-2212"/>
       <use xlink:href="#DejaVuSans-31" transform="translate(83.789062 0)"/>
       <use xlink:href="#DejaVuSans-30" transform="translate(147.412109 0)"/>
       <use xlink:href="#DejaVuSans-30" transform="translate(211.035156 0)"/>
      </g>
     </g>
    </g>
    <g id="xtick_8">
     <g id="line2d_18">
      <g>
       <use xlink:href="#m1bfb7ead2b" x="270.824857" y="633.6" style="stroke: #000000; stroke-width: 0.8"/>
      </g>
     </g>
     <g id="text_16">
      <!-- −50 -->
      <g transform="translate(254.996341 651.997656) scale(0.15 -0.15)">
       <use xlink:href="#DejaVuSans-2212"/>
       <use xlink:href="#DejaVuSans-35" transform="translate(83.789062 0)"/>
       <use xlink:href="#DejaVuSans-30" transform="translate(147.412109 0)"/>
      </g>
     </g>
    </g>
    <g id="xtick_9">
     <g id="line2d_19">
      <g>
       <use xlink:href="#m1bfb7ead2b" x="352.848294" y="633.6" style="stroke: #000000; stroke-width: 0.8"/>
      </g>
     </g>
     <g id="text_17">
      <!-- 0 -->
      <g transform="translate(348.076419 651.997656) scale(0.15 -0.15)">
       <use xlink:href="#DejaVuSans-30"/>
      </g>
     </g>
    </g>
    <g id="xtick_10">
     <g id="line2d_20">
      <g>
       <use xlink:href="#m1bfb7ead2b" x="434.871731" y="633.6" style="stroke: #000000; stroke-width: 0.8"/>
      </g>
     </g>
     <g id="text_18">
      <!-- 50 -->
      <g transform="translate(425.327981 651.997656) scale(0.15 -0.15)">
       <use xlink:href="#DejaVuSans-35"/>
       <use xlink:href="#DejaVuSans-30" transform="translate(63.623047 0)"/>
      </g>
     </g>
    </g>
    <g id="text_19">
     <!-- time [hour] -->
     <g transform="translate(197.130313 672.794375) scale(0.18 -0.18)">
      <use xlink:href="#DejaVuSans-Bold-74"/>
      <use xlink:href="#DejaVuSans-Bold-69" transform="translate(47.802734 0)"/>
      <use xlink:href="#DejaVuSans-Bold-6d" transform="translate(82.080078 0)"/>
      <use xlink:href="#DejaVuSans-Bold-65" transform="translate(186.279297 0)"/>
      <use xlink:href="#DejaVuSans-Bold-20" transform="translate(254.101562 0)"/>
      <use xlink:href="#DejaVuSans-Bold-5b" transform="translate(288.916016 0)"/>
      <use xlink:href="#DejaVuSans-Bold-68" transform="translate(334.619141 0)"/>
      <use xlink:href="#DejaVuSans-Bold-6f" transform="translate(405.810547 0)"/>
      <use xlink:href="#DejaVuSans-Bold-75" transform="translate(474.511719 0)"/>
      <use xlink:href="#DejaVuSans-Bold-72" transform="translate(545.703125 0)"/>
      <use xlink:href="#DejaVuSans-Bold-5d" transform="translate(595.019531 0)"/>
     </g>
    </g>
   </g>
   <g id="matplotlib.axis_4">
    <g id="ytick_5">
     <g id="line2d_21">
      <g>
       <use xlink:href="#m93bf859f7a" x="59.495" y="622.643478" style="stroke: #000000; stroke-width: 0.8"/>
      </g>
     </g>
     <g id="text_20">
      <!-- 0.0 -->
      <g transform="translate(28.640313 628.342306) scale(0.15 -0.15)">
       <defs>
        <path id="DejaVuSans-2e" d="M 684 794 
L 1344 794 
L 1344 0 
L 684 0 
L 684 794 
z
" transform="scale(0.015625)"/>
       </defs>
       <use xlink:href="#DejaVuSans-30"/>
       <use xlink:href="#DejaVuSans-2e" transform="translate(63.623047 0)"/>
       <use xlink:href="#DejaVuSans-30" transform="translate(95.410156 0)"/>
      </g>
     </g>
    </g>
    <g id="ytick_6">
     <g id="line2d_22">
      <g>
       <use xlink:href="#m93bf859f7a" x="59.495" y="574.459699" style="stroke: #000000; stroke-width: 0.8"/>
      </g>
     </g>
     <g id="text_21">
      <!-- 0.5 -->
      <g transform="translate(28.640313 580.158527) scale(0.15 -0.15)">
       <use xlink:href="#DejaVuSans-30"/>
       <use xlink:href="#DejaVuSans-2e" transform="translate(63.623047 0)"/>
       <use xlink:href="#DejaVuSans-35" transform="translate(95.410156 0)"/>
      </g>
     </g>
    </g>
    <g id="ytick_7">
     <g id="line2d_23">
      <g>
       <use xlink:href="#m93bf859f7a" x="59.495" y="526.275919" style="stroke: #000000; stroke-width: 0.8"/>
      </g>
     </g>
     <g id="text_22">
      <!-- 1.0 -->
      <g transform="translate(28.640313 531.974747) scale(0.15 -0.15)">
       <use xlink:href="#DejaVuSans-31"/>
       <use xlink:href="#DejaVuSans-2e" transform="translate(63.623047 0)"/>
       <use xlink:href="#DejaVuSans-30" transform="translate(95.410156 0)"/>
      </g>
     </g>
    </g>
    <g id="ytick_8">
     <g id="line2d_24">
      <g>
       <use xlink:href="#m93bf859f7a" x="59.495" y="478.09214" style="stroke: #000000; stroke-width: 0.8"/>
      </g>
     </g>
     <g id="text_23">
      <!-- 1.5 -->
      <g transform="translate(28.640313 483.790968) scale(0.15 -0.15)">
       <use xlink:href="#DejaVuSans-31"/>
       <use xlink:href="#DejaVuSans-2e" transform="translate(63.623047 0)"/>
       <use xlink:href="#DejaVuSans-35" transform="translate(95.410156 0)"/>
      </g>
     </g>
    </g>
    <g id="ytick_9">
     <g id="line2d_25">
      <g>
       <use xlink:href="#m93bf859f7a" x="59.495" y="429.90836" style="stroke: #000000; stroke-width: 0.8"/>
      </g>
     </g>
     <g id="text_24">
      <!-- 2.0 -->
      <g transform="translate(28.640313 435.607188) scale(0.15 -0.15)">
       <use xlink:href="#DejaVuSans-32"/>
       <use xlink:href="#DejaVuSans-2e" transform="translate(63.623047 0)"/>
       <use xlink:href="#DejaVuSans-30" transform="translate(95.410156 0)"/>
      </g>
     </g>
    </g>
    <g id="text_25">
     <!-- M2 (plasma) [µM] -->
     <g transform="translate(20.877187 603.00373) rotate(-90) scale(0.18 -0.18)">
      <defs>
       <path id="DejaVuSans-Bold-32" d="M 1844 884 
L 3897 884 
L 3897 0 
L 506 0 
L 506 884 
L 2209 2388 
Q 2438 2594 2547 2791 
Q 2656 2988 2656 3200 
Q 2656 3528 2436 3728 
Q 2216 3928 1850 3928 
Q 1569 3928 1234 3808 
Q 900 3688 519 3450 
L 519 4475 
Q 925 4609 1322 4679 
Q 1719 4750 2100 4750 
Q 2938 4750 3402 4381 
Q 3866 4013 3866 3353 
Q 3866 2972 3669 2642 
Q 3472 2313 2841 1759 
L 1844 884 
z
" transform="scale(0.015625)"/>
      </defs>
      <use xlink:href="#DejaVuSans-Bold-4d"/>
      <use xlink:href="#DejaVuSans-Bold-32" transform="translate(99.511719 0)"/>
      <use xlink:href="#DejaVuSans-Bold-20" transform="translate(169.091797 0)"/>
      <use xlink:href="#DejaVuSans-Bold-28" transform="translate(203.90625 0)"/>
      <use xlink:href="#DejaVuSans-Bold-70" transform="translate(249.609375 0)"/>
      <use xlink:href="#DejaVuSans-Bold-6c" transform="translate(321.191406 0)"/>
      <use xlink:href="#DejaVuSans-Bold-61" transform="translate(355.46875 0)"/>
      <use xlink:href="#DejaVuSans-Bold-73" transform="translate(422.949219 0)"/>
      <use xlink:href="#DejaVuSans-Bold-6d" transform="translate(482.470703 0)"/>
      <use xlink:href="#DejaVuSans-Bold-61" transform="translate(586.669922 0)"/>
      <use xlink:href="#DejaVuSans-Bold-29" transform="translate(654.150391 0)"/>
      <use xlink:href="#DejaVuSans-Bold-20" transform="translate(699.853516 0)"/>
      <use xlink:href="#DejaVuSans-Bold-5b" transform="translate(734.667969 0)"/>
      <use xlink:href="#DejaVuSans-Bold-b5" transform="translate(780.371094 0)"/>
      <use xlink:href="#DejaVuSans-Bold-4d" transform="translate(853.955078 0)"/>
      <use xlink:href="#DejaVuSans-Bold-5d" transform="translate(953.466797 0)"/>
     </g>
    </g>
   </g>
   <g id="LineCollection_3">
    <path clip-path="url(#p83ded2121c)" style="fill: none; stroke: #fada24"/>
    <path clip-path="url(#p83ded2121c)" style="fill: none; stroke: #fada24"/>
    <path clip-path="url(#p83ded2121c)" style="fill: none; stroke: #fada24"/>
    <path clip-path="url(#p83ded2121c)" style="fill: none; stroke: #fada24"/>
    <path clip-path="url(#p83ded2121c)" style="fill: none; stroke: #fada24"/>
    <path clip-path="url(#p83ded2121c)" style="fill: none; stroke: #fada24"/>
    <path clip-path="url(#p83ded2121c)" style="fill: none; stroke: #fada24"/>
   </g>
   <g id="line2d_26">
    <path d="M 77.249545 622.643478 
L 77.643258 622.599802 
L 78.03697 622.278355 
L 78.430683 621.52762 
L 79.021252 619.607777 
L 79.808677 615.988393 
L 82.564664 602.260941 
L 83.548945 598.664472 
L 84.533227 595.934197 
L 85.320652 594.307141 
L 86.108077 593.101525 
L 86.895502 592.247586 
L 87.682927 591.680687 
L 88.470352 591.344034 
L 89.454633 591.174389 
L 90.63577 591.241229 
L 92.013764 591.570772 
L 93.78547 592.232828 
L 96.738314 593.608075 
L 107.171695 598.622646 
L 112.68367 600.962475 
L 117.014508 602.597919 
L 117.40822 602.427809 
L 117.801933 601.832302 
L 118.195645 600.80496 
L 118.786214 598.606695 
L 119.967351 592.979734 
L 121.542201 585.636187 
L 122.526483 581.995547 
L 123.510764 579.226128 
L 124.298189 577.595849 
L 125.085614 576.419385 
L 125.873039 575.627586 
L 126.660464 575.153373 
L 127.447889 574.936086 
L 128.235314 574.923212 
L 129.219595 575.12812 
L 130.400733 575.609143 
L 131.975583 576.50905 
L 134.337858 578.148662 
L 146.542945 586.990364 
L 151.267495 589.993938 
L 155.992045 592.744973 
L 155.992045 592.744973 
L 156.385757 592.921111 
L 156.77947 592.824493 
L 157.173182 592.304344 
L 157.566895 591.353386 
L 158.157464 589.269378 
L 159.338601 583.861008 
L 160.913451 576.780702 
L 161.897732 573.291469 
L 162.882014 570.667266 
L 163.669439 569.150477 
L 164.456864 568.086126 
L 165.244289 567.405644 
L 166.031714 567.042269 
L 166.819139 566.935474 
L 167.606564 567.032753 
L 168.590845 567.374758 
L 169.771982 568.019127 
L 171.346832 569.134119 
L 173.905964 571.259316 
L 183.748776 579.674228 
L 188.27647 583.150582 
L 192.804163 586.347821 
L 195.757007 588.249746 
L 196.15072 588.18867 
L 196.544432 587.70496 
L 196.938145 586.790938 
L 197.528713 584.762185 
L 198.512995 580.389152 
L 200.284701 572.506665 
L 201.268982 569.0907 
L 202.253263 566.536749 
L 203.040688 565.074844 
L 203.828113 564.064697 
L 204.615538 563.438021 
L 205.402963 563.128212 
L 206.190388 563.074809 
L 206.977813 563.22531 
L 207.962095 563.633554 
L 209.340088 564.496021 
L 211.111795 565.910262 
L 214.064638 568.602962 
L 221.545176 575.490795 
L 226.072869 579.304121 
L 230.403707 582.667387 
L 234.931401 585.900484 
L 235.325113 586.022764 
L 235.718826 585.775792 
L 236.112538 585.089726 
L 236.703107 583.328821 
L 237.490532 580.07375 
L 239.852807 569.701787 
L 240.837088 566.492954 
L 241.624513 564.545184 
L 242.411938 563.109768 
L 243.199363 562.125778 
L 243.986788 561.525065 
L 244.774213 561.241102 
L 245.561638 561.213458 
L 246.349063 561.389635 
L 247.333344 561.829834 
L 248.711338 562.736682 
L 250.483044 564.207138 
L 253.632744 567.181893 
L 260.522713 573.733082 
L 264.85355 577.522983 
L 269.184388 581.024961 
L 273.712082 584.395764 
L 274.499507 584.911372 
L 274.893219 584.875721 
L 275.286932 584.418076 
L 275.680644 583.530474 
L 276.271213 581.541249 
L 277.255494 577.231702 
L 279.0272 569.452577 
L 280.011482 566.089045 
L 280.798907 564.019006 
L 281.586332 562.473478 
L 282.373757 561.395578 
L 283.161182 560.717985 
L 283.948607 560.373256 
L 284.736032 560.299206 
L 285.523457 560.441283 
L 286.507738 560.853058 
L 287.688875 561.596427 
L 289.263725 562.860636 
L 291.822857 565.249099 
L 301.271956 574.307747 
L 305.602794 578.056888 
L 309.933631 581.517966 
L 313.6739 584.285582 
L 314.067613 584.419961 
L 314.461325 584.185411 
L 314.855038 583.512018 
L 315.445606 581.770228 
L 316.233031 578.540077 
L 318.595306 568.235128 
L 319.579588 565.051326 
L 320.367013 563.122875 
L 321.154438 561.706388 
L 321.941863 560.741088 
L 322.729288 560.158925 
L 323.516713 559.893426 
L 324.304138 559.884185 
L 325.091563 560.078706 
L 326.075844 560.541733 
L 327.453838 561.480284 
L 329.225544 562.990899 
L 332.375244 566.0348 
L 339.265212 572.725117 
L 343.59605 576.593821 
L 347.926887 580.168393 
L 352.454581 583.60897 
L 353.242006 584.136147 
L 353.635719 584.106404 
L 354.029431 583.654814 
L 354.423144 582.773351 
L 355.013712 580.793309 
L 355.997994 576.498514 
L 357.7697 568.743409 
L 358.753981 565.392061 
L 359.541406 563.331394 
L 360.328831 561.795028 
L 361.116256 560.726158 
L 361.903681 560.057518 
L 362.691106 559.721696 
L 363.478531 559.656521 
L 364.265956 559.807445 
L 365.250237 560.230231 
L 366.431375 560.986725 
L 368.006225 562.268226 
L 370.565356 564.684102 
L 379.8176 573.655324 
L 384.148437 577.454999 
L 388.479275 580.963003 
L 392.4164 583.91069 
L 392.810112 584.047879 
L 393.203825 583.816214 
L 393.597537 583.145763 
L 394.188106 581.408412 
L 394.975531 578.184046 
L 397.337806 567.89466 
L 398.322087 564.716671 
L 399.109512 562.792706 
L 399.896937 561.380614 
L 400.684362 560.419655 
L 401.471787 559.841798 
L 402.259212 559.580586 
L 403.046637 559.575618 
L 403.834062 559.774398 
L 404.818343 560.242725 
L 406.196337 561.188637 
L 407.968043 562.708576 
L 411.117743 565.76853 
L 417.810856 572.307386 
L 422.141693 576.20796 
L 426.472531 579.81253 
L 430.803368 583.13726 
L 431.590793 583.713308 
L 431.590793 583.713308 
" clip-path="url(#p83ded2121c)" style="fill: none; stroke: #fada24; stroke-width: 2; stroke-linecap: square"/>
   </g>
   <g id="line2d_27">
    <path d="M 352.882314 619.791217 
L 356.55651 528.628568 
L 362.680171 531.700233 
L 392.636295 571.412482 
L 395.943555 464.452692 
L 402.411064 403.513043 
L 432.340455 551.830612 
" clip-path="url(#p83ded2121c)" style="fill: none; stroke-dasharray: 3.7,1.6; stroke-dashoffset: 0; stroke: #fada24"/>
    <g clip-path="url(#p83ded2121c)">
     <use xlink:href="#mc37139096f" x="352.882314" y="619.791217" style="fill: #fada24; stroke: #000000; stroke-linejoin: miter"/>
     <use xlink:href="#mc37139096f" x="356.55651" y="528.628568" style="fill: #fada24; stroke: #000000; stroke-linejoin: miter"/>
     <use xlink:href="#mc37139096f" x="362.680171" y="531.700233" style="fill: #fada24; stroke: #000000; stroke-linejoin: miter"/>
     <use xlink:href="#mc37139096f" x="392.636295" y="571.412482" style="fill: #fada24; stroke: #000000; stroke-linejoin: miter"/>
     <use xlink:href="#mc37139096f" x="395.943555" y="464.452692" style="fill: #fada24; stroke: #000000; stroke-linejoin: miter"/>
     <use xlink:href="#mc37139096f" x="402.411064" y="403.513043" style="fill: #fada24; stroke: #000000; stroke-linejoin: miter"/>
     <use xlink:href="#mc37139096f" x="432.340455" y="551.830612" style="fill: #fada24; stroke: #000000; stroke-linejoin: miter"/>
    </g>
   </g>
   <g id="patch_9">
    <path d="M 59.495 633.6 
L 59.495 392.556522 
" style="fill: none; stroke: #000000; stroke-width: 0.8; stroke-linejoin: miter; stroke-linecap: square"/>
   </g>
   <g id="patch_10">
    <path d="M 450.095 633.6 
L 450.095 392.556522 
" style="fill: none; stroke: #000000; stroke-width: 0.8; stroke-linejoin: miter; stroke-linecap: square"/>
   </g>
   <g id="patch_11">
    <path d="M 59.495 633.6 
L 450.095 633.6 
" style="fill: none; stroke: #000000; stroke-width: 0.8; stroke-linejoin: miter; stroke-linecap: square"/>
   </g>
   <g id="patch_12">
    <path d="M 59.495 392.556522 
L 450.095 392.556522 
" style="fill: none; stroke: #000000; stroke-width: 0.8; stroke-linejoin: miter; stroke-linecap: square"/>
   </g>
   <g id="legend_2">
    <g id="patch_13">
     <path d="M 66.495 430.190897 
L 254.37625 430.190897 
Q 256.37625 430.190897 256.37625 428.190897 
L 256.37625 399.556522 
Q 256.37625 397.556522 254.37625 397.556522 
L 66.495 397.556522 
Q 64.495 397.556522 64.495 399.556522 
L 64.495 428.190897 
Q 64.495 430.190897 66.495 430.190897 
z
" style="fill: #ffffff; opacity: 0.8; stroke: #cccccc; stroke-linejoin: miter"/>
    </g>
    <g id="line2d_28">
     <path d="M 68.495 405.654959 
L 88.495 405.654959 
" style="fill: none; stroke: #fada24; stroke-width: 2; stroke-linecap: square"/>
    </g>
    <g id="line2d_29"/>
    <g id="text_26">
     <!-- Sim 200 [mg] (m2) -->
     <g transform="translate(96.495 409.154959) scale(0.1 -0.1)">
      <use xlink:href="#DejaVuSans-53"/>
      <use xlink:href="#DejaVuSans-69" transform="translate(63.476562 0)"/>
      <use xlink:href="#DejaVuSans-6d" transform="translate(91.259766 0)"/>
      <use xlink:href="#DejaVuSans-20" transform="translate(188.671875 0)"/>
      <use xlink:href="#DejaVuSans-32" transform="translate(220.458984 0)"/>
      <use xlink:href="#DejaVuSans-30" transform="translate(284.082031 0)"/>
      <use xlink:href="#DejaVuSans-30" transform="translate(347.705078 0)"/>
      <use xlink:href="#DejaVuSans-20" transform="translate(411.328125 0)"/>
      <use xlink:href="#DejaVuSans-5b" transform="translate(443.115234 0)"/>
      <use xlink:href="#DejaVuSans-6d" transform="translate(482.128906 0)"/>
      <use xlink:href="#DejaVuSans-67" transform="translate(579.541016 0)"/>
      <use xlink:href="#DejaVuSans-5d" transform="translate(643.017578 0)"/>
      <use xlink:href="#DejaVuSans-20" transform="translate(682.03125 0)"/>
      <use xlink:href="#DejaVuSans-28" transform="translate(713.818359 0)"/>
      <use xlink:href="#DejaVuSans-6d" transform="translate(752.832031 0)"/>
      <use xlink:href="#DejaVuSans-32" transform="translate(850.244141 0)"/>
      <use xlink:href="#DejaVuSans-29" transform="translate(913.867188 0)"/>
     </g>
    </g>
    <g id="LineCollection_4">
     <path d="M 78.495 425.333084 
L 78.495 415.333084 
" style="fill: none; stroke: #fada24"/>
    </g>
    <g id="line2d_30">
     <path d="M 68.495 420.333084 
L 88.495 420.333084 
" style="fill: none; stroke-dasharray: 3.7,1.6; stroke-dashoffset: 0; stroke: #fada24"/>
    </g>
    <g id="line2d_31">
     <g>
      <use xlink:href="#mc37139096f" x="78.495" y="420.333084" style="fill: #fada24; stroke: #000000; stroke-linejoin: miter"/>
     </g>
    </g>
    <g id="text_27">
     <!--  200 [mg] (SOF_m2)±SD (n=1) -->
     <g transform="translate(96.495 423.833084) scale(0.1 -0.1)">
      <use xlink:href="#DejaVuSans-20"/>
      <use xlink:href="#DejaVuSans-32" transform="translate(31.787109 0)"/>
      <use xlink:href="#DejaVuSans-30" transform="translate(95.410156 0)"/>
      <use xlink:href="#DejaVuSans-30" transform="translate(159.033203 0)"/>
      <use xlink:href="#DejaVuSans-20" transform="translate(222.65625 0)"/>
      <use xlink:href="#DejaVuSans-5b" transform="translate(254.443359 0)"/>
      <use xlink:href="#DejaVuSans-6d" transform="translate(293.457031 0)"/>
      <use xlink:href="#DejaVuSans-67" transform="translate(390.869141 0)"/>
      <use xlink:href="#DejaVuSans-5d" transform="translate(454.345703 0)"/>
      <use xlink:href="#DejaVuSans-20" transform="translate(493.359375 0)"/>
      <use xlink:href="#DejaVuSans-28" transform="translate(525.146484 0)"/>
      <use xlink:href="#DejaVuSans-53" transform="translate(564.160156 0)"/>
      <use xlink:href="#DejaVuSans-4f" transform="translate(627.636719 0)"/>
      <use xlink:href="#DejaVuSans-46" transform="translate(706.347656 0)"/>
      <use xlink:href="#DejaVuSans-5f" transform="translate(763.867188 0)"/>
      <use xlink:href="#DejaVuSans-6d" transform="translate(813.867188 0)"/>
      <use xlink:href="#DejaVuSans-32" transform="translate(911.279297 0)"/>
      <use xlink:href="#DejaVuSans-29" transform="translate(974.902344 0)"/>
      <use xlink:href="#DejaVuSans-b1" transform="translate(1013.916016 0)"/>
      <use xlink:href="#DejaVuSans-53" transform="translate(1097.705078 0)"/>
      <use xlink:href="#DejaVuSans-44" transform="translate(1161.181641 0)"/>
      <use xlink:href="#DejaVuSans-20" transform="translate(1238.183594 0)"/>
      <use xlink:href="#DejaVuSans-28" transform="translate(1269.970703 0)"/>
      <use xlink:href="#DejaVuSans-6e" transform="translate(1308.984375 0)"/>
      <use xlink:href="#DejaVuSans-3d" transform="translate(1372.363281 0)"/>
      <use xlink:href="#DejaVuSans-31" transform="translate(1456.152344 0)"/>
      <use xlink:href="#DejaVuSans-29" transform="translate(1519.775391 0)"/>
     </g>
    </g>
   </g>
  </g>
  <g id="text_28">
   <!-- Ishii2014 -->
   <g transform="translate(184.147344 26.196094) scale(0.25 -0.25)">
    <defs>
     <path id="DejaVuSans-Bold-49" d="M 588 4666 
L 1791 4666 
L 1791 0 
L 588 0 
L 588 4666 
z
" transform="scale(0.015625)"/>
     <path id="DejaVuSans-Bold-30" d="M 2944 2338 
Q 2944 3213 2780 3570 
Q 2616 3928 2228 3928 
Q 1841 3928 1675 3570 
Q 1509 3213 1509 2338 
Q 1509 1453 1675 1090 
Q 1841 728 2228 728 
Q 2613 728 2778 1090 
Q 2944 1453 2944 2338 
z
M 4147 2328 
Q 4147 1169 3647 539 
Q 3147 -91 2228 -91 
Q 1306 -91 806 539 
Q 306 1169 306 2328 
Q 306 3491 806 4120 
Q 1306 4750 2228 4750 
Q 3147 4750 3647 4120 
Q 4147 3491 4147 2328 
z
" transform="scale(0.015625)"/>
     <path id="DejaVuSans-Bold-31" d="M 750 831 
L 1813 831 
L 1813 3847 
L 722 3622 
L 722 4441 
L 1806 4666 
L 2950 4666 
L 2950 831 
L 4013 831 
L 4013 0 
L 750 0 
L 750 831 
z
" transform="scale(0.015625)"/>
     <path id="DejaVuSans-Bold-34" d="M 2356 3675 
L 1038 1722 
L 2356 1722 
L 2356 3675 
z
M 2156 4666 
L 3494 4666 
L 3494 1722 
L 4159 1722 
L 4159 850 
L 3494 850 
L 3494 0 
L 2356 0 
L 2356 850 
L 288 850 
L 288 1881 
L 2156 4666 
z
" transform="scale(0.015625)"/>
    </defs>
    <use xlink:href="#DejaVuSans-Bold-49"/>
    <use xlink:href="#DejaVuSans-Bold-73" transform="translate(37.207031 0)"/>
    <use xlink:href="#DejaVuSans-Bold-68" transform="translate(96.728516 0)"/>
    <use xlink:href="#DejaVuSans-Bold-69" transform="translate(167.919922 0)"/>
    <use xlink:href="#DejaVuSans-Bold-69" transform="translate(202.197266 0)"/>
    <use xlink:href="#DejaVuSans-Bold-32" transform="translate(236.474609 0)"/>
    <use xlink:href="#DejaVuSans-Bold-30" transform="translate(306.054688 0)"/>
    <use xlink:href="#DejaVuSans-Bold-31" transform="translate(375.634766 0)"/>
    <use xlink:href="#DejaVuSans-Bold-34" transform="translate(445.214844 0)"/>
   </g>
  </g>
 </g>
 <defs>
  <clipPath id="p40081b2231">
   <rect x="59.495" y="79.2" width="390.6" height="241.043478"/>
  </clipPath>
  <clipPath id="p83ded2121c">
   <rect x="59.495" y="392.556522" width="390.6" height="241.043478"/>
  </clipPath>
 </defs>
</svg>
