<?xml version="1.0" encoding="utf-8" standalone="no"?>
<!DOCTYPE svg PUBLIC "-//W3C//DTD SVG 1.1//EN"
  "http://www.w3.org/Graphics/SVG/1.1/DTD/svg11.dtd">
<svg xmlns:xlink="http://www.w3.org/1999/xlink" width="452.527813pt" height="683.737812pt" viewBox="0 0 452.527813 683.737812" xmlns="http://www.w3.org/2000/svg" version="1.1">
 <metadata>
  <rdf:RDF xmlns:dc="http://purl.org/dc/elements/1.1/" xmlns:cc="http://creativecommons.org/ns#" xmlns:rdf="http://www.w3.org/1999/02/22-rdf-syntax-ns#">
   <cc:Work>
    <dc:type rdf:resource="http://purl.org/dc/dcmitype/StillImage"/>
    <dc:date>2026-01-12T13:09:38.490867</dc:date>
    <dc:format>image/svg+xml</dc:format>
    <dc:creator>
     <cc:Agent>
      <dc:title>Matplotlib v3.10.7, https://matplotlib.org/</dc:title>
     </cc:Agent>
    </dc:creator>
   </cc:Work>
  </rdf:RDF>
 </metadata>
 <defs>
  <style type="text/css">*{stroke-linejoin: round; stroke-linecap: butt}</style>
 </defs>
 <g id="figure_1">
  <g id="patch_1">
   <path d="M 0 683.737812 
L 452.527813 683.737812 
L 452.527813 0 
L 0 0 
z
" style="fill: #ffffff"/>
  </g>
  <g id="axes_1">
   <g id="patch_2">
    <path d="M 54.727813 320.243478 
L 445.327813 320.243478 
L 445.327813 79.2 
L 54.727813 79.2 
z
" style="fill: #ffffff"/>
   </g>
   <g id="matplotlib.axis_1">
    <g id="xtick_1">
     <g id="line2d_1">
      <defs>
       <path id="m94f7b186d0" d="M 0 0 
L 0 3.5 
" style="stroke: #000000; stroke-width: 0.8"/>
      </defs>
      <g>
       <use xlink:href="#m94f7b186d0" x="58.673267" y="320.243478" style="stroke: #000000; stroke-width: 0.8"/>
      </g>
     </g>
     <g id="text_1">
      <!-- −175 -->
      <g transform="translate(38.072876 338.641135) scale(0.15 -0.15)">
       <defs>
        <path id="DejaVuSans-2212" d="M 678 2272 
L 4684 2272 
L 4684 1741 
L 678 1741 
L 678 2272 
z
" transform="scale(0.015625)"/>
        <path id="DejaVuSans-31" d="M 794 531 
L 1825 531 
L 1825 4091 
L 703 3866 
L 703 4441 
L 1819 4666 
L 2450 4666 
L 2450 531 
L 3481 531 
L 3481 0 
L 794 0 
L 794 531 
z
" transform="scale(0.015625)"/>
        <path id="DejaVuSans-37" d="M 525 4666 
L 3525 4666 
L 3525 4397 
L 1831 0 
L 1172 0 
L 2766 4134 
L 525 4134 
L 525 4666 
z
" transform="scale(0.015625)"/>
        <path id="DejaVuSans-35" d="M 691 4666 
L 3169 4666 
L 3169 4134 
L 1269 4134 
L 1269 2991 
Q 1406 3038 1543 3061 
Q 1681 3084 1819 3084 
Q 2600 3084 3056 2656 
Q 3513 2228 3513 1497 
Q 3513 744 3044 326 
Q 2575 -91 1722 -91 
Q 1428 -91 1123 -41 
Q 819 9 494 109 
L 494 744 
Q 775 591 1075 516 
Q 1375 441 1709 441 
Q 2250 441 2565 725 
Q 2881 1009 2881 1497 
Q 2881 1984 2565 2268 
Q 2250 2553 1709 2553 
Q 1456 2553 1204 2497 
Q 953 2441 691 2322 
L 691 4666 
z
" transform="scale(0.015625)"/>
       </defs>
       <use xlink:href="#DejaVuSans-2212"/>
       <use xlink:href="#DejaVuSans-31" transform="translate(83.789062 0)"/>
       <use xlink:href="#DejaVuSans-37" transform="translate(147.412109 0)"/>
       <use xlink:href="#DejaVuSans-35" transform="translate(211.035156 0)"/>
      </g>
     </g>
    </g>
    <g id="xtick_2">
     <g id="line2d_2">
      <g>
       <use xlink:href="#m94f7b186d0" x="107.991449" y="320.243478" style="stroke: #000000; stroke-width: 0.8"/>
      </g>
     </g>
     <g id="text_2">
      <!-- −150 -->
      <g transform="translate(87.391058 338.641135) scale(0.15 -0.15)">
       <defs>
        <path id="DejaVuSans-30" d="M 2034 4250 
Q 1547 4250 1301 3770 
Q 1056 3291 1056 2328 
Q 1056 1369 1301 889 
Q 1547 409 2034 409 
Q 2525 409 2770 889 
Q 3016 1369 3016 2328 
Q 3016 3291 2770 3770 
Q 2525 4250 2034 4250 
z
M 2034 4750 
Q 2819 4750 3233 4129 
Q 3647 3509 3647 2328 
Q 3647 1150 3233 529 
Q 2819 -91 2034 -91 
Q 1250 -91 836 529 
Q 422 1150 422 2328 
Q 422 3509 836 4129 
Q 1250 4750 2034 4750 
z
" transform="scale(0.015625)"/>
       </defs>
       <use xlink:href="#DejaVuSans-2212"/>
       <use xlink:href="#DejaVuSans-31" transform="translate(83.789062 0)"/>
       <use xlink:href="#DejaVuSans-35" transform="translate(147.412109 0)"/>
       <use xlink:href="#DejaVuSans-30" transform="translate(211.035156 0)"/>
      </g>
     </g>
    </g>
    <g id="xtick_3">
     <g id="line2d_3">
      <g>
       <use xlink:href="#m94f7b186d0" x="157.309631" y="320.243478" style="stroke: #000000; stroke-width: 0.8"/>
      </g>
     </g>
     <g id="text_3">
      <!-- −125 -->
      <g transform="translate(136.70924 338.641135) scale(0.15 -0.15)">
       <defs>
        <path id="DejaVuSans-32" d="M 1228 531 
L 3431 531 
L 3431 0 
L 469 0 
L 469 531 
Q 828 903 1448 1529 
Q 2069 2156 2228 2338 
Q 2531 2678 2651 2914 
Q 2772 3150 2772 3378 
Q 2772 3750 2511 3984 
Q 2250 4219 1831 4219 
Q 1534 4219 1204 4116 
Q 875 4013 500 3803 
L 500 4441 
Q 881 4594 1212 4672 
Q 1544 4750 1819 4750 
Q 2544 4750 2975 4387 
Q 3406 4025 3406 3419 
Q 3406 3131 3298 2873 
Q 3191 2616 2906 2266 
Q 2828 2175 2409 1742 
Q 1991 1309 1228 531 
z
" transform="scale(0.015625)"/>
       </defs>
       <use xlink:href="#DejaVuSans-2212"/>
       <use xlink:href="#DejaVuSans-31" transform="translate(83.789062 0)"/>
       <use xlink:href="#DejaVuSans-32" transform="translate(147.412109 0)"/>
       <use xlink:href="#DejaVuSans-35" transform="translate(211.035156 0)"/>
      </g>
     </g>
    </g>
    <g id="xtick_4">
     <g id="line2d_4">
      <g>
       <use xlink:href="#m94f7b186d0" x="206.627813" y="320.243478" style="stroke: #000000; stroke-width: 0.8"/>
      </g>
     </g>
     <g id="text_4">
      <!-- −100 -->
      <g transform="translate(186.027422 338.641135) scale(0.15 -0.15)">
       <use xlink:href="#DejaVuSans-2212"/>
       <use xlink:href="#DejaVuSans-31" transform="translate(83.789062 0)"/>
       <use xlink:href="#DejaVuSans-30" transform="translate(147.412109 0)"/>
       <use xlink:href="#DejaVuSans-30" transform="translate(211.035156 0)"/>
      </g>
     </g>
    </g>
    <g id="xtick_5">
     <g id="line2d_5">
      <g>
       <use xlink:href="#m94f7b186d0" x="255.945994" y="320.243478" style="stroke: #000000; stroke-width: 0.8"/>
      </g>
     </g>
     <g id="text_5">
      <!-- −75 -->
      <g transform="translate(240.117479 338.641135) scale(0.15 -0.15)">
       <use xlink:href="#DejaVuSans-2212"/>
       <use xlink:href="#DejaVuSans-37" transform="translate(83.789062 0)"/>
       <use xlink:href="#DejaVuSans-35" transform="translate(147.412109 0)"/>
      </g>
     </g>
    </g>
    <g id="xtick_6">
     <g id="line2d_6">
      <g>
       <use xlink:href="#m94f7b186d0" x="305.264176" y="320.243478" style="stroke: #000000; stroke-width: 0.8"/>
      </g>
     </g>
     <g id="text_6">
      <!-- −50 -->
      <g transform="translate(289.435661 338.641135) scale(0.15 -0.15)">
       <use xlink:href="#DejaVuSans-2212"/>
       <use xlink:href="#DejaVuSans-35" transform="translate(83.789062 0)"/>
       <use xlink:href="#DejaVuSans-30" transform="translate(147.412109 0)"/>
      </g>
     </g>
    </g>
    <g id="xtick_7">
     <g id="line2d_7">
      <g>
       <use xlink:href="#m94f7b186d0" x="354.582358" y="320.243478" style="stroke: #000000; stroke-width: 0.8"/>
      </g>
     </g>
     <g id="text_7">
      <!-- −25 -->
      <g transform="translate(338.753842 338.641135) scale(0.15 -0.15)">
       <use xlink:href="#DejaVuSans-2212"/>
       <use xlink:href="#DejaVuSans-32" transform="translate(83.789062 0)"/>
       <use xlink:href="#DejaVuSans-35" transform="translate(147.412109 0)"/>
      </g>
     </g>
    </g>
    <g id="xtick_8">
     <g id="line2d_8">
      <g>
       <use xlink:href="#m94f7b186d0" x="403.90054" y="320.243478" style="stroke: #000000; stroke-width: 0.8"/>
      </g>
     </g>
     <g id="text_8">
      <!-- 0 -->
      <g transform="translate(399.128665 338.641135) scale(0.15 -0.15)">
       <use xlink:href="#DejaVuSans-30"/>
      </g>
     </g>
    </g>
    <g id="text_9">
     <!-- time [hr] -->
     <g transform="translate(204.953281 359.437853) scale(0.18 -0.18)">
      <defs>
       <path id="DejaVuSans-Bold-74" d="M 1759 4494 
L 1759 3500 
L 2913 3500 
L 2913 2700 
L 1759 2700 
L 1759 1216 
Q 1759 972 1856 886 
Q 1953 800 2241 800 
L 2816 800 
L 2816 0 
L 1856 0 
Q 1194 0 917 276 
Q 641 553 641 1216 
L 641 2700 
L 84 2700 
L 84 3500 
L 641 3500 
L 641 4494 
L 1759 4494 
z
" transform="scale(0.015625)"/>
       <path id="DejaVuSans-Bold-69" d="M 538 3500 
L 1656 3500 
L 1656 0 
L 538 0 
L 538 3500 
z
M 538 4863 
L 1656 4863 
L 1656 3950 
L 538 3950 
L 538 4863 
z
" transform="scale(0.015625)"/>
       <path id="DejaVuSans-Bold-6d" d="M 3781 2919 
Q 3994 3244 4286 3414 
Q 4578 3584 4928 3584 
Q 5531 3584 5847 3212 
Q 6163 2841 6163 2131 
L 6163 0 
L 5038 0 
L 5038 1825 
Q 5041 1866 5042 1909 
Q 5044 1953 5044 2034 
Q 5044 2406 4934 2573 
Q 4825 2741 4581 2741 
Q 4263 2741 4089 2478 
Q 3916 2216 3909 1719 
L 3909 0 
L 2784 0 
L 2784 1825 
Q 2784 2406 2684 2573 
Q 2584 2741 2328 2741 
Q 2006 2741 1831 2477 
Q 1656 2213 1656 1722 
L 1656 0 
L 531 0 
L 531 3500 
L 1656 3500 
L 1656 2988 
Q 1863 3284 2130 3434 
Q 2397 3584 2719 3584 
Q 3081 3584 3359 3409 
Q 3638 3234 3781 2919 
z
" transform="scale(0.015625)"/>
       <path id="DejaVuSans-Bold-65" d="M 4031 1759 
L 4031 1441 
L 1416 1441 
Q 1456 1047 1700 850 
Q 1944 653 2381 653 
Q 2734 653 3104 758 
Q 3475 863 3866 1075 
L 3866 213 
Q 3469 63 3072 -14 
Q 2675 -91 2278 -91 
Q 1328 -91 801 392 
Q 275 875 275 1747 
Q 275 2603 792 3093 
Q 1309 3584 2216 3584 
Q 3041 3584 3536 3087 
Q 4031 2591 4031 1759 
z
M 2881 2131 
Q 2881 2450 2695 2645 
Q 2509 2841 2209 2841 
Q 1884 2841 1681 2658 
Q 1478 2475 1428 2131 
L 2881 2131 
z
" transform="scale(0.015625)"/>
       <path id="DejaVuSans-Bold-20" transform="scale(0.015625)"/>
       <path id="DejaVuSans-Bold-5b" d="M 550 4863 
L 2491 4863 
L 2491 4159 
L 1613 4159 
L 1613 -141 
L 2491 -141 
L 2491 -844 
L 550 -844 
L 550 4863 
z
" transform="scale(0.015625)"/>
       <path id="DejaVuSans-Bold-68" d="M 4056 2131 
L 4056 0 
L 2931 0 
L 2931 347 
L 2931 1625 
Q 2931 2084 2911 2256 
Q 2891 2428 2841 2509 
Q 2775 2619 2662 2680 
Q 2550 2741 2406 2741 
Q 2056 2741 1856 2470 
Q 1656 2200 1656 1722 
L 1656 0 
L 538 0 
L 538 4863 
L 1656 4863 
L 1656 2988 
Q 1909 3294 2193 3439 
Q 2478 3584 2822 3584 
Q 3428 3584 3742 3212 
Q 4056 2841 4056 2131 
z
" transform="scale(0.015625)"/>
       <path id="DejaVuSans-Bold-72" d="M 3138 2547 
Q 2991 2616 2845 2648 
Q 2700 2681 2553 2681 
Q 2122 2681 1889 2404 
Q 1656 2128 1656 1613 
L 1656 0 
L 538 0 
L 538 3500 
L 1656 3500 
L 1656 2925 
Q 1872 3269 2151 3426 
Q 2431 3584 2822 3584 
Q 2878 3584 2943 3579 
Q 3009 3575 3134 3559 
L 3138 2547 
z
" transform="scale(0.015625)"/>
       <path id="DejaVuSans-Bold-5d" d="M 2375 -844 
L 434 -844 
L 434 -141 
L 1313 -141 
L 1313 4159 
L 434 4159 
L 434 4863 
L 2375 4863 
L 2375 -844 
z
" transform="scale(0.015625)"/>
      </defs>
      <use xlink:href="#DejaVuSans-Bold-74"/>
      <use xlink:href="#DejaVuSans-Bold-69" transform="translate(47.802734 0)"/>
      <use xlink:href="#DejaVuSans-Bold-6d" transform="translate(82.080078 0)"/>
      <use xlink:href="#DejaVuSans-Bold-65" transform="translate(186.279297 0)"/>
      <use xlink:href="#DejaVuSans-Bold-20" transform="translate(254.101562 0)"/>
      <use xlink:href="#DejaVuSans-Bold-5b" transform="translate(288.916016 0)"/>
      <use xlink:href="#DejaVuSans-Bold-68" transform="translate(334.619141 0)"/>
      <use xlink:href="#DejaVuSans-Bold-72" transform="translate(405.810547 0)"/>
      <use xlink:href="#DejaVuSans-Bold-5d" transform="translate(455.126953 0)"/>
     </g>
    </g>
   </g>
   <g id="matplotlib.axis_2">
    <g id="ytick_1">
     <g id="line2d_9">
      <defs>
       <path id="mb0def79c32" d="M 0 0 
L -3.5 0 
" style="stroke: #000000; stroke-width: 0.8"/>
      </defs>
      <g>
       <use xlink:href="#mb0def79c32" x="54.727813" y="309.286957" style="stroke: #000000; stroke-width: 0.8"/>
      </g>
     </g>
     <g id="text_10">
      <!-- 0 -->
      <g transform="translate(38.184063 314.985785) scale(0.15 -0.15)">
       <use xlink:href="#DejaVuSans-30"/>
      </g>
     </g>
    </g>
    <g id="ytick_2">
     <g id="line2d_10">
      <g>
       <use xlink:href="#mb0def79c32" x="54.727813" y="275.550118" style="stroke: #000000; stroke-width: 0.8"/>
      </g>
     </g>
     <g id="text_11">
      <!-- 2 -->
      <g transform="translate(38.184063 281.248946) scale(0.15 -0.15)">
       <use xlink:href="#DejaVuSans-32"/>
      </g>
     </g>
    </g>
    <g id="ytick_3">
     <g id="line2d_11">
      <g>
       <use xlink:href="#mb0def79c32" x="54.727813" y="241.81328" style="stroke: #000000; stroke-width: 0.8"/>
      </g>
     </g>
     <g id="text_12">
      <!-- 4 -->
      <g transform="translate(38.184063 247.512108) scale(0.15 -0.15)">
       <defs>
        <path id="DejaVuSans-34" d="M 2419 4116 
L 825 1625 
L 2419 1625 
L 2419 4116 
z
M 2253 4666 
L 3047 4666 
L 3047 1625 
L 3713 1625 
L 3713 1100 
L 3047 1100 
L 3047 0 
L 2419 0 
L 2419 1100 
L 313 1100 
L 313 1709 
L 2253 4666 
z
" transform="scale(0.015625)"/>
       </defs>
       <use xlink:href="#DejaVuSans-34"/>
      </g>
     </g>
    </g>
    <g id="ytick_4">
     <g id="line2d_12">
      <g>
       <use xlink:href="#mb0def79c32" x="54.727813" y="208.076441" style="stroke: #000000; stroke-width: 0.8"/>
      </g>
     </g>
     <g id="text_13">
      <!-- 6 -->
      <g transform="translate(38.184063 213.77527) scale(0.15 -0.15)">
       <defs>
        <path id="DejaVuSans-36" d="M 2113 2584 
Q 1688 2584 1439 2293 
Q 1191 2003 1191 1497 
Q 1191 994 1439 701 
Q 1688 409 2113 409 
Q 2538 409 2786 701 
Q 3034 994 3034 1497 
Q 3034 2003 2786 2293 
Q 2538 2584 2113 2584 
z
M 3366 4563 
L 3366 3988 
Q 3128 4100 2886 4159 
Q 2644 4219 2406 4219 
Q 1781 4219 1451 3797 
Q 1122 3375 1075 2522 
Q 1259 2794 1537 2939 
Q 1816 3084 2150 3084 
Q 2853 3084 3261 2657 
Q 3669 2231 3669 1497 
Q 3669 778 3244 343 
Q 2819 -91 2113 -91 
Q 1303 -91 875 529 
Q 447 1150 447 2328 
Q 447 3434 972 4092 
Q 1497 4750 2381 4750 
Q 2619 4750 2861 4703 
Q 3103 4656 3366 4563 
z
" transform="scale(0.015625)"/>
       </defs>
       <use xlink:href="#DejaVuSans-36"/>
      </g>
     </g>
    </g>
    <g id="ytick_5">
     <g id="line2d_13">
      <g>
       <use xlink:href="#mb0def79c32" x="54.727813" y="174.339603" style="stroke: #000000; stroke-width: 0.8"/>
      </g>
     </g>
     <g id="text_14">
      <!-- 8 -->
      <g transform="translate(38.184063 180.038431) scale(0.15 -0.15)">
       <defs>
        <path id="DejaVuSans-38" d="M 2034 2216 
Q 1584 2216 1326 1975 
Q 1069 1734 1069 1313 
Q 1069 891 1326 650 
Q 1584 409 2034 409 
Q 2484 409 2743 651 
Q 3003 894 3003 1313 
Q 3003 1734 2745 1975 
Q 2488 2216 2034 2216 
z
M 1403 2484 
Q 997 2584 770 2862 
Q 544 3141 544 3541 
Q 544 4100 942 4425 
Q 1341 4750 2034 4750 
Q 2731 4750 3128 4425 
Q 3525 4100 3525 3541 
Q 3525 3141 3298 2862 
Q 3072 2584 2669 2484 
Q 3125 2378 3379 2068 
Q 3634 1759 3634 1313 
Q 3634 634 3220 271 
Q 2806 -91 2034 -91 
Q 1263 -91 848 271 
Q 434 634 434 1313 
Q 434 1759 690 2068 
Q 947 2378 1403 2484 
z
M 1172 3481 
Q 1172 3119 1398 2916 
Q 1625 2713 2034 2713 
Q 2441 2713 2670 2916 
Q 2900 3119 2900 3481 
Q 2900 3844 2670 4047 
Q 2441 4250 2034 4250 
Q 1625 4250 1398 4047 
Q 1172 3844 1172 3481 
z
" transform="scale(0.015625)"/>
       </defs>
       <use xlink:href="#DejaVuSans-38"/>
      </g>
     </g>
    </g>
    <g id="ytick_6">
     <g id="line2d_14">
      <g>
       <use xlink:href="#mb0def79c32" x="54.727813" y="140.602765" style="stroke: #000000; stroke-width: 0.8"/>
      </g>
     </g>
     <g id="text_15">
      <!-- 10 -->
      <g transform="translate(28.640313 146.301593) scale(0.15 -0.15)">
       <use xlink:href="#DejaVuSans-31"/>
       <use xlink:href="#DejaVuSans-30" transform="translate(63.623047 0)"/>
      </g>
     </g>
    </g>
    <g id="ytick_7">
     <g id="line2d_15">
      <g>
       <use xlink:href="#mb0def79c32" x="54.727813" y="106.865926" style="stroke: #000000; stroke-width: 0.8"/>
      </g>
     </g>
     <g id="text_16">
      <!-- 12 -->
      <g transform="translate(28.640313 112.564754) scale(0.15 -0.15)">
       <use xlink:href="#DejaVuSans-31"/>
       <use xlink:href="#DejaVuSans-32" transform="translate(63.623047 0)"/>
      </g>
     </g>
    </g>
    <g id="text_17">
     <!-- sorafenib (plasma) [µM] -->
     <g transform="translate(20.877188 322.433927) rotate(-90) scale(0.18 -0.18)">
      <defs>
       <path id="DejaVuSans-Bold-73" d="M 3272 3391 
L 3272 2541 
Q 2913 2691 2578 2766 
Q 2244 2841 1947 2841 
Q 1628 2841 1473 2761 
Q 1319 2681 1319 2516 
Q 1319 2381 1436 2309 
Q 1553 2238 1856 2203 
L 2053 2175 
Q 2913 2066 3209 1816 
Q 3506 1566 3506 1031 
Q 3506 472 3093 190 
Q 2681 -91 1863 -91 
Q 1516 -91 1145 -36 
Q 775 19 384 128 
L 384 978 
Q 719 816 1070 734 
Q 1422 653 1784 653 
Q 2113 653 2278 743 
Q 2444 834 2444 1013 
Q 2444 1163 2330 1236 
Q 2216 1309 1875 1350 
L 1678 1375 
Q 931 1469 631 1722 
Q 331 1975 331 2491 
Q 331 3047 712 3315 
Q 1094 3584 1881 3584 
Q 2191 3584 2531 3537 
Q 2872 3491 3272 3391 
z
" transform="scale(0.015625)"/>
       <path id="DejaVuSans-Bold-6f" d="M 2203 2784 
Q 1831 2784 1636 2517 
Q 1441 2250 1441 1747 
Q 1441 1244 1636 976 
Q 1831 709 2203 709 
Q 2569 709 2762 976 
Q 2956 1244 2956 1747 
Q 2956 2250 2762 2517 
Q 2569 2784 2203 2784 
z
M 2203 3584 
Q 3106 3584 3614 3096 
Q 4122 2609 4122 1747 
Q 4122 884 3614 396 
Q 3106 -91 2203 -91 
Q 1297 -91 786 396 
Q 275 884 275 1747 
Q 275 2609 786 3096 
Q 1297 3584 2203 3584 
z
" transform="scale(0.015625)"/>
       <path id="DejaVuSans-Bold-61" d="M 2106 1575 
Q 1756 1575 1579 1456 
Q 1403 1338 1403 1106 
Q 1403 894 1545 773 
Q 1688 653 1941 653 
Q 2256 653 2472 879 
Q 2688 1106 2688 1447 
L 2688 1575 
L 2106 1575 
z
M 3816 1997 
L 3816 0 
L 2688 0 
L 2688 519 
Q 2463 200 2181 54 
Q 1900 -91 1497 -91 
Q 953 -91 614 226 
Q 275 544 275 1050 
Q 275 1666 698 1953 
Q 1122 2241 2028 2241 
L 2688 2241 
L 2688 2328 
Q 2688 2594 2478 2717 
Q 2269 2841 1825 2841 
Q 1466 2841 1156 2769 
Q 847 2697 581 2553 
L 581 3406 
Q 941 3494 1303 3539 
Q 1666 3584 2028 3584 
Q 2975 3584 3395 3211 
Q 3816 2838 3816 1997 
z
" transform="scale(0.015625)"/>
       <path id="DejaVuSans-Bold-66" d="M 2841 4863 
L 2841 4128 
L 2222 4128 
Q 1984 4128 1890 4042 
Q 1797 3956 1797 3744 
L 1797 3500 
L 2753 3500 
L 2753 2700 
L 1797 2700 
L 1797 0 
L 678 0 
L 678 2700 
L 122 2700 
L 122 3500 
L 678 3500 
L 678 3744 
Q 678 4316 997 4589 
Q 1316 4863 1984 4863 
L 2841 4863 
z
" transform="scale(0.015625)"/>
       <path id="DejaVuSans-Bold-6e" d="M 4056 2131 
L 4056 0 
L 2931 0 
L 2931 347 
L 2931 1631 
Q 2931 2084 2911 2256 
Q 2891 2428 2841 2509 
Q 2775 2619 2662 2680 
Q 2550 2741 2406 2741 
Q 2056 2741 1856 2470 
Q 1656 2200 1656 1722 
L 1656 0 
L 538 0 
L 538 3500 
L 1656 3500 
L 1656 2988 
Q 1909 3294 2193 3439 
Q 2478 3584 2822 3584 
Q 3428 3584 3742 3212 
Q 4056 2841 4056 2131 
z
" transform="scale(0.015625)"/>
       <path id="DejaVuSans-Bold-62" d="M 2400 722 
Q 2759 722 2948 984 
Q 3138 1247 3138 1747 
Q 3138 2247 2948 2509 
Q 2759 2772 2400 2772 
Q 2041 2772 1848 2508 
Q 1656 2244 1656 1747 
Q 1656 1250 1848 986 
Q 2041 722 2400 722 
z
M 1656 2988 
Q 1888 3294 2169 3439 
Q 2450 3584 2816 3584 
Q 3463 3584 3878 3070 
Q 4294 2556 4294 1747 
Q 4294 938 3878 423 
Q 3463 -91 2816 -91 
Q 2450 -91 2169 54 
Q 1888 200 1656 506 
L 1656 0 
L 538 0 
L 538 4863 
L 1656 4863 
L 1656 2988 
z
" transform="scale(0.015625)"/>
       <path id="DejaVuSans-Bold-28" d="M 2413 -844 
L 1484 -844 
Q 1006 -72 778 623 
Q 550 1319 550 2003 
Q 550 2688 779 3389 
Q 1009 4091 1484 4856 
L 2413 4856 
Q 2013 4116 1813 3408 
Q 1613 2700 1613 2009 
Q 1613 1319 1811 609 
Q 2009 -100 2413 -844 
z
" transform="scale(0.015625)"/>
       <path id="DejaVuSans-Bold-70" d="M 1656 506 
L 1656 -1331 
L 538 -1331 
L 538 3500 
L 1656 3500 
L 1656 2988 
Q 1888 3294 2169 3439 
Q 2450 3584 2816 3584 
Q 3463 3584 3878 3070 
Q 4294 2556 4294 1747 
Q 4294 938 3878 423 
Q 3463 -91 2816 -91 
Q 2450 -91 2169 54 
Q 1888 200 1656 506 
z
M 2400 2772 
Q 2041 2772 1848 2508 
Q 1656 2244 1656 1747 
Q 1656 1250 1848 986 
Q 2041 722 2400 722 
Q 2759 722 2948 984 
Q 3138 1247 3138 1747 
Q 3138 2247 2948 2509 
Q 2759 2772 2400 2772 
z
" transform="scale(0.015625)"/>
       <path id="DejaVuSans-Bold-6c" d="M 538 4863 
L 1656 4863 
L 1656 0 
L 538 0 
L 538 4863 
z
" transform="scale(0.015625)"/>
       <path id="DejaVuSans-Bold-29" d="M 513 -844 
Q 913 -100 1113 609 
Q 1313 1319 1313 2009 
Q 1313 2700 1113 3408 
Q 913 4116 513 4856 
L 1441 4856 
Q 1916 4091 2145 3389 
Q 2375 2688 2375 2003 
Q 2375 1319 2147 623 
Q 1919 -72 1441 -844 
L 513 -844 
z
" transform="scale(0.015625)"/>
       <path id="DejaVuSans-Bold-b5" d="M 544 -1338 
L 544 3500 
L 1672 3500 
L 1672 1466 
Q 1672 1103 1828 926 
Q 1984 750 2303 750 
Q 2625 750 2781 926 
Q 2938 1103 2938 1466 
L 2938 3500 
L 4063 3500 
L 4063 1159 
Q 4063 938 4114 850 
Q 4166 763 4288 763 
Q 4344 763 4395 778 
Q 4447 794 4506 831 
L 4506 50 
Q 4341 -22 4195 -56 
Q 4050 -91 3909 -91 
Q 3631 -91 3454 26 
Q 3278 144 3169 403 
Q 3022 156 2811 32 
Q 2600 -91 2322 -91 
Q 2091 -91 1928 -17 
Q 1766 56 1672 206 
L 1672 -1338 
L 544 -1338 
z
" transform="scale(0.015625)"/>
       <path id="DejaVuSans-Bold-4d" d="M 588 4666 
L 2119 4666 
L 3181 2169 
L 4250 4666 
L 5778 4666 
L 5778 0 
L 4641 0 
L 4641 3413 
L 3566 897 
L 2803 897 
L 1728 3413 
L 1728 0 
L 588 0 
L 588 4666 
z
" transform="scale(0.015625)"/>
      </defs>
      <use xlink:href="#DejaVuSans-Bold-73"/>
      <use xlink:href="#DejaVuSans-Bold-6f" transform="translate(59.521484 0)"/>
      <use xlink:href="#DejaVuSans-Bold-72" transform="translate(128.222656 0)"/>
      <use xlink:href="#DejaVuSans-Bold-61" transform="translate(177.539062 0)"/>
      <use xlink:href="#DejaVuSans-Bold-66" transform="translate(245.019531 0)"/>
      <use xlink:href="#DejaVuSans-Bold-65" transform="translate(288.525391 0)"/>
      <use xlink:href="#DejaVuSans-Bold-6e" transform="translate(356.347656 0)"/>
      <use xlink:href="#DejaVuSans-Bold-69" transform="translate(427.539062 0)"/>
      <use xlink:href="#DejaVuSans-Bold-62" transform="translate(461.816406 0)"/>
      <use xlink:href="#DejaVuSans-Bold-20" transform="translate(533.398438 0)"/>
      <use xlink:href="#DejaVuSans-Bold-28" transform="translate(568.212891 0)"/>
      <use xlink:href="#DejaVuSans-Bold-70" transform="translate(613.916016 0)"/>
      <use xlink:href="#DejaVuSans-Bold-6c" transform="translate(685.498047 0)"/>
      <use xlink:href="#DejaVuSans-Bold-61" transform="translate(719.775391 0)"/>
      <use xlink:href="#DejaVuSans-Bold-73" transform="translate(787.255859 0)"/>
      <use xlink:href="#DejaVuSans-Bold-6d" transform="translate(846.777344 0)"/>
      <use xlink:href="#DejaVuSans-Bold-61" transform="translate(950.976562 0)"/>
      <use xlink:href="#DejaVuSans-Bold-29" transform="translate(1018.457031 0)"/>
      <use xlink:href="#DejaVuSans-Bold-20" transform="translate(1064.160156 0)"/>
      <use xlink:href="#DejaVuSans-Bold-5b" transform="translate(1098.974609 0)"/>
      <use xlink:href="#DejaVuSans-Bold-b5" transform="translate(1144.677734 0)"/>
      <use xlink:href="#DejaVuSans-Bold-4d" transform="translate(1218.261719 0)"/>
      <use xlink:href="#DejaVuSans-Bold-5d" transform="translate(1317.773438 0)"/>
     </g>
    </g>
   </g>
   <g id="LineCollection_1">
    <path d="M 405.741752 241.458155 
L 405.741752 171.474247 
" clip-path="url(#p647b876b6c)" style="fill: none; stroke: #f48849"/>
    <path d="M 409.248823 232.65363 
L 409.248823 153.585453 
" clip-path="url(#p647b876b6c)" style="fill: none; stroke: #f48849"/>
    <path d="M 416.701348 252.791971 
L 416.701348 90.156522 
" clip-path="url(#p647b876b6c)" style="fill: none; stroke: #f48849"/>
    <path d="M 427.397914 265.084635 
L 427.397914 171.474247 
" clip-path="url(#p647b876b6c)" style="fill: none; stroke: #f48849"/>
   </g>
   <g id="line2d_16">
    <path d="M 72.482358 309.286957 
L 72.719085 309.085743 
L 73.074176 308.138977 
L 73.547631 305.980619 
L 74.257813 301.542739 
L 77.927085 276.758608 
L 78.992358 271.706393 
L 79.939267 268.177255 
L 80.886176 265.455231 
L 81.833085 263.426514 
L 82.661631 262.130116 
L 83.490176 261.2057 
L 84.318722 260.589441 
L 85.147267 260.22565 
L 86.094176 260.058276 
L 87.159449 260.116818 
L 88.343085 260.41044 
L 89.881813 261.041993 
L 91.893994 262.130602 
L 95.089813 264.145189 
L 96.273449 264.872835 
L 96.510176 264.639364 
L 96.865267 263.698069 
L 97.338722 261.61957 
L 98.167267 256.623065 
L 101.244722 236.748131 
L 102.309994 231.706918 
L 103.256903 228.226762 
L 104.203813 225.613396 
L 105.032358 223.954187 
L 105.860903 222.79955 
L 106.571085 222.154027 
L 107.281267 221.779213 
L 107.991449 221.634694 
L 108.819994 221.709225 
L 109.766903 222.054567 
L 110.832176 222.700985 
L 112.134176 223.76289 
L 113.909631 225.529117 
L 116.513631 228.472182 
L 120.06454 232.49407 
L 120.301267 232.21266 
L 120.656358 231.247904 
L 121.129813 229.206683 
L 121.958358 224.400636 
L 124.799085 206.919534 
L 125.864358 202.069646 
L 126.811267 198.769793 
L 127.639813 196.615593 
L 128.468358 195.075965 
L 129.17854 194.187726 
L 129.888722 193.646466 
L 130.598903 193.405655 
L 131.309085 193.422119 
L 132.019267 193.656711 
L 132.847813 194.159797 
L 133.913085 195.096743 
L 135.215085 196.572856 
L 136.872176 198.805301 
L 139.357813 202.560512 
L 143.737267 209.313279 
L 143.973994 209.122471 
L 144.329085 208.289407 
L 144.80254 206.414697 
L 145.631085 201.873876 
L 148.471813 185.122863 
L 149.537085 180.518537 
L 150.483994 177.439428 
L 151.31254 175.484038 
L 152.022722 174.305554 
L 152.732903 173.536405 
L 153.324722 173.173004 
L 153.91654 173.032589 
L 154.626722 173.1218 
L 155.336903 173.452885 
L 156.165449 174.094884 
L 157.230722 175.245448 
L 158.532722 177.024564 
L 160.189813 179.689422 
L 162.675449 184.148377 
L 167.409994 192.844978 
L 167.646722 192.719956 
L 168.001813 191.982632 
L 168.475267 190.229233 
L 169.185449 186.56564 
L 172.499631 168.059573 
L 173.44654 164.426618 
L 174.275085 162.027262 
L 175.103631 160.310456 
L 175.813813 159.331951 
L 176.405631 158.827986 
L 176.997449 158.577145 
L 177.589267 158.551899 
L 178.299449 158.782557 
L 179.009631 159.258302 
L 179.838176 160.072583 
L 180.903449 161.449116 
L 182.205449 163.509168 
L 183.980903 166.763704 
L 186.703267 172.272554 
L 191.082722 181.227135 
L 191.319449 181.149226 
L 191.556176 180.768194 
L 191.911267 179.740087 
L 192.503085 177.157327 
L 193.568358 171.137773 
L 195.462176 160.475403 
L 196.527449 155.783841 
L 197.474358 152.626334 
L 198.302903 150.629458 
L 199.013085 149.444619 
L 199.723267 148.699278 
L 200.315085 148.379204 
L 200.906903 148.302933 
L 201.498722 148.443325 
L 202.208903 148.861718 
L 203.037449 149.643014 
L 203.984358 150.852056 
L 205.167994 152.730223 
L 206.706722 155.603524 
L 208.955631 160.323356 
L 214.400358 172.488069 
L 214.755449 173.071373 
L 214.992176 173.026882 
L 215.228903 172.678523 
L 215.583994 171.69783 
L 216.175813 169.189471 
L 217.241085 163.289728 
L 219.134903 152.808437 
L 220.200176 148.210274 
L 221.147085 145.135104 
L 221.975631 143.211346 
L 222.685813 142.090627 
L 223.277631 141.495695 
L 223.869449 141.179416 
L 224.461267 141.113731 
L 225.053085 141.271246 
L 225.763267 141.718267 
L 226.591813 142.543066 
L 227.538722 143.813419 
L 228.722358 145.782523 
L 230.261085 148.791927 
L 232.509994 153.733685 
L 237.836358 166.195431 
L 238.428176 167.365691 
L 238.664903 167.344747 
L 238.901631 167.019418 
L 239.256722 166.072158 
L 239.84854 163.616304 
L 240.795449 158.48575 
L 242.807631 147.448078 
L 243.872903 142.915985 
L 244.701449 140.223905 
L 245.529994 138.25228 
L 246.240176 137.098598 
L 246.831994 136.48293 
L 247.423813 136.152355 
L 248.015631 136.078808 
L 248.607449 136.234688 
L 249.317631 136.687485 
L 250.146176 137.528756 
L 251.093085 138.829173 
L 252.276722 140.849847 
L 253.815449 143.944057 
L 256.064358 149.033384 
L 261.153994 161.317055 
L 262.100903 163.383648 
L 262.337631 163.379221 
L 262.574358 163.070047 
L 262.929449 162.146248 
L 263.521267 159.727259 
L 264.468176 154.64999 
L 266.480358 143.708675 
L 267.545631 139.223047 
L 268.374176 136.566722 
L 269.202722 134.631233 
L 269.912903 133.509152 
L 270.504722 132.920384 
L 271.09654 132.617277 
L 271.688358 132.571781 
L 272.280176 132.75629 
L 272.990358 133.244163 
L 273.818903 134.12726 
L 274.765813 135.476495 
L 275.949449 137.559364 
L 277.488176 140.735643 
L 279.737085 145.945581 
L 285.063449 159.076752 
L 285.773631 160.609203 
L 286.010358 160.616322 
L 286.247085 160.318445 
L 286.602176 159.411054 
L 287.193994 157.017857 
L 288.140903 151.977892 
L 290.153085 141.104079 
L 291.218358 136.650996 
L 292.046903 134.019702 
L 292.875449 132.109499 
L 293.585631 131.009519 
L 294.177449 130.439557 
L 294.769267 130.155646 
L 295.361085 130.12975 
L 295.952903 130.334255 
L 296.663085 130.846624 
L 297.491631 131.758925 
L 298.43854 133.14224 
L 299.622176 135.268518 
L 301.160903 138.50207 
L 303.409813 143.796166 
L 309.091267 158.003745 
L 309.446358 158.678393 
L 309.683085 158.693567 
L 309.919813 158.403571 
L 310.274903 157.507629 
L 310.866722 155.132433 
L 311.813631 150.118514 
L 313.825813 139.291854 
L 314.891085 134.861504 
L 315.719631 132.247688 
L 316.548176 130.355134 
L 317.258358 129.270574 
L 317.850176 128.71373 
L 318.441994 128.443208 
L 319.033813 128.430978 
L 319.625631 128.649424 
L 320.335813 129.178868 
L 321.164358 130.111523 
L 322.111267 131.518585 
L 323.294903 133.675111 
L 324.951994 137.216695 
L 327.319267 142.887958 
L 333.237449 157.387869 
L 333.474176 157.249072 
L 333.829267 156.533944 
L 334.302722 154.871585 
L 335.012903 151.434922 
L 338.090358 135.43425 
L 339.037267 132.040657 
L 339.865813 129.855494 
L 340.575994 128.539273 
L 341.286176 127.69711 
L 341.877994 127.324662 
L 342.469813 127.221909 
L 343.061631 127.36097 
L 343.771813 127.8091 
L 344.600358 128.66458 
L 345.547267 130.004108 
L 346.730903 132.10236 
L 348.269631 135.334226 
L 350.400176 140.381956 
L 354.661267 151.201855 
L 356.791813 156.402707 
L 357.02854 156.427395 
L 357.265267 156.146709 
L 357.620358 155.264292 
L 358.212176 152.910366 
L 359.159085 147.927236 
L 361.171267 137.156339 
L 362.23654 132.752869 
L 363.065085 130.159714 
L 363.893631 128.288015 
L 364.603813 127.221673 
L 365.195631 126.680323 
L 365.787449 126.425609 
L 366.379267 126.429514 
L 366.971085 126.664418 
L 367.681267 127.214016 
L 368.509813 128.170691 
L 369.575085 129.806968 
L 370.877085 132.279027 
L 372.534176 135.939462 
L 375.019813 142.030421 
L 380.46454 155.754502 
L 380.701267 155.781905 
L 380.937994 155.503874 
L 381.293085 154.625316 
L 381.884903 152.277459 
L 382.831813 147.303117 
L 384.843994 136.54814 
L 385.909267 132.152344 
L 386.737813 129.565086 
L 387.566358 127.699339 
L 388.27654 126.638194 
L 388.868358 126.101264 
L 389.460176 125.851059 
L 390.051994 125.859565 
L 390.643813 126.099162 
L 391.353994 126.654507 
L 392.18254 127.61803 
L 393.247813 129.263304 
L 394.549813 131.746581 
L 396.206903 135.421493 
L 398.69254 141.534217 
L 404.137267 155.304319 
L 404.373994 155.333607 
L 404.610722 155.057422 
L 404.965813 154.181545 
L 405.557631 151.837907 
L 406.50454 146.869672 
L 408.516722 136.125762 
L 409.581994 131.7353 
L 410.41054 129.152141 
L 411.239085 127.29053 
L 411.949267 126.232996 
L 412.541085 125.699137 
L 413.132903 125.452066 
L 413.724722 125.463769 
L 414.31654 125.706627 
L 415.026722 126.265963 
L 415.855267 127.234245 
L 416.92054 128.88577 
L 418.22254 131.376839 
L 419.879631 135.061808 
L 422.365267 141.189651 
L 427.573267 154.59491 
L 427.573267 154.59491 
" clip-path="url(#p647b876b6c)" style="fill: none; stroke: #f48849; stroke-width: 2; stroke-linecap: square"/>
   </g>
   <g id="line2d_17">
    <path d="M 405.741752 206.466201 
L 409.248823 193.119541 
L 416.701348 171.474247 
L 427.397914 218.279441 
" clip-path="url(#p647b876b6c)" style="fill: none; stroke-dasharray: 3.7,1.6; stroke-dashoffset: 0; stroke: #f48849"/>
    <defs>
     <path id="m931f096bdc" d="M -3 3 
L 3 3 
L 3 -3 
L -3 -3 
z
" style="stroke: #000000; stroke-linejoin: miter"/>
    </defs>
    <g clip-path="url(#p647b876b6c)">
     <use xlink:href="#m931f096bdc" x="405.741752" y="206.466201" style="fill: #f48849; stroke: #000000; stroke-linejoin: miter"/>
     <use xlink:href="#m931f096bdc" x="409.248823" y="193.119541" style="fill: #f48849; stroke: #000000; stroke-linejoin: miter"/>
     <use xlink:href="#m931f096bdc" x="416.701348" y="171.474247" style="fill: #f48849; stroke: #000000; stroke-linejoin: miter"/>
     <use xlink:href="#m931f096bdc" x="427.397914" y="218.279441" style="fill: #f48849; stroke: #000000; stroke-linejoin: miter"/>
    </g>
   </g>
   <g id="patch_3">
    <path d="M 54.727813 320.243478 
L 54.727813 79.2 
" style="fill: none; stroke: #000000; stroke-width: 0.8; stroke-linejoin: miter; stroke-linecap: square"/>
   </g>
   <g id="patch_4">
    <path d="M 445.327813 320.243478 
L 445.327813 79.2 
" style="fill: none; stroke: #000000; stroke-width: 0.8; stroke-linejoin: miter; stroke-linecap: square"/>
   </g>
   <g id="patch_5">
    <path d="M 54.727813 320.243478 
L 445.327813 320.243478 
" style="fill: none; stroke: #000000; stroke-width: 0.8; stroke-linejoin: miter; stroke-linecap: square"/>
   </g>
   <g id="patch_6">
    <path d="M 54.727813 79.2 
L 445.327813 79.2 
" style="fill: none; stroke: #000000; stroke-width: 0.8; stroke-linejoin: miter; stroke-linecap: square"/>
   </g>
   <g id="legend_1">
    <g id="patch_7">
     <path d="M 282.08875 116.55625 
L 438.327813 116.55625 
Q 440.327813 116.55625 440.327813 114.55625 
L 440.327813 86.2 
Q 440.327813 84.2 438.327813 84.2 
L 282.08875 84.2 
Q 280.08875 84.2 280.08875 86.2 
L 280.08875 114.55625 
Q 280.08875 116.55625 282.08875 116.55625 
z
" style="fill: #ffffff; opacity: 0.8; stroke: #cccccc; stroke-linejoin: miter"/>
    </g>
    <g id="line2d_18">
     <path d="M 284.08875 92.298437 
L 304.08875 92.298437 
" style="fill: none; stroke: #f48849; stroke-width: 2; stroke-linecap: square"/>
    </g>
    <g id="line2d_19"/>
    <g id="text_18">
     <!-- Sim 800 mg -->
     <g transform="translate(312.08875 95.798437) scale(0.1 -0.1)">
      <defs>
       <path id="DejaVuSans-53" d="M 3425 4513 
L 3425 3897 
Q 3066 4069 2747 4153 
Q 2428 4238 2131 4238 
Q 1616 4238 1336 4038 
Q 1056 3838 1056 3469 
Q 1056 3159 1242 3001 
Q 1428 2844 1947 2747 
L 2328 2669 
Q 3034 2534 3370 2195 
Q 3706 1856 3706 1288 
Q 3706 609 3251 259 
Q 2797 -91 1919 -91 
Q 1588 -91 1214 -16 
Q 841 59 441 206 
L 441 856 
Q 825 641 1194 531 
Q 1563 422 1919 422 
Q 2459 422 2753 634 
Q 3047 847 3047 1241 
Q 3047 1584 2836 1778 
Q 2625 1972 2144 2069 
L 1759 2144 
Q 1053 2284 737 2584 
Q 422 2884 422 3419 
Q 422 4038 858 4394 
Q 1294 4750 2059 4750 
Q 2388 4750 2728 4690 
Q 3069 4631 3425 4513 
z
" transform="scale(0.015625)"/>
       <path id="DejaVuSans-69" d="M 603 3500 
L 1178 3500 
L 1178 0 
L 603 0 
L 603 3500 
z
M 603 4863 
L 1178 4863 
L 1178 4134 
L 603 4134 
L 603 4863 
z
" transform="scale(0.015625)"/>
       <path id="DejaVuSans-6d" d="M 3328 2828 
Q 3544 3216 3844 3400 
Q 4144 3584 4550 3584 
Q 5097 3584 5394 3201 
Q 5691 2819 5691 2113 
L 5691 0 
L 5113 0 
L 5113 2094 
Q 5113 2597 4934 2840 
Q 4756 3084 4391 3084 
Q 3944 3084 3684 2787 
Q 3425 2491 3425 1978 
L 3425 0 
L 2847 0 
L 2847 2094 
Q 2847 2600 2669 2842 
Q 2491 3084 2119 3084 
Q 1678 3084 1418 2786 
Q 1159 2488 1159 1978 
L 1159 0 
L 581 0 
L 581 3500 
L 1159 3500 
L 1159 2956 
Q 1356 3278 1631 3431 
Q 1906 3584 2284 3584 
Q 2666 3584 2933 3390 
Q 3200 3197 3328 2828 
z
" transform="scale(0.015625)"/>
       <path id="DejaVuSans-20" transform="scale(0.015625)"/>
       <path id="DejaVuSans-67" d="M 2906 1791 
Q 2906 2416 2648 2759 
Q 2391 3103 1925 3103 
Q 1463 3103 1205 2759 
Q 947 2416 947 1791 
Q 947 1169 1205 825 
Q 1463 481 1925 481 
Q 2391 481 2648 825 
Q 2906 1169 2906 1791 
z
M 3481 434 
Q 3481 -459 3084 -895 
Q 2688 -1331 1869 -1331 
Q 1566 -1331 1297 -1286 
Q 1028 -1241 775 -1147 
L 775 -588 
Q 1028 -725 1275 -790 
Q 1522 -856 1778 -856 
Q 2344 -856 2625 -561 
Q 2906 -266 2906 331 
L 2906 616 
Q 2728 306 2450 153 
Q 2172 0 1784 0 
Q 1141 0 747 490 
Q 353 981 353 1791 
Q 353 2603 747 3093 
Q 1141 3584 1784 3584 
Q 2172 3584 2450 3431 
Q 2728 3278 2906 2969 
L 2906 3500 
L 3481 3500 
L 3481 434 
z
" transform="scale(0.015625)"/>
      </defs>
      <use xlink:href="#DejaVuSans-53"/>
      <use xlink:href="#DejaVuSans-69" transform="translate(63.476562 0)"/>
      <use xlink:href="#DejaVuSans-6d" transform="translate(91.259766 0)"/>
      <use xlink:href="#DejaVuSans-20" transform="translate(188.671875 0)"/>
      <use xlink:href="#DejaVuSans-38" transform="translate(220.458984 0)"/>
      <use xlink:href="#DejaVuSans-30" transform="translate(284.082031 0)"/>
      <use xlink:href="#DejaVuSans-30" transform="translate(347.705078 0)"/>
      <use xlink:href="#DejaVuSans-20" transform="translate(411.328125 0)"/>
      <use xlink:href="#DejaVuSans-6d" transform="translate(443.115234 0)"/>
      <use xlink:href="#DejaVuSans-67" transform="translate(540.527344 0)"/>
     </g>
    </g>
    <g id="LineCollection_2">
     <path d="M 294.08875 111.976562 
L 294.08875 101.976562 
" style="fill: none; stroke: #f48849"/>
    </g>
    <g id="line2d_20">
     <path d="M 284.08875 106.976562 
L 304.08875 106.976562 
" style="fill: none; stroke-dasharray: 3.7,1.6; stroke-dashoffset: 0; stroke: #f48849"/>
    </g>
    <g id="line2d_21">
     <g>
      <use xlink:href="#m931f096bdc" x="294.08875" y="106.976562" style="fill: #f48849; stroke: #000000; stroke-linejoin: miter"/>
     </g>
    </g>
    <g id="text_19">
     <!-- RCC 800 [mg]±SD (n=5) -->
     <g transform="translate(312.08875 110.476562) scale(0.1 -0.1)">
      <defs>
       <path id="DejaVuSans-52" d="M 2841 2188 
Q 3044 2119 3236 1894 
Q 3428 1669 3622 1275 
L 4263 0 
L 3584 0 
L 2988 1197 
Q 2756 1666 2539 1819 
Q 2322 1972 1947 1972 
L 1259 1972 
L 1259 0 
L 628 0 
L 628 4666 
L 2053 4666 
Q 2853 4666 3247 4331 
Q 3641 3997 3641 3322 
Q 3641 2881 3436 2590 
Q 3231 2300 2841 2188 
z
M 1259 4147 
L 1259 2491 
L 2053 2491 
Q 2509 2491 2742 2702 
Q 2975 2913 2975 3322 
Q 2975 3731 2742 3939 
Q 2509 4147 2053 4147 
L 1259 4147 
z
" transform="scale(0.015625)"/>
       <path id="DejaVuSans-43" d="M 4122 4306 
L 4122 3641 
Q 3803 3938 3442 4084 
Q 3081 4231 2675 4231 
Q 1875 4231 1450 3742 
Q 1025 3253 1025 2328 
Q 1025 1406 1450 917 
Q 1875 428 2675 428 
Q 3081 428 3442 575 
Q 3803 722 4122 1019 
L 4122 359 
Q 3791 134 3420 21 
Q 3050 -91 2638 -91 
Q 1578 -91 968 557 
Q 359 1206 359 2328 
Q 359 3453 968 4101 
Q 1578 4750 2638 4750 
Q 3056 4750 3426 4639 
Q 3797 4528 4122 4306 
z
" transform="scale(0.015625)"/>
       <path id="DejaVuSans-5b" d="M 550 4863 
L 1875 4863 
L 1875 4416 
L 1125 4416 
L 1125 -397 
L 1875 -397 
L 1875 -844 
L 550 -844 
L 550 4863 
z
" transform="scale(0.015625)"/>
       <path id="DejaVuSans-5d" d="M 1947 4863 
L 1947 -844 
L 622 -844 
L 622 -397 
L 1369 -397 
L 1369 4416 
L 622 4416 
L 622 4863 
L 1947 4863 
z
" transform="scale(0.015625)"/>
       <path id="DejaVuSans-b1" d="M 2944 4013 
L 2944 2803 
L 4684 2803 
L 4684 2272 
L 2944 2272 
L 2944 1063 
L 2419 1063 
L 2419 2272 
L 678 2272 
L 678 2803 
L 2419 2803 
L 2419 4013 
L 2944 4013 
z
M 678 531 
L 4684 531 
L 4684 0 
L 678 0 
L 678 531 
z
" transform="scale(0.015625)"/>
       <path id="DejaVuSans-44" d="M 1259 4147 
L 1259 519 
L 2022 519 
Q 2988 519 3436 956 
Q 3884 1394 3884 2338 
Q 3884 3275 3436 3711 
Q 2988 4147 2022 4147 
L 1259 4147 
z
M 628 4666 
L 1925 4666 
Q 3281 4666 3915 4102 
Q 4550 3538 4550 2338 
Q 4550 1131 3912 565 
Q 3275 0 1925 0 
L 628 0 
L 628 4666 
z
" transform="scale(0.015625)"/>
       <path id="DejaVuSans-28" d="M 1984 4856 
Q 1566 4138 1362 3434 
Q 1159 2731 1159 2009 
Q 1159 1288 1364 580 
Q 1569 -128 1984 -844 
L 1484 -844 
Q 1016 -109 783 600 
Q 550 1309 550 2009 
Q 550 2706 781 3412 
Q 1013 4119 1484 4856 
L 1984 4856 
z
" transform="scale(0.015625)"/>
       <path id="DejaVuSans-6e" d="M 3513 2113 
L 3513 0 
L 2938 0 
L 2938 2094 
Q 2938 2591 2744 2837 
Q 2550 3084 2163 3084 
Q 1697 3084 1428 2787 
Q 1159 2491 1159 1978 
L 1159 0 
L 581 0 
L 581 3500 
L 1159 3500 
L 1159 2956 
Q 1366 3272 1645 3428 
Q 1925 3584 2291 3584 
Q 2894 3584 3203 3211 
Q 3513 2838 3513 2113 
z
" transform="scale(0.015625)"/>
       <path id="DejaVuSans-3d" d="M 678 2906 
L 4684 2906 
L 4684 2381 
L 678 2381 
L 678 2906 
z
M 678 1631 
L 4684 1631 
L 4684 1100 
L 678 1100 
L 678 1631 
z
" transform="scale(0.015625)"/>
       <path id="DejaVuSans-29" d="M 513 4856 
L 1013 4856 
Q 1481 4119 1714 3412 
Q 1947 2706 1947 2009 
Q 1947 1309 1714 600 
Q 1481 -109 1013 -844 
L 513 -844 
Q 928 -128 1133 580 
Q 1338 1288 1338 2009 
Q 1338 2731 1133 3434 
Q 928 4138 513 4856 
z
" transform="scale(0.015625)"/>
      </defs>
      <use xlink:href="#DejaVuSans-52"/>
      <use xlink:href="#DejaVuSans-43" transform="translate(64.482422 0)"/>
      <use xlink:href="#DejaVuSans-43" transform="translate(134.306641 0)"/>
      <use xlink:href="#DejaVuSans-20" transform="translate(204.130859 0)"/>
      <use xlink:href="#DejaVuSans-38" transform="translate(235.917969 0)"/>
      <use xlink:href="#DejaVuSans-30" transform="translate(299.541016 0)"/>
      <use xlink:href="#DejaVuSans-30" transform="translate(363.164062 0)"/>
      <use xlink:href="#DejaVuSans-20" transform="translate(426.787109 0)"/>
      <use xlink:href="#DejaVuSans-5b" transform="translate(458.574219 0)"/>
      <use xlink:href="#DejaVuSans-6d" transform="translate(497.587891 0)"/>
      <use xlink:href="#DejaVuSans-67" transform="translate(595 0)"/>
      <use xlink:href="#DejaVuSans-5d" transform="translate(658.476562 0)"/>
      <use xlink:href="#DejaVuSans-b1" transform="translate(697.490234 0)"/>
      <use xlink:href="#DejaVuSans-53" transform="translate(781.279297 0)"/>
      <use xlink:href="#DejaVuSans-44" transform="translate(844.755859 0)"/>
      <use xlink:href="#DejaVuSans-20" transform="translate(921.757812 0)"/>
      <use xlink:href="#DejaVuSans-28" transform="translate(953.544922 0)"/>
      <use xlink:href="#DejaVuSans-6e" transform="translate(992.558594 0)"/>
      <use xlink:href="#DejaVuSans-3d" transform="translate(1055.9375 0)"/>
      <use xlink:href="#DejaVuSans-35" transform="translate(1139.726562 0)"/>
      <use xlink:href="#DejaVuSans-29" transform="translate(1203.349609 0)"/>
     </g>
    </g>
   </g>
  </g>
  <g id="axes_2">
   <g id="patch_8">
    <path d="M 54.727813 633.6 
L 445.327813 633.6 
L 445.327813 392.556522 
L 54.727813 392.556522 
z
" style="fill: #ffffff"/>
   </g>
   <g id="matplotlib.axis_3">
    <g id="xtick_9">
     <g id="line2d_22">
      <g>
       <use xlink:href="#m94f7b186d0" x="78.40054" y="633.6" style="stroke: #000000; stroke-width: 0.8"/>
      </g>
     </g>
     <g id="text_20">
      <!-- −10 -->
      <g transform="translate(62.572024 651.997656) scale(0.15 -0.15)">
       <use xlink:href="#DejaVuSans-2212"/>
       <use xlink:href="#DejaVuSans-31" transform="translate(83.789062 0)"/>
       <use xlink:href="#DejaVuSans-30" transform="translate(147.412109 0)"/>
      </g>
     </g>
    </g>
    <g id="xtick_10">
     <g id="line2d_23">
      <g>
       <use xlink:href="#m94f7b186d0" x="137.582358" y="633.6" style="stroke: #000000; stroke-width: 0.8"/>
      </g>
     </g>
     <g id="text_21">
      <!-- −5 -->
      <g transform="translate(126.525717 651.997656) scale(0.15 -0.15)">
       <use xlink:href="#DejaVuSans-2212"/>
       <use xlink:href="#DejaVuSans-35" transform="translate(83.789062 0)"/>
      </g>
     </g>
    </g>
    <g id="xtick_11">
     <g id="line2d_24">
      <g>
       <use xlink:href="#m94f7b186d0" x="196.764176" y="633.6" style="stroke: #000000; stroke-width: 0.8"/>
      </g>
     </g>
     <g id="text_22">
      <!-- 0 -->
      <g transform="translate(191.992301 651.997656) scale(0.15 -0.15)">
       <use xlink:href="#DejaVuSans-30"/>
      </g>
     </g>
    </g>
    <g id="xtick_12">
     <g id="line2d_25">
      <g>
       <use xlink:href="#m94f7b186d0" x="255.945994" y="633.6" style="stroke: #000000; stroke-width: 0.8"/>
      </g>
     </g>
     <g id="text_23">
      <!-- 5 -->
      <g transform="translate(251.174119 651.997656) scale(0.15 -0.15)">
       <use xlink:href="#DejaVuSans-35"/>
      </g>
     </g>
    </g>
    <g id="xtick_13">
     <g id="line2d_26">
      <g>
       <use xlink:href="#m94f7b186d0" x="315.127813" y="633.6" style="stroke: #000000; stroke-width: 0.8"/>
      </g>
     </g>
     <g id="text_24">
      <!-- 10 -->
      <g transform="translate(305.584063 651.997656) scale(0.15 -0.15)">
       <use xlink:href="#DejaVuSans-31"/>
       <use xlink:href="#DejaVuSans-30" transform="translate(63.623047 0)"/>
      </g>
     </g>
    </g>
    <g id="xtick_14">
     <g id="line2d_27">
      <g>
       <use xlink:href="#m94f7b186d0" x="374.309631" y="633.6" style="stroke: #000000; stroke-width: 0.8"/>
      </g>
     </g>
     <g id="text_25">
      <!-- 15 -->
      <g transform="translate(364.765881 651.997656) scale(0.15 -0.15)">
       <use xlink:href="#DejaVuSans-31"/>
       <use xlink:href="#DejaVuSans-35" transform="translate(63.623047 0)"/>
      </g>
     </g>
    </g>
    <g id="xtick_15">
     <g id="line2d_28">
      <g>
       <use xlink:href="#m94f7b186d0" x="433.491449" y="633.6" style="stroke: #000000; stroke-width: 0.8"/>
      </g>
     </g>
     <g id="text_26">
      <!-- 20 -->
      <g transform="translate(423.947699 651.997656) scale(0.15 -0.15)">
       <use xlink:href="#DejaVuSans-32"/>
       <use xlink:href="#DejaVuSans-30" transform="translate(63.623047 0)"/>
      </g>
     </g>
    </g>
    <g id="text_27">
     <!-- time [hr] -->
     <g transform="translate(204.953281 672.794375) scale(0.18 -0.18)">
      <use xlink:href="#DejaVuSans-Bold-74"/>
      <use xlink:href="#DejaVuSans-Bold-69" transform="translate(47.802734 0)"/>
      <use xlink:href="#DejaVuSans-Bold-6d" transform="translate(82.080078 0)"/>
      <use xlink:href="#DejaVuSans-Bold-65" transform="translate(186.279297 0)"/>
      <use xlink:href="#DejaVuSans-Bold-20" transform="translate(254.101562 0)"/>
      <use xlink:href="#DejaVuSans-Bold-5b" transform="translate(288.916016 0)"/>
      <use xlink:href="#DejaVuSans-Bold-68" transform="translate(334.619141 0)"/>
      <use xlink:href="#DejaVuSans-Bold-72" transform="translate(405.810547 0)"/>
      <use xlink:href="#DejaVuSans-Bold-5d" transform="translate(455.126953 0)"/>
     </g>
    </g>
   </g>
   <g id="matplotlib.axis_4">
    <g id="ytick_8">
     <g id="line2d_29">
      <g>
       <use xlink:href="#mb0def79c32" x="54.727813" y="622.643478" style="stroke: #000000; stroke-width: 0.8"/>
      </g>
     </g>
     <g id="text_28">
      <!-- 0 -->
      <g transform="translate(38.184063 628.342306) scale(0.15 -0.15)">
       <use xlink:href="#DejaVuSans-30"/>
      </g>
     </g>
    </g>
    <g id="ytick_9">
     <g id="line2d_30">
      <g>
       <use xlink:href="#mb0def79c32" x="54.727813" y="588.90664" style="stroke: #000000; stroke-width: 0.8"/>
      </g>
     </g>
     <g id="text_29">
      <!-- 2 -->
      <g transform="translate(38.184063 594.605468) scale(0.15 -0.15)">
       <use xlink:href="#DejaVuSans-32"/>
      </g>
     </g>
    </g>
    <g id="ytick_10">
     <g id="line2d_31">
      <g>
       <use xlink:href="#mb0def79c32" x="54.727813" y="555.169802" style="stroke: #000000; stroke-width: 0.8"/>
      </g>
     </g>
     <g id="text_30">
      <!-- 4 -->
      <g transform="translate(38.184063 560.86863) scale(0.15 -0.15)">
       <use xlink:href="#DejaVuSans-34"/>
      </g>
     </g>
    </g>
    <g id="ytick_11">
     <g id="line2d_32">
      <g>
       <use xlink:href="#mb0def79c32" x="54.727813" y="521.432963" style="stroke: #000000; stroke-width: 0.8"/>
      </g>
     </g>
     <g id="text_31">
      <!-- 6 -->
      <g transform="translate(38.184063 527.131791) scale(0.15 -0.15)">
       <use xlink:href="#DejaVuSans-36"/>
      </g>
     </g>
    </g>
    <g id="ytick_12">
     <g id="line2d_33">
      <g>
       <use xlink:href="#mb0def79c32" x="54.727813" y="487.696125" style="stroke: #000000; stroke-width: 0.8"/>
      </g>
     </g>
     <g id="text_32">
      <!-- 8 -->
      <g transform="translate(38.184063 493.394953) scale(0.15 -0.15)">
       <use xlink:href="#DejaVuSans-38"/>
      </g>
     </g>
    </g>
    <g id="ytick_13">
     <g id="line2d_34">
      <g>
       <use xlink:href="#mb0def79c32" x="54.727813" y="453.959286" style="stroke: #000000; stroke-width: 0.8"/>
      </g>
     </g>
     <g id="text_33">
      <!-- 10 -->
      <g transform="translate(28.640313 459.658115) scale(0.15 -0.15)">
       <use xlink:href="#DejaVuSans-31"/>
       <use xlink:href="#DejaVuSans-30" transform="translate(63.623047 0)"/>
      </g>
     </g>
    </g>
    <g id="ytick_14">
     <g id="line2d_35">
      <g>
       <use xlink:href="#mb0def79c32" x="54.727813" y="420.222448" style="stroke: #000000; stroke-width: 0.8"/>
      </g>
     </g>
     <g id="text_34">
      <!-- 12 -->
      <g transform="translate(28.640313 425.921276) scale(0.15 -0.15)">
       <use xlink:href="#DejaVuSans-31"/>
       <use xlink:href="#DejaVuSans-32" transform="translate(63.623047 0)"/>
      </g>
     </g>
    </g>
    <g id="text_35">
     <!-- sorafenib (plasma) [µM] -->
     <g transform="translate(20.877188 635.790448) rotate(-90) scale(0.18 -0.18)">
      <use xlink:href="#DejaVuSans-Bold-73"/>
      <use xlink:href="#DejaVuSans-Bold-6f" transform="translate(59.521484 0)"/>
      <use xlink:href="#DejaVuSans-Bold-72" transform="translate(128.222656 0)"/>
      <use xlink:href="#DejaVuSans-Bold-61" transform="translate(177.539062 0)"/>
      <use xlink:href="#DejaVuSans-Bold-66" transform="translate(245.019531 0)"/>
      <use xlink:href="#DejaVuSans-Bold-65" transform="translate(288.525391 0)"/>
      <use xlink:href="#DejaVuSans-Bold-6e" transform="translate(356.347656 0)"/>
      <use xlink:href="#DejaVuSans-Bold-69" transform="translate(427.539062 0)"/>
      <use xlink:href="#DejaVuSans-Bold-62" transform="translate(461.816406 0)"/>
      <use xlink:href="#DejaVuSans-Bold-20" transform="translate(533.398438 0)"/>
      <use xlink:href="#DejaVuSans-Bold-28" transform="translate(568.212891 0)"/>
      <use xlink:href="#DejaVuSans-Bold-70" transform="translate(613.916016 0)"/>
      <use xlink:href="#DejaVuSans-Bold-6c" transform="translate(685.498047 0)"/>
      <use xlink:href="#DejaVuSans-Bold-61" transform="translate(719.775391 0)"/>
      <use xlink:href="#DejaVuSans-Bold-73" transform="translate(787.255859 0)"/>
      <use xlink:href="#DejaVuSans-Bold-6d" transform="translate(846.777344 0)"/>
      <use xlink:href="#DejaVuSans-Bold-61" transform="translate(950.976562 0)"/>
      <use xlink:href="#DejaVuSans-Bold-29" transform="translate(1018.457031 0)"/>
      <use xlink:href="#DejaVuSans-Bold-20" transform="translate(1064.160156 0)"/>
      <use xlink:href="#DejaVuSans-Bold-5b" transform="translate(1098.974609 0)"/>
      <use xlink:href="#DejaVuSans-Bold-b5" transform="translate(1144.677734 0)"/>
      <use xlink:href="#DejaVuSans-Bold-4d" transform="translate(1218.261719 0)"/>
      <use xlink:href="#DejaVuSans-Bold-5d" transform="translate(1317.773438 0)"/>
     </g>
    </g>
   </g>
   <g id="LineCollection_3">
    <path d="M 207.811449 554.814676 
L 207.811449 484.830768 
" clip-path="url(#p6fb8ba28a3)" style="fill: none; stroke: #f48849"/>
    <path d="M 228.853873 546.010152 
L 228.853873 466.941975 
" clip-path="url(#p6fb8ba28a3)" style="fill: none; stroke: #f48849"/>
    <path d="M 273.569025 566.148493 
L 273.569025 403.513043 
" clip-path="url(#p6fb8ba28a3)" style="fill: none; stroke: #f48849"/>
    <path d="M 337.748419 578.441157 
L 337.748419 484.830768 
" clip-path="url(#p6fb8ba28a3)" style="fill: none; stroke: #f48849"/>
   </g>
   <g id="line2d_36">
    <path d="M 54.017631 468.417662 
L 55.437994 468.964332 
L 56.858358 469.166437 
L 58.278722 469.034189 
L 59.699085 468.623261 
L 61.119449 467.981838 
L 63.249994 466.678344 
L 65.38054 465.070925 
L 68.221267 462.623173 
L 74.612903 456.656415 
L 78.873994 452.820852 
L 82.424903 449.904662 
L 85.975813 447.317482 
L 88.81654 445.508866 
L 91.657267 443.940349 
L 94.497994 442.611721 
L 97.338722 441.517642 
L 100.179449 440.64913 
L 103.020176 439.994716 
L 105.860903 439.541341 
L 108.701631 439.275048 
L 112.25254 439.183426 
L 115.803449 439.333842 
L 119.354358 439.699278 
L 123.615449 440.3857 
L 127.87654 441.304101 
L 132.847813 442.619826 
L 138.529267 444.383259 
L 144.920903 446.62135 
L 152.732903 449.617844 
L 162.675449 453.693179 
L 179.719813 460.973833 
L 197.474358 468.513192 
L 198.894722 468.717202 
L 200.315085 468.58682 
L 201.735449 468.177715 
L 203.155813 467.538067 
L 205.286358 466.237143 
L 207.416903 464.632178 
L 210.257631 462.187525 
L 216.649267 456.227111 
L 220.910358 452.395407 
L 224.461267 449.482284 
L 228.012176 446.898086 
L 230.852903 445.091822 
L 233.693631 443.525646 
L 236.534358 442.199363 
L 239.375085 441.107644 
L 242.215813 440.241517 
L 245.05654 439.589518 
L 247.897267 439.138595 
L 250.737994 438.874794 
L 254.288903 438.786343 
L 257.839813 438.939995 
L 261.390722 439.308728 
L 265.651813 439.999184 
L 269.912903 440.921693 
L 274.884176 442.242292 
L 280.565631 444.011379 
L 286.957267 446.255906 
L 294.769267 449.260324 
L 304.711813 453.345744 
L 321.756176 460.643441 
L 338.80054 467.951432 
L 338.80054 467.951432 
" clip-path="url(#p6fb8ba28a3)" style="fill: none; stroke: #f48849; stroke-width: 2; stroke-linecap: square"/>
   </g>
   <g id="line2d_37">
    <path d="M 207.811449 519.822722 
L 228.853873 506.476063 
L 273.569025 484.830768 
L 337.748419 531.635963 
" clip-path="url(#p6fb8ba28a3)" style="fill: none; stroke-dasharray: 3.7,1.6; stroke-dashoffset: 0; stroke: #f48849"/>
    <g clip-path="url(#p6fb8ba28a3)">
     <use xlink:href="#m931f096bdc" x="207.811449" y="519.822722" style="fill: #f48849; stroke: #000000; stroke-linejoin: miter"/>
     <use xlink:href="#m931f096bdc" x="228.853873" y="506.476063" style="fill: #f48849; stroke: #000000; stroke-linejoin: miter"/>
     <use xlink:href="#m931f096bdc" x="273.569025" y="484.830768" style="fill: #f48849; stroke: #000000; stroke-linejoin: miter"/>
     <use xlink:href="#m931f096bdc" x="337.748419" y="531.635963" style="fill: #f48849; stroke: #000000; stroke-linejoin: miter"/>
    </g>
   </g>
   <g id="patch_9">
    <path d="M 54.727813 633.6 
L 54.727813 392.556522 
" style="fill: none; stroke: #000000; stroke-width: 0.8; stroke-linejoin: miter; stroke-linecap: square"/>
   </g>
   <g id="patch_10">
    <path d="M 445.327813 633.6 
L 445.327813 392.556522 
" style="fill: none; stroke: #000000; stroke-width: 0.8; stroke-linejoin: miter; stroke-linecap: square"/>
   </g>
   <g id="patch_11">
    <path d="M 54.727813 633.6 
L 445.327813 633.6 
" style="fill: none; stroke: #000000; stroke-width: 0.8; stroke-linejoin: miter; stroke-linecap: square"/>
   </g>
   <g id="patch_12">
    <path d="M 54.727813 392.556522 
L 445.327813 392.556522 
" style="fill: none; stroke: #000000; stroke-width: 0.8; stroke-linejoin: miter; stroke-linecap: square"/>
   </g>
   <g id="legend_2">
    <g id="patch_13">
     <path d="M 282.08875 429.912772 
L 438.327813 429.912772 
Q 440.327813 429.912772 440.327813 427.912772 
L 440.327813 399.556522 
Q 440.327813 397.556522 438.327813 397.556522 
L 282.08875 397.556522 
Q 280.08875 397.556522 280.08875 399.556522 
L 280.08875 427.912772 
Q 280.08875 429.912772 282.08875 429.912772 
z
" style="fill: #ffffff; opacity: 0.8; stroke: #cccccc; stroke-linejoin: miter"/>
    </g>
    <g id="line2d_38">
     <path d="M 284.08875 405.654959 
L 304.08875 405.654959 
" style="fill: none; stroke: #f48849; stroke-width: 2; stroke-linecap: square"/>
    </g>
    <g id="line2d_39"/>
    <g id="text_36">
     <!-- Sim 800 mg -->
     <g transform="translate(312.08875 409.154959) scale(0.1 -0.1)">
      <use xlink:href="#DejaVuSans-53"/>
      <use xlink:href="#DejaVuSans-69" transform="translate(63.476562 0)"/>
      <use xlink:href="#DejaVuSans-6d" transform="translate(91.259766 0)"/>
      <use xlink:href="#DejaVuSans-20" transform="translate(188.671875 0)"/>
      <use xlink:href="#DejaVuSans-38" transform="translate(220.458984 0)"/>
      <use xlink:href="#DejaVuSans-30" transform="translate(284.082031 0)"/>
      <use xlink:href="#DejaVuSans-30" transform="translate(347.705078 0)"/>
      <use xlink:href="#DejaVuSans-20" transform="translate(411.328125 0)"/>
      <use xlink:href="#DejaVuSans-6d" transform="translate(443.115234 0)"/>
      <use xlink:href="#DejaVuSans-67" transform="translate(540.527344 0)"/>
     </g>
    </g>
    <g id="LineCollection_4">
     <path d="M 294.08875 425.333084 
L 294.08875 415.333084 
" style="fill: none; stroke: #f48849"/>
    </g>
    <g id="line2d_40">
     <path d="M 284.08875 420.333084 
L 304.08875 420.333084 
" style="fill: none; stroke-dasharray: 3.7,1.6; stroke-dashoffset: 0; stroke: #f48849"/>
    </g>
    <g id="line2d_41">
     <g>
      <use xlink:href="#m931f096bdc" x="294.08875" y="420.333084" style="fill: #f48849; stroke: #000000; stroke-linejoin: miter"/>
     </g>
    </g>
    <g id="text_37">
     <!-- RCC 800 [mg]±SD (n=5) -->
     <g transform="translate(312.08875 423.833084) scale(0.1 -0.1)">
      <use xlink:href="#DejaVuSans-52"/>
      <use xlink:href="#DejaVuSans-43" transform="translate(64.482422 0)"/>
      <use xlink:href="#DejaVuSans-43" transform="translate(134.306641 0)"/>
      <use xlink:href="#DejaVuSans-20" transform="translate(204.130859 0)"/>
      <use xlink:href="#DejaVuSans-38" transform="translate(235.917969 0)"/>
      <use xlink:href="#DejaVuSans-30" transform="translate(299.541016 0)"/>
      <use xlink:href="#DejaVuSans-30" transform="translate(363.164062 0)"/>
      <use xlink:href="#DejaVuSans-20" transform="translate(426.787109 0)"/>
      <use xlink:href="#DejaVuSans-5b" transform="translate(458.574219 0)"/>
      <use xlink:href="#DejaVuSans-6d" transform="translate(497.587891 0)"/>
      <use xlink:href="#DejaVuSans-67" transform="translate(595 0)"/>
      <use xlink:href="#DejaVuSans-5d" transform="translate(658.476562 0)"/>
      <use xlink:href="#DejaVuSans-b1" transform="translate(697.490234 0)"/>
      <use xlink:href="#DejaVuSans-53" transform="translate(781.279297 0)"/>
      <use xlink:href="#DejaVuSans-44" transform="translate(844.755859 0)"/>
      <use xlink:href="#DejaVuSans-20" transform="translate(921.757812 0)"/>
      <use xlink:href="#DejaVuSans-28" transform="translate(953.544922 0)"/>
      <use xlink:href="#DejaVuSans-6e" transform="translate(992.558594 0)"/>
      <use xlink:href="#DejaVuSans-3d" transform="translate(1055.9375 0)"/>
      <use xlink:href="#DejaVuSans-35" transform="translate(1139.726562 0)"/>
      <use xlink:href="#DejaVuSans-29" transform="translate(1203.349609 0)"/>
     </g>
    </g>
   </g>
  </g>
  <g id="text_38">
   <!-- Fukudo2014 -->
   <g transform="translate(157.380156 26.196094) scale(0.25 -0.25)">
    <defs>
     <path id="DejaVuSans-Bold-46" d="M 588 4666 
L 3834 4666 
L 3834 3756 
L 1791 3756 
L 1791 2888 
L 3713 2888 
L 3713 1978 
L 1791 1978 
L 1791 0 
L 588 0 
L 588 4666 
z
" transform="scale(0.015625)"/>
     <path id="DejaVuSans-Bold-75" d="M 500 1363 
L 500 3500 
L 1625 3500 
L 1625 3150 
Q 1625 2866 1622 2436 
Q 1619 2006 1619 1863 
Q 1619 1441 1641 1255 
Q 1663 1069 1716 984 
Q 1784 875 1895 815 
Q 2006 756 2150 756 
Q 2500 756 2700 1025 
Q 2900 1294 2900 1772 
L 2900 3500 
L 4019 3500 
L 4019 0 
L 2900 0 
L 2900 506 
Q 2647 200 2364 54 
Q 2081 -91 1741 -91 
Q 1134 -91 817 281 
Q 500 653 500 1363 
z
" transform="scale(0.015625)"/>
     <path id="DejaVuSans-Bold-6b" d="M 538 4863 
L 1656 4863 
L 1656 2216 
L 2944 3500 
L 4244 3500 
L 2534 1894 
L 4378 0 
L 3022 0 
L 1656 1459 
L 1656 0 
L 538 0 
L 538 4863 
z
" transform="scale(0.015625)"/>
     <path id="DejaVuSans-Bold-64" d="M 2919 2988 
L 2919 4863 
L 4044 4863 
L 4044 0 
L 2919 0 
L 2919 506 
Q 2688 197 2409 53 
Q 2131 -91 1766 -91 
Q 1119 -91 703 423 
Q 288 938 288 1747 
Q 288 2556 703 3070 
Q 1119 3584 1766 3584 
Q 2128 3584 2408 3439 
Q 2688 3294 2919 2988 
z
M 2181 722 
Q 2541 722 2730 984 
Q 2919 1247 2919 1747 
Q 2919 2247 2730 2509 
Q 2541 2772 2181 2772 
Q 1825 2772 1636 2509 
Q 1447 2247 1447 1747 
Q 1447 1247 1636 984 
Q 1825 722 2181 722 
z
" transform="scale(0.015625)"/>
     <path id="DejaVuSans-Bold-32" d="M 1844 884 
L 3897 884 
L 3897 0 
L 506 0 
L 506 884 
L 2209 2388 
Q 2438 2594 2547 2791 
Q 2656 2988 2656 3200 
Q 2656 3528 2436 3728 
Q 2216 3928 1850 3928 
Q 1569 3928 1234 3808 
Q 900 3688 519 3450 
L 519 4475 
Q 925 4609 1322 4679 
Q 1719 4750 2100 4750 
Q 2938 4750 3402 4381 
Q 3866 4013 3866 3353 
Q 3866 2972 3669 2642 
Q 3472 2313 2841 1759 
L 1844 884 
z
" transform="scale(0.015625)"/>
     <path id="DejaVuSans-Bold-30" d="M 2944 2338 
Q 2944 3213 2780 3570 
Q 2616 3928 2228 3928 
Q 1841 3928 1675 3570 
Q 1509 3213 1509 2338 
Q 1509 1453 1675 1090 
Q 1841 728 2228 728 
Q 2613 728 2778 1090 
Q 2944 1453 2944 2338 
z
M 4147 2328 
Q 4147 1169 3647 539 
Q 3147 -91 2228 -91 
Q 1306 -91 806 539 
Q 306 1169 306 2328 
Q 306 3491 806 4120 
Q 1306 4750 2228 4750 
Q 3147 4750 3647 4120 
Q 4147 3491 4147 2328 
z
" transform="scale(0.015625)"/>
     <path id="DejaVuSans-Bold-31" d="M 750 831 
L 1813 831 
L 1813 3847 
L 722 3622 
L 722 4441 
L 1806 4666 
L 2950 4666 
L 2950 831 
L 4013 831 
L 4013 0 
L 750 0 
L 750 831 
z
" transform="scale(0.015625)"/>
     <path id="DejaVuSans-Bold-34" d="M 2356 3675 
L 1038 1722 
L 2356 1722 
L 2356 3675 
z
M 2156 4666 
L 3494 4666 
L 3494 1722 
L 4159 1722 
L 4159 850 
L 3494 850 
L 3494 0 
L 2356 0 
L 2356 850 
L 288 850 
L 288 1881 
L 2156 4666 
z
" transform="scale(0.015625)"/>
    </defs>
    <use xlink:href="#DejaVuSans-Bold-46"/>
    <use xlink:href="#DejaVuSans-Bold-75" transform="translate(63.310547 0)"/>
    <use xlink:href="#DejaVuSans-Bold-6b" transform="translate(134.501953 0)"/>
    <use xlink:href="#DejaVuSans-Bold-75" transform="translate(201.005859 0)"/>
    <use xlink:href="#DejaVuSans-Bold-64" transform="translate(272.197266 0)"/>
    <use xlink:href="#DejaVuSans-Bold-6f" transform="translate(343.779297 0)"/>
    <use xlink:href="#DejaVuSans-Bold-32" transform="translate(412.480469 0)"/>
    <use xlink:href="#DejaVuSans-Bold-30" transform="translate(482.060547 0)"/>
    <use xlink:href="#DejaVuSans-Bold-31" transform="translate(551.640625 0)"/>
    <use xlink:href="#DejaVuSans-Bold-34" transform="translate(621.220703 0)"/>
   </g>
  </g>
 </g>
 <defs>
  <clipPath id="p647b876b6c">
   <rect x="54.727813" y="79.2" width="390.6" height="241.043478"/>
  </clipPath>
  <clipPath id="p6fb8ba28a3">
   <rect x="54.727813" y="392.556522" width="390.6" height="241.043478"/>
  </clipPath>
 </defs>
</svg>
